SplineFontDB: 3.0
FontName: BhavukaDevanagari24
FullName: BhavukaDevanagari24
FamilyName: BhavukaDevanagari24
Weight: Regular
Copyright: Copyright 2014 - Matt Heximer (www.10fourdesign.com)\nbased on Latin "Bellota" by Kemie Guaida (www.pixilate.com), \nwhich is in turn based on "Snippet" by Gesine Todt.\n\nLicensed under the SIL Open Font License 1.1 This license is available with a FAQ at: http://scripts.sil.org/OFL\n(see file OFL.txt)
Version: 2.700
ItalicAngle: 0
UnderlinePosition: 0
UnderlineWidth: 48
Ascent: 850
Descent: 400
sfntRevision: 0x0001b333
LayerCount: 2
Layer: 0 1 "Back"  1
Layer: 1 0 "Fore"  0
XUID: [1021 641 1310512963 1469]
FSType: 0
OS2Version: 0
OS2_WeightWidthSlopeOnly: 0
OS2_UseTypoMetrics: 1
CreationTime: 1405119260
ModificationTime: 1411528498
PfmFamily: 33
TTFWeight: 400
TTFWidth: 5
LineGap: 260
VLineGap: 0
Panose: 2 11 6 0 0 0 0 0 0 0
OS2TypoAscent: 976
OS2TypoAOffset: 0
OS2TypoDescent: -356
OS2TypoDOffset: 0
OS2TypoLinegap: 0
OS2WinAscent: 1095
OS2WinAOffset: 0
OS2WinDescent: 503
OS2WinDOffset: 0
HheadAscent: 1095
HheadAOffset: 0
HheadDescent: -503
HheadDOffset: 0
OS2SubXSize: 910
OS2SubYSize: 846
OS2SubXOff: 0
OS2SubYOff: 260
OS2SupXSize: 910
OS2SupYSize: 846
OS2SupXOff: 0
OS2SupYOff: 650
OS2StrikeYSize: 65
OS2StrikeYPos: 325
OS2Vendor: 'ACE '
OS2CodePages: 00000001.00000000
OS2UnicodeRanges: 80008023.00002042.00000000.00000000
Lookup: 1 0 0 "'aalt' Access All Alternates lookup 0"  {"'aalt' Access All Alternates lookup 0 subtable"  } ['aalt' ('DFLT' <'dflt' > 'armn' <'dflt' > 'grek' <'dflt' > 'latn' <'CAT ' 'MOL ' 'ROM ' 'dflt' > ) ]
Lookup: 3 0 0 "'aalt' Access All Alternates lookup 1"  {"'aalt' Access All Alternates lookup 1 subtable"  } ['aalt' ('DFLT' <'dflt' > 'armn' <'dflt' > 'grek' <'dflt' > 'latn' <'CAT ' 'MOL ' 'ROM ' 'dflt' > ) ]
Lookup: 1 0 0 "'locl' Localized Forms in Latin lookup 2"  {"'locl' Localized Forms in Latin lookup 2 subtable"  } ['locl' ('latn' <'ROM ' > ) ]

StartChar: .notdef
Encoding: 256 -1 0
Width: 500
VWidth: 1000
Flags: HMW
LayerCount: 2
Fore
SplineSet
0 0 m 1
 0 700 l 1
 500 700 l 1
 500 0 l 1
 0 0 l 1
250 395 m 1
 420 650 l 1
 80 650 l 1
 250 395 l 1
280 350 m 1
 450 95 l 1
 450 605 l 1
 280 350 l 1
80 50 m 1
 420 50 l 1
 250 305 l 1
 80 50 l 1
50 605 m 1
 50 95 l 1
 220 350 l 1
 50 605 l 1
EndSplineSet
Validated: 1
EndChar

StartChar: exclam
Encoding: 33 33 2
Width: 189
VWidth: 1000
Flags: HMW
LayerCount: 2
Fore
SplineSet
107 159 m 1
 51 159 l 1
 41 704 l 1
 117 704 l 1
 107 159 l 1
29 46 m 0
 29 72 52 95 78 95 c 0
 104 95 126 72 126 46 c 0
 126 20 104 -1 78 -1 c 0
 52 -1 29 21 29 46 c 0
EndSplineSet
Validated: 1
EndChar

StartChar: quotedbl
Encoding: 34 34 3
Width: 314
VWidth: 1000
Flags: HMW
LayerCount: 2
Fore
SplineSet
113 492 m 1
 61 492 l 1
 51 684 l 1
 123 684 l 1
 113 492 l 1
223 492 m 1
 171 492 l 1
 161 684 l 1
 233 684 l 1
 223 492 l 1
EndSplineSet
Validated: 1
EndChar

StartChar: numbersign
Encoding: 35 35 4
Width: 596
VWidth: 1000
Flags: HMW
LayerCount: 2
Fore
SplineSet
422 484 m 1
 536 484 l 1
 536 432 l 1
 422 432 l 1
 422 236 l 1
 536 236 l 1
 536 184 l 1
 422 184 l 1
 422 30 l 1
 368 30 l 1
 368 184 l 1
 199 184 l 1
 199 30 l 1
 145 30 l 1
 145 184 l 1
 29 184 l 1
 29 236 l 1
 143 236 l 1
 143 432 l 1
 29 432 l 1
 29 484 l 1
 143 484 l 1
 143 637 l 1
 199 637 l 1
 199 484 l 1
 366 484 l 1
 366 637 l 1
 422 637 l 1
 422 484 l 1
199 432 m 1
 199 236 l 1
 366 236 l 1
 366 432 l 1
 199 432 l 1
EndSplineSet
Validated: 1
EndChar

StartChar: dollar
Encoding: 36 36 5
Width: 542
VWidth: 1000
Flags: HMW
LayerCount: 2
Fore
SplineSet
286 750 m 1
 286 662 l 1
 322 662 358 651 393 637 c 0
 426 624 456 608 481 590 c 1
 448 542 l 1
 399 572 356 596 286 606 c 1
 286 364 l 1
 324 354 390 328 420 304 c 0
 457 276 483 234 483 169 c 0
 483 51 376 -8 286 -8 c 1
 286 -70 l 1
 228 -70 l 1
 228 -9 l 1
 189 -9 151 2 116 15 c 0
 83 28 53 44 26 64 c 1
 59 112 l 1
 108 81 158 55 228 47 c 1
 228 322 l 1
 186 336 141 352 112 381 c 0
 80 413 61 450 61 510 c 0
 61 581 109 622 159 644 c 0
 179 653 202 659 228 662 c 1
 228 750 l 1
 286 750 l 1
228 384 m 1
 228 608 l 1
 188 608 169 594 150 575 c 0
 132 557 123 535 123 510 c 0
 123 436 176 405 228 384 c 1
286 303 m 1
 286 46 l 1
 364 46 421 90 421 169 c 0
 421 254 349 282 286 303 c 1
EndSplineSet
Validated: 1
EndChar

StartChar: percent
Encoding: 37 37 6
Width: 737
VWidth: 1000
Flags: HMW
LayerCount: 2
Fore
SplineSet
32 556 m 2
 32 563 l 2
 32 644 92 711 168 711 c 0
 248 711 305 645 305 563 c 2
 305 556 l 2
 305 474 243 408 168 408 c 0
 92 408 32 475 32 556 c 2
255 556 m 2
 255 563 l 2
 255 617 221 661 168 661 c 0
 124 661 101 634 88 601 c 0
 83 590 81 577 81 563 c 2
 81 556 l 2
 81 503 116 458 168 458 c 0
 209 458 235 488 248 518 c 0
 253 529 255 542 255 556 c 2
268 0 m 1
 209 0 l 1
 428 653 l 1
 486 653 l 1
 268 0 l 1
407 138 m 2
 407 145 l 2
 407 228 465 293 543 293 c 0
 623 293 680 227 680 145 c 2
 680 138 l 2
 680 56 619 -10 543 -10 c 0
 466 -10 407 55 407 138 c 2
630 138 m 2
 630 145 l 2
 630 199 596 243 543 243 c 0
 499 243 476 216 463 183 c 0
 458 172 456 159 456 145 c 2
 456 138 l 2
 456 85 491 40 543 40 c 0
 584 40 610 70 623 100 c 0
 628 111 630 124 630 138 c 2
EndSplineSet
Validated: 1
EndChar

StartChar: ampersand
Encoding: 38 38 7
Width: 636
VWidth: 1000
Flags: HMW
LayerCount: 2
Fore
SplineSet
538 315 m 2
 538 236 519 176 485 123 c 1
 576 38 l 1
 540 -3 l 1
 451 79 l 1
 404 26 332 -10 235 -10 c 0
 123 -10 40 54 40 166 c 0
 40 255 90 323 151 352 c 1
 122 386 100 423 100 480 c 0
 100 580 174 634 277 634 c 0
 321 634 360 610 384 586 c 0
 395 575 403 563 408 548 c 1
 369 514 l 1
 349 558 320 579 268 579 c 0
 197 579 165 545 165 480 c 0
 165 437 186 408 208 383 c 0
 238 348 256 338 294 301 c 2
 445 159 l 1
 469 201 485 254 485 317 c 2
 485 357 l 1
 538 357 l 1
 538 315 l 2
97 170 m 0
 97 91 157 42 235 42 c 0
 314 42 371 73 412 114 c 1
 263 252 l 1
 190 314 l 1
 138 289 97 238 97 170 c 0
EndSplineSet
Validated: 1
EndChar

StartChar: quotesingle
Encoding: 39 39 8
Width: 193
VWidth: 1000
Flags: HMW
LayerCount: 2
Fore
SplineSet
107 492 m 1
 55 492 l 1
 45 684 l 1
 117 684 l 1
 107 492 l 1
EndSplineSet
Validated: 1
EndChar

StartChar: parenleft
Encoding: 40 40 9
Width: 370
VWidth: 1000
Flags: HMW
LayerCount: 2
Fore
SplineSet
283 750 m 1
 308 707 l 1
 185 633 86 484 86 294 c 0
 86 105 186 -44 308 -118 c 1
 283 -161 l 1
 135 -82 25 73 25 294 c 0
 25 516 135 671 283 750 c 1
EndSplineSet
Validated: 1
EndChar

StartChar: parenright
Encoding: 41 41 10
Width: 370
VWidth: 1000
Flags: HMW
LayerCount: 2
Fore
SplineSet
32 707 m 1
 57 750 l 1
 206 670 315 517 315 294 c 0
 315 71 205 -82 57 -161 c 1
 32 -118 l 1
 155 -44 254 104 254 294 c 0
 254 485 155 632 32 707 c 1
EndSplineSet
Validated: 1
EndChar

StartChar: asterisk
Encoding: 42 42 11
Width: 378
VWidth: 1000
Flags: HMW
LayerCount: 2
Fore
SplineSet
198 577 m 1
 305 619 l 1
 322 562 l 1
 218 533 l 1
 285 452 l 1
 236 418 l 1
 175 512 l 1
 113 416 l 1
 65 452 l 1
 133 534 l 1
 27 562 l 1
 46 619 l 1
 151 578 l 1
 145 694 l 1
 205 694 l 1
 198 577 l 1
EndSplineSet
Validated: 1
EndChar

StartChar: plus
Encoding: 43 43 12
Width: 432
VWidth: 1000
Flags: HMW
LayerCount: 2
Fore
SplineSet
229 319 m 1
 387 319 l 1
 387 268 l 1
 229 268 l 1
 229 107 l 1
 173 107 l 1
 173 268 l 1
 15 268 l 1
 15 319 l 1
 173 319 l 1
 173 479 l 1
 229 479 l 1
 229 319 l 1
EndSplineSet
Validated: 1
EndChar

StartChar: comma
Encoding: 44 44 13
Width: 192
VWidth: 1000
Flags: HMW
LayerCount: 2
Fore
SplineSet
24 -67 m 1
 45 -46 56 -29 56 10 c 0
 56 23 55 38 55 52 c 0
 55 71 71 85 88 85 c 0
 106 85 120 70 120 52 c 2
 120 32 l 2
 120 -37 102 -66 58 -100 c 1
 24 -67 l 1
EndSplineSet
Validated: 1
EndChar

StartChar: hyphen
Encoding: 45 45 14
Width: 436
VWidth: 1000
Flags: HMW
LayerCount: 2
Fore
SplineSet
351 277 m 1
 54 277 l 1
 54 334 l 1
 351 334 l 1
 351 277 l 1
EndSplineSet
Validated: 1
EndChar

StartChar: period
Encoding: 46 46 15
Width: 206
VWidth: 1000
Flags: HMW
LayerCount: 2
Fore
SplineSet
47 38 m 0
 47 61 67 81 89 81 c 0
 112 81 132 62 132 38 c 0
 132 15 113 -4 89 -4 c 0
 66 -4 47 16 47 38 c 0
EndSplineSet
Validated: 1
EndChar

StartChar: slash
Encoding: 47 47 16
Width: 342
VWidth: 1000
Flags: HMW
LayerCount: 2
Fore
SplineSet
79 -70 m 1
 15 -70 l 1
 234 750 l 1
 297 750 l 1
 79 -70 l 1
EndSplineSet
Validated: 1
EndChar

StartChar: zero
Encoding: 48 48 17
Width: 654
VWidth: 1000
Flags: HMW
LayerCount: 2
Fore
SplineSet
312 663 m 0
 494 663 583 507 583 326 c 0
 583 144 493 -10 312 -10 c 0
 133 -10 41 146 41 326 c 0
 41 507 131 663 312 663 c 0
313 608 m 0
 169 608 104 474 104 326 c 0
 104 178 168 45 313 45 c 0
 457 45 521 180 521 326 c 0
 521 474 457 608 313 608 c 0
EndSplineSet
Validated: 1
Substitution2: "'sups' Superscript lookup 6 subtable" zerosuperior
Substitution2: "'subs' Subscript lookup 5 subtable" zeroinferior
AlternateSubs2: "'aalt' Access All Alternates lookup 1 subtable" zeroinferior zerosuperior
EndChar

StartChar: one
Encoding: 49 49 18
Width: 363
VWidth: 1000
Flags: HMW
LayerCount: 2
Fore
SplineSet
278 0 m 1
 217 0 l 1
 217 573 l 1
 175 537 132 509 64 509 c 1
 51 561 l 1
 91 561 128 578 156 595 c 0
 173 604 192 616 212 630 c 2
 270 669 l 1
 278 669 l 1
 278 0 l 1
EndSplineSet
Validated: 1
Substitution2: "'sups' Superscript lookup 6 subtable" onesuperior
Substitution2: "'subs' Subscript lookup 5 subtable" oneinferior
AlternateSubs2: "'aalt' Access All Alternates lookup 1 subtable" oneinferior onesuperior
EndChar

StartChar: two
Encoding: 50 50 19
Width: 538
VWidth: 1000
Flags: HMW
LayerCount: 2
Fore
SplineSet
391 488 m 0
 391 566 335 618 258 618 c 0
 186 618 131 582 109 531 c 2
 95 499 l 1
 92 493 l 1
 45 517 l 1
 69 565 l 2
 97 626 164 665 255 665 c 0
 375 665 447 605 447 487 c 0
 447 407 413 365 368 320 c 0
 350 302 325 281 293 258 c 0
 246 223 220 203 214 198 c 0
 166 157 124 120 108 57 c 1
 480 57 l 1
 480 0 l 1
 44 0 l 1
 44 13 l 2
 44 52 52 87 69 118 c 0
 101 176 161 231 217 273 c 0
 259 304 287 325 302 338 c 0
 328 361 349 384 365 407 c 0
 382 432 391 459 391 488 c 0
EndSplineSet
Validated: 1
Substitution2: "'sups' Superscript lookup 6 subtable" twosuperior
Substitution2: "'subs' Subscript lookup 5 subtable" twoinferior
AlternateSubs2: "'aalt' Access All Alternates lookup 1 subtable" twoinferior twosuperior
EndChar

StartChar: three
Encoding: 51 51 20
Width: 559
VWidth: 1000
Flags: HMW
LayerCount: 2
Fore
SplineSet
389 512 m 0
 389 579 326 614 258 614 c 0
 213 614 166 597 117 564 c 1
 89 612 l 1
 142 644 185 672 262 672 c 0
 362 672 454 614 454 517 c 0
 454 445 402 392 350 372 c 1
 392 363 424 334 447 306 c 0
 471 276 490 228 490 175 c 0
 490 51 380 -12 253 -12 c 0
 166 -12 98 21 34 58 c 1
 59 107 l 1
 119 74 164 47 243 47 c 0
 341 47 426 87 426 180 c 0
 426 255 381 304 324 325 c 0
 305 332 284 336 263 336 c 2
 153 336 l 1
 153 392 l 1
 262 392 l 2
 317 392 358 428 377 464 c 0
 385 480 389 496 389 512 c 0
EndSplineSet
Validated: 1
Substitution2: "'sups' Superscript lookup 6 subtable" threesuperior
Substitution2: "'subs' Subscript lookup 5 subtable" threeinferior
AlternateSubs2: "'aalt' Access All Alternates lookup 1 subtable" threeinferior threesuperior
EndChar

StartChar: four
Encoding: 52 52 21
Width: 537
VWidth: 1000
Flags: HMWO
LayerCount: 2
Fore
SplineSet
91 183 m 1
 338 183 l 1
 338 405 l 1
 400 405 l 1
 400 183 l 1
 484 183 l 1
 484 126 l 1
 400 126 l 1
 400 -3 l 1
 338 -3 l 1
 338 126 l 1
 20 126 l 1
 20 176 l 1
 224 660 l 1
 291 660 l 1
 91 183 l 1
EndSplineSet
Validated: 1
Substitution2: "'sups' Superscript lookup 6 subtable" foursuperior
Substitution2: "'subs' Subscript lookup 5 subtable" fourinferior
AlternateSubs2: "'aalt' Access All Alternates lookup 1 subtable" fourinferior foursuperior
EndChar

StartChar: five
Encoding: 53 53 22
Width: 520
VWidth: 1000
Flags: HMW
LayerCount: 2
Fore
SplineSet
201 384 m 0
 120 384 68 364 68 364 c 1
 63 368 l 1
 63 646 l 1
 280 649 l 1
 397 653 l 1
 397 596 l 1
 281 592 l 1
 124 592 l 1
 124 432 l 1
 124 432 173 440 201 440 c 0
 351 440 459 372 459 226 c 0
 459 115 391 -6 227 -6 c 0
 166 -6 116 16 78 40 c 0
 61 51 50 59 43 66 c 1
 55 119 l 1
 84 98 112 81 137 69 c 0
 163 56 191 50 221 50 c 0
 290 50 319 64 355 102 c 0
 382 131 400 181 400 235 c 0
 400 346 316 384 201 384 c 0
EndSplineSet
Validated: 1
Substitution2: "'sups' Superscript lookup 6 subtable" fivesuperior
Substitution2: "'subs' Subscript lookup 5 subtable" fiveinferior
AlternateSubs2: "'aalt' Access All Alternates lookup 1 subtable" fiveinferior fivesuperior
EndChar

StartChar: six
Encoding: 54 54 23
Width: 571
VWidth: 1000
Flags: HMW
LayerCount: 2
Fore
SplineSet
99 331 m 1
 138 378 199 419 277 419 c 0
 409 419 507 320 507 189 c 0
 507 60 408 -37 278 -37 c 0
 123 -37 35 86 35 242 c 0
 35 355 88 462 147 524 c 0
 211 594 305 649 430 649 c 1
 430 596 l 1
 355 596 289 575 233 533 c 0
 176 490 131 423 99 331 c 1
278 366 m 0
 177 366 99 288 99 185 c 0
 99 85 181 16 278 16 c 0
 379 16 454 90 454 191 c 0
 454 291 378 366 278 366 c 0
EndSplineSet
Validated: 1
Substitution2: "'sups' Superscript lookup 6 subtable" sixsuperior
Substitution2: "'subs' Subscript lookup 5 subtable" sixinferior
AlternateSubs2: "'aalt' Access All Alternates lookup 1 subtable" sixinferior sixsuperior
EndChar

StartChar: seven
Encoding: 55 55 24
Width: 487
VWidth: 1000
Flags: HMW
LayerCount: 2
Fore
SplineSet
437 645 m 1
 183 0 l 1
 119 0 l 1
 358 596 l 1
 248 592 l 1
 20 592 l 1
 20 650 l 1
 222 650 l 1
 437 653 l 1
 437 645 l 1
EndSplineSet
Validated: 1
Substitution2: "'sups' Superscript lookup 6 subtable" sevensuperior
Substitution2: "'subs' Subscript lookup 5 subtable" seveninferior
AlternateSubs2: "'aalt' Access All Alternates lookup 1 subtable" seveninferior sevensuperior
EndChar

StartChar: eight
Encoding: 56 56 25
Width: 556
VWidth: 1000
Flags: HMW
LayerCount: 2
Fore
SplineSet
157 372 m 1
 114 395 76 437 76 500 c 0
 76 605 162 666 261 666 c 0
 384 666 450 582 450 503 c 0
 450 435 401 389 358 361 c 1
 422 332 487 282 487 180 c 0
 487 78 417 -16 264 -16 c 0
 133 -16 40 52 40 182 c 0
 40 277 101 329 157 372 c 1
263 611 m 0
 192 611 138 569 138 500 c 0
 138 414 235 406 303 382 c 1
 339 409 388 442 388 499 c 0
 388 569 335 611 263 611 c 0
263 38 m 0
 363 38 425 90 425 184 c 0
 425 289 324 319 235 342 c 2
 213 348 l 1
 168 310 102 261 102 182 c 0
 102 90 168 38 263 38 c 0
EndSplineSet
Validated: 1
Substitution2: "'sups' Superscript lookup 6 subtable" eightsuperior
Substitution2: "'subs' Subscript lookup 5 subtable" eightinferior
AlternateSubs2: "'aalt' Access All Alternates lookup 1 subtable" eightinferior eightsuperior
EndChar

StartChar: nine
Encoding: 57 57 26
Width: 570
VWidth: 1000
Flags: HMW
LayerCount: 2
Fore
SplineSet
112 -37 m 1
 112 16 l 1
 247 16 333 87 390 171 c 0
 412 204 431 242 446 287 c 1
 407 243 341 193 261 193 c 0
 134 193 34 292 34 421 c 0
 34 551 132 649 262 649 c 0
 414 649 505 530 505 377 c 0
 505 249 460 161 395 89 c 0
 331 18 240 -37 115 -37 c 2
 112 -37 l 1
262 596 m 0
 163 596 87 521 87 421 c 0
 87 320 163 246 263 246 c 0
 366 246 442 325 442 427 c 0
 442 527 359 596 262 596 c 0
EndSplineSet
Validated: 1
Substitution2: "'sups' Superscript lookup 6 subtable" ninesuperior
Substitution2: "'subs' Subscript lookup 5 subtable" nineinferior
AlternateSubs2: "'aalt' Access All Alternates lookup 1 subtable" nineinferior ninesuperior
EndChar

StartChar: colon
Encoding: 58 58 27
Width: 215
VWidth: 1000
Flags: HMW
LayerCount: 2
Fore
SplineSet
47 432 m 0
 47 455 66 475 89 475 c 0
 113 475 132 456 132 432 c 0
 132 409 112 390 89 390 c 0
 67 390 47 410 47 432 c 0
47 38 m 0
 47 61 66 81 89 81 c 0
 113 81 132 62 132 38 c 0
 132 15 112 -4 89 -4 c 0
 67 -4 47 16 47 38 c 0
EndSplineSet
Validated: 1
EndChar

StartChar: semicolon
Encoding: 59 59 28
Width: 199
VWidth: 1000
Flags: HMW
LayerCount: 2
Fore
SplineSet
47 432 m 0
 47 455 67 475 89 475 c 0
 112 475 132 456 132 432 c 0
 132 409 113 390 89 390 c 0
 66 390 47 410 47 432 c 0
24 -67 m 1
 45 -46 56 -29 56 10 c 0
 56 23 55 38 55 52 c 0
 57 71 69 85 88 85 c 0
 106 85 120 70 120 52 c 2
 120 32 l 2
 120 -37 102 -66 58 -100 c 1
 24 -67 l 1
EndSplineSet
Validated: 1
EndChar

StartChar: less
Encoding: 60 60 29
Width: 389
VWidth: 1000
Flags: HMW
LayerCount: 2
Fore
SplineSet
310 403 m 1
 114 267 l 1
 312 129 l 1
 278 80 l 1
 12 265 l 1
 278 450 l 1
 310 403 l 1
EndSplineSet
Validated: 1
EndChar

StartChar: equal
Encoding: 61 61 30
Width: 459
VWidth: 1000
Flags: HMW
LayerCount: 2
Fore
SplineSet
406 347 m 1
 54 347 l 1
 54 399 l 1
 406 399 l 1
 406 347 l 1
406 187 m 1
 54 187 l 1
 54 239 l 1
 406 239 l 1
 406 187 l 1
EndSplineSet
Validated: 1
EndChar

StartChar: greater
Encoding: 62 62 31
Width: 389
VWidth: 1000
Flags: HMW
LayerCount: 2
Fore
SplineSet
347 265 m 1
 81 80 l 1
 49 127 l 1
 245 263 l 1
 47 401 l 1
 81 450 l 1
 347 265 l 1
EndSplineSet
Validated: 1
EndChar

StartChar: question
Encoding: 63 63 32
Width: 463
VWidth: 1000
Flags: HMW
LayerCount: 2
Fore
SplineSet
81 576 m 0
 81 561 94 547 113 547 c 0
 115 547 116 547 117 548 c 2
 131 496 l 1
 125 495 120 494 113 494 c 0
 65 494 28 527 28 576 c 0
 28 660 123 703 210 703 c 0
 328 703 412 620 412 502 c 0
 412 405 358 354 293 317 c 0
 255 294 217 276 191 244 c 0
 179 229 173 212 173 193 c 0
 173 181 175 167 178 150 c 1
 126 139 l 1
 122 157 120 175 120 192 c 0
 120 364 359 329 359 503 c 0
 359 589 296 650 211 650 c 0
 157 650 81 629 81 576 c 0
120 52 m 0
 120 78 142 100 168 100 c 0
 194 100 215 78 215 52 c 0
 215 26 194 5 168 5 c 0
 142 5 120 26 120 52 c 0
EndSplineSet
Validated: 1
EndChar

StartChar: at
Encoding: 64 64 33
Width: 703
VWidth: 1000
Flags: HMW
LayerCount: 2
Fore
SplineSet
339 -12 m 0
 414 -12 487 1 534 25 c 1
 548 -20 l 1
 510 -32 l 2
 460 -48 400 -60 339 -60 c 0
 158 -60 41 51 41 232 c 0
 41 420 151 548 339 548 c 0
 518 548 635 435 635 255 c 0
 635 162 587 87 498 87 c 0
 448 87 416 107 402 147 c 1
 377 116 346 101 309 101 c 0
 227 101 185 176 185 260 c 0
 185 340 244 406 323 406 c 0
 339 406 376 401 389 401 c 2
 433 401 l 1
 433 194 l 1
 439 156 460 132 498 132 c 0
 557 132 582 196 582 257 c 0
 582 406 488 501 339 501 c 0
 184 501 95 390 95 235 c 0
 95 84 189 -12 339 -12 c 0
309 151 m 0
 352 151 372 184 383 216 c 1
 383 351 l 1
 354 354 l 2
 339 355 330 356 326 356 c 0
 274 356 235 313 235 260 c 0
 235 205 253 151 309 151 c 0
EndSplineSet
Validated: 1
EndChar

StartChar: bracketleft
Encoding: 91 91 34
Width: 335
VWidth: 1000
Flags: HMW
LayerCount: 2
Fore
SplineSet
292 693 m 1
 115 693 l 1
 115 -117 l 1
 292 -117 l 1
 292 -174 l 1
 54 -174 l 1
 54 750 l 1
 292 750 l 1
 292 693 l 1
EndSplineSet
Validated: 1
EndChar

StartChar: backslash
Encoding: 92 92 35
Width: 342
VWidth: 1000
Flags: HMW
LayerCount: 2
Fore
SplineSet
297 -70 m 1
 233 -70 l 1
 15 750 l 1
 78 750 l 1
 297 -70 l 1
EndSplineSet
Validated: 1
EndChar

StartChar: bracketright
Encoding: 93 93 36
Width: 336
VWidth: 1000
Flags: HMW
LayerCount: 2
Fore
SplineSet
251 -174 m 1
 13 -174 l 1
 13 -117 l 1
 190 -117 l 1
 190 693 l 1
 13 693 l 1
 13 750 l 1
 251 750 l 1
 251 -174 l 1
EndSplineSet
Validated: 1
EndChar

StartChar: asciicircum
Encoding: 94 94 37
Width: 454
VWidth: 1000
Flags: HMW
LayerCount: 2
Fore
SplineSet
397 363 m 1
 347 328 l 1
 210 524 l 1
 75 330 l 1
 27 363 l 1
 202 615 l 1
 222 615 l 1
 397 363 l 1
EndSplineSet
Validated: 1
EndChar

StartChar: underscore
Encoding: 95 95 38
Width: 579
VWidth: 1000
Flags: HMW
LayerCount: 2
Fore
SplineSet
494 -133 m 1
 54 -133 l 1
 54 -78 l 1
 494 -78 l 1
 494 -133 l 1
EndSplineSet
Validated: 1
EndChar

StartChar: grave
Encoding: 96 96 39
Width: 260
VWidth: 1000
GlyphClass: 4
Flags: HMW
AnchorPoint: "Anchor-3" 178 500 mark 0
AnchorPoint: "Anchor-0" 178 500 mark 0
LayerCount: 2
Fore
SplineSet
211 601 m 1
 189 567 l 1
 17 677 l 1
 53 726 l 1
 211 601 l 1
EndSplineSet
Validated: 1
EndChar

StartChar: braceleft
Encoding: 123 123 40
Width: 323
VWidth: 1000
Flags: HMW
LayerCount: 2
Fore
SplineSet
104 200 m 0
 104 243 59 257 21 261 c 1
 21 316 l 1
 59 319 79 328 96 350 c 0
 101 357 104 366 104 377 c 0
 104 388 103 402 101 420 c 2
 94 478 l 2
 90 504 84 570 84 605 c 0
 84 715 171 725 256 750 c 1
 270 704 l 1
 232 695 203 688 177 671 c 0
 157 658 145 639 145 607 c 0
 145 594 146 579 148 560 c 2
 155 499 l 2
 158 477 165 409 165 377 c 0
 165 346 155 328 140 313 c 0
 132 305 125 300 118 297 c 2
 99 288 l 2
 101 287 107 285 117 281 c 0
 142 265 165 240 165 200 c 0
 165 169 158 100 155 78 c 2
 148 17 l 2
 146 -2 145 -18 145 -30 c 0
 145 -81 177 -99 217 -112 c 0
 231 -117 249 -122 270 -127 c 1
 256 -173 l 1
 171 -148 84 -138 84 -28 c 0
 84 8 90 70 94 98 c 2
 101 157 l 2
 103 175 104 189 104 200 c 0
EndSplineSet
Validated: 1
EndChar

StartChar: bar
Encoding: 124 124 41
Width: 204
VWidth: 1000
Flags: HMW
LayerCount: 2
Fore
SplineSet
115 -70 m 1
 54 -70 l 1
 54 750 l 1
 115 750 l 1
 115 -70 l 1
EndSplineSet
Validated: 1
EndChar

StartChar: braceright
Encoding: 125 125 42
Width: 322
VWidth: 1000
Flags: HMW
LayerCount: 2
Fore
SplineSet
148 607 m 0
 148 678 82 689 23 704 c 1
 37 750 l 1
 122 725 209 715 209 605 c 0
 209 570 203 504 199 478 c 2
 192 420 l 2
 190 402 189 388 189 377 c 0
 189 334 230 320 272 316 c 1
 272 261 l 1
 233 257 189 241 189 200 c 0
 189 189 190 175 192 157 c 2
 199 98 l 2
 203 70 209 8 209 -28 c 0
 209 -138 122 -148 37 -173 c 1
 23 -127 l 1
 61 -118 90 -111 116 -94 c 0
 136 -81 148 -62 148 -30 c 0
 148 -18 147 -2 145 17 c 2
 138 78 l 2
 135 100 128 169 128 200 c 0
 128 244 159 281 194 288 c 1
 192 289 186 291 176 295 c 0
 163 302 142 324 136 338 c 0
 131 350 128 363 128 377 c 0
 128 409 135 477 138 499 c 2
 145 560 l 2
 147 579 148 594 148 607 c 0
EndSplineSet
Validated: 1
EndChar

StartChar: asciitilde
Encoding: 126 126 43
Width: 529
VWidth: 1000
Flags: HMW
LayerCount: 2
Fore
SplineSet
155 337 m 2
 167 337 l 2
 195 337 225 331 256 318 c 0
 281 308 303 303 324 303 c 0
 351 303 378 314 405 335 c 1
 439 294 l 1
 407 268 373 253 338 250 c 2
 324 250 l 2
 296 250 267 256 237 269 c 0
 211 279 188 284 169 284 c 0
 142 284 115 273 88 252 c 1
 54 293 l 1
 86 319 120 334 155 337 c 2
EndSplineSet
Validated: 1
EndChar

StartChar: cent
Encoding: 162 162 44
Width: 506
VWidth: 1000
GlyphClass: 2
Flags: HMW
LayerCount: 2
Fore
SplineSet
271 683 m 1
 271 580 l 1
 293 577 313 571 331 564 c 0
 350 556 367 546 380 533 c 0
 393 520 404 505 412 488 c 0
 420 471 424 451 424 430 c 1
 409 430 l 1
 381 431 l 2
 372 431 367 431 367 430 c 1
 367 458 358 481 341 498 c 0
 323 515 300 526 271 531 c 1
 271 116 l 1
 294 118 318 124 342 133 c 0
 369 144 391 154 410 164 c 1
 436 122 l 1
 415 107 391 94 362 83 c 0
 335 72 304 66 271 64 c 1
 271 -1 l 1
 210 -1 l 1
 210 66 l 1
 148 75 102 101 72 144 c 0
 41 187 26 246 26 321 c 0
 26 354 30 384 39 412 c 0
 48 442 61 468 76 490 c 0
 93 514 112 534 134 549 c 0
 157 564 183 574 210 579 c 1
 210 683 l 1
 271 683 l 1
210 120 m 1
 210 529 l 1
 188 524 169 514 154 499 c 0
 139 485 126 467 114 446 c 0
 103 425 95 402 90 379 c 0
 85 352 82 328 82 306 c 0
 82 252 94 210 118 179 c 0
 140 149 171 129 210 120 c 1
EndSplineSet
Validated: 1
EndChar

StartChar: multiply
Encoding: 215 215 45
Width: 515
VWidth: 1000
Flags: HMW
LayerCount: 2
Fore
SplineSet
427 410 m 1
 285 268 l 1
 434 119 l 1
 391 76 l 1
 242 225 l 1
 93 75 l 1
 52 116 l 1
 201 265 l 1
 59 408 l 1
 102 451 l 1
 244 308 l 1
 386 451 l 1
 427 410 l 1
EndSplineSet
Validated: 1
EndChar

StartChar: divide
Encoding: 247 247 46
Width: 490
VWidth: 1000
Flags: HMW
LayerCount: 2
Fore
SplineSet
229 489 m 0
 243 489 254 485 263 476 c 0
 272 467 276 456 276 442 c 0
 276 429 272 419 263 410 c 0
 254 401 242 396 229 396 c 0
 217 396 206 401 197 410 c 0
 188 419 183 430 183 442 c 0
 183 455 188 467 197 476 c 0
 206 485 216 489 229 489 c 0
416 268 m 1
 44 268 l 1
 44 319 l 1
 416 319 l 1
 416 268 l 1
229 190 m 0
 243 190 254 186 263 177 c 0
 272 168 276 157 276 143 c 0
 276 130 272 120 263 111 c 0
 254 102 242 97 229 97 c 0
 217 97 206 102 197 111 c 0
 188 120 183 131 183 143 c 0
 183 156 188 168 197 177 c 0
 206 186 216 190 229 190 c 0
EndSplineSet
Validated: 1
EndChar

StartChar: uni02BC
Encoding: 257 700 47
Width: 210
VWidth: 1000
Flags: HMW
LayerCount: 2
Fore
SplineSet
76 602 m 2
 76 662 l 2
 76 671 79 679 85 686 c 0
 91 692 99 695 108 695 c 0
 117 695 125 692 131 686 c 0
 137 679 140 671 140 662 c 2
 140 602 l 2
 140 573 135 545 124 519 c 0
 113 491 95 468 70 450 c 1
 36 483 l 1
 63 510 76 549 76 602 c 2
EndSplineSet
Validated: 1
EndChar

StartChar: candrabinduinverteddeva
Encoding: 258 2304 48
Width: 0
VWidth: 1000
GlyphClass: 4
Flags: HMW
AnchorPoint: "DVAnchor3" -201 579 mark 0
LayerCount: 2
Fore
SplineSet
-202 637 m 1
 -257 692 l 1
 -202 746 l 1
 -148 692 l 1
 -202 637 l 1
-96 684 m 1
 -96 736 -146 773 -202 773 c 0
 -258 773 -309 736 -309 684 c 1
 -364 684 l 1
 -364 768 -282 823 -202 823 c 0
 -122 823 -41 768 -41 684 c 1
 -96 684 l 1
EndSplineSet
Validated: 1
EndChar

StartChar: candrabindudeva
Encoding: 259 2305 49
Width: 0
VWidth: 1000
GlyphClass: 4
Flags: HMW
AnchorPoint: "DVAnchor3" -200 579 mark 0
LayerCount: 2
Fore
SplineSet
-94 773 m 1
 -39 773 l 1
 -39 689 -120 634 -200 634 c 0
 -281 634 -362 689 -362 773 c 1
 -307 773 l 1
 -307 721 -256 684 -200 684 c 0
 -145 684 -94 721 -94 773 c 1
-200 714 m 1
 -255 769 l 1
 -200 823 l 1
 -146 769 l 1
 -200 714 l 1
EndSplineSet
Validated: 1
EndChar

StartChar: anusvaradeva
Encoding: 260 2306 50
Width: 0
VWidth: 1000
GlyphClass: 4
Flags: HMW
AnchorPoint: "DVAnchor3" -180 579 mark 0
LayerCount: 2
Fore
SplineSet
-180 711 m 1
 -234 766 l 1
 -180 820 l 1
 -126 766 l 1
 -180 711 l 1
EndSplineSet
Validated: 1
EndChar

StartChar: visargadeva
Encoding: 261 2307 51
Width: 198
VWidth: 1000
GlyphClass: 2
Flags: HMW
LayerCount: 2
Fore
SplineSet
99 356 m 1
 45 411 l 1
 99 465 l 1
 153 411 l 1
 99 356 l 1
99 115 m 1
 45 170 l 1
 99 224 l 1
 153 170 l 1
 99 115 l 1
EndSplineSet
Validated: 1
EndChar

StartChar: ashortdeva
Encoding: 262 2308 52
Width: 811
VWidth: 1000
GlyphClass: 2
Flags: HMW
AnchorPoint: "DVAnchor3" 731 648 basechar 0
LayerCount: 2
Fore
SplineSet
469 228 m 0
 469 136 388 74 296 74 c 0
 173 74 71 168 30 265 c 1
 80 287 l 1
 114 209 196 129 296 129 c 0
 357 129 414 167 414 228 c 0
 414 326 328 332 241 332 c 2
 231 332 l 1
 231 386 l 1
 241 386 l 2
 327 386 357 432 357 472 c 0
 357 520 312 554 262 554 c 0
 211 554 170 524 148 491 c 1
 102 521 l 1
 133 567 191 609 262 609 c 0
 341 609 412 551 412 472 c 0
 412 435 394 399 371 376 c 1
 387 369 405 356 418 343 c 0
 442 320 475 306 507 306 c 0
 559 306 596 337 616 363 c 1
 616 524 l 1
 502 524 l 1
 502 579 l 1
 616 579 l 1
 616 636 601 648 542 648 c 2
 434 648 l 2
 351 648 305 692 305 773 c 1
 360 773 l 1
 360 716 376 704 434 704 c 2
 542 704 l 2
 625 704 671 660 671 579 c 1
 831 579 l 1
 831 524 l 1
 671 524 l 1
 671 82 l 2
 671 63 686 48 705 48 c 0
 718 48 728 53 734 63 c 1
 780 32 l 1
 762 6 737 -7 705 -7 c 0
 654 -7 616 34 616 82 c 2
 616 291 l 1
 585 269 546 256 507 256 c 0
 493 256 479 258 466 261 c 1
 468 252 469 242 469 228 c 0
EndSplineSet
Validated: 1
EndChar

StartChar: adeva
Encoding: 263 2309 53
Width: 811
VWidth: 1000
GlyphClass: 2
Flags: HMW
AnchorPoint: "DVAnchor3" 641 575 basechar 0
LayerCount: 2
Fore
SplineSet
469 228 m 0
 469 136 388 74 296 74 c 0
 173 74 71 168 30 265 c 1
 80 287 l 1
 114 209 196 129 296 129 c 0
 357 129 414 167 414 228 c 0
 414 326 328 332 241 332 c 2
 231 332 l 1
 231 386 l 1
 241 386 l 2
 327 386 357 432 357 472 c 0
 357 520 312 554 262 554 c 0
 211 554 170 524 148 491 c 1
 102 521 l 1
 133 567 191 609 262 609 c 0
 341 609 412 551 412 472 c 0
 412 435 394 399 371 376 c 1
 387 369 405 356 418 343 c 0
 442 320 475 306 507 306 c 0
 559 306 596 337 616 363 c 1
 616 524 l 1
 502 524 l 1
 502 579 l 1
 831 579 l 1
 831 524 l 1
 671 524 l 1
 671 82 l 2
 671 63 686 48 705 48 c 0
 718 48 728 53 734 63 c 1
 780 32 l 1
 762 6 737 -7 705 -7 c 0
 654 -7 616 34 616 82 c 2
 616 291 l 1
 585 269 546 256 507 256 c 0
 493 256 479 258 466 261 c 1
 468 252 469 242 469 228 c 0
EndSplineSet
Validated: 1
EndChar

StartChar: aadeva
Encoding: 264 2310 54
Width: 1043
VWidth: 1000
GlyphClass: 2
Flags: HMW
LayerCount: 2
Fore
SplineSet
937 -7 m 0
 888 -7 848 33 848 82 c 2
 848 524 l 1
 831 524 l 1
 744 524 l 1
 671 524 l 1
 671 82 l 2
 671 63 686 48 705 48 c 0
 718 48 728 53 734 63 c 1
 780 32 l 1
 762 6 737 -7 705 -7 c 0
 654 -7 616 34 616 82 c 2
 616 291 l 1
 585 269 546 256 507 256 c 0
 493 256 479 258 466 261 c 1
 468 252 469 242 469 228 c 0
 469 136 388 74 296 74 c 0
 173 74 71 168 30 265 c 1
 80 287 l 1
 114 209 196 129 296 129 c 0
 357 129 414 167 414 228 c 0
 414 326 328 332 241 332 c 2
 231 332 l 1
 231 386 l 1
 241 386 l 2
 327 386 357 432 357 472 c 0
 357 520 312 554 262 554 c 0
 211 554 170 524 148 491 c 1
 102 521 l 1
 133 567 191 609 262 609 c 0
 341 609 412 551 412 472 c 0
 412 435 394 399 371 376 c 1
 387 369 405 356 418 343 c 0
 442 320 475 306 507 306 c 0
 559 306 596 337 616 363 c 1
 616 524 l 1
 502 524 l 1
 502 579 l 1
 744 579 l 1
 831 579 l 1
 1063 579 l 1
 1063 524 l 1
 903 524 l 1
 903 82 l 2
 903 63 918 48 937 48 c 0
 950 48 960 53 966 63 c 1
 1012 32 l 1
 994 6 969 -7 937 -7 c 0
EndSplineSet
Validated: 1
EndChar

StartChar: ideva
Encoding: 265 2311 55
Width: 536
VWidth: 1000
GlyphClass: 2
Flags: HMW
LayerCount: 2
Fore
SplineSet
165 149 m 0
 146 149 131 135 131 116 c 0
 131 75 180 58 215 50 c 1
 217 59 218 68 218 77 c 0
 218 113 199 149 165 149 c 0
-15 579 m 1
 551 579 l 1
 551 524 l 1
 438 524 l 1
 438 451 l 1
 438 401 l 1
 383 401 l 1
 242 401 l 2
 184 401 165 390 165 355 c 0
 165 332 194 306 219 284 c 1
 317 284 l 2
 421 284 500 234 500 140 c 0
 500 34 401 -15 298 -15 c 0
 283 -15 266 -14 251 -12 c 1
 226 -64 184 -106 135 -133 c 1
 108 -85 l 1
 143 -65 174 -37 195 -2 c 1
 140 13 76 46 76 116 c 0
 76 165 116 204 165 204 c 0
 232 204 273 144 273 77 c 0
 273 65 271 53 269 41 c 1
 278 40 289 40 298 40 c 0
 367 40 426.97265625 65 441.97265625 119 c 0
 443.97265625 126 445 133 445 140 c 0
 445 192 406 219 360 226 c 0
 345 228 329 229 311 229 c 2
 203 229 l 1
 172 255 109 289 109 357 c 0
 109 440 186 451 242 451 c 2
 383 451 l 1
 383 524 l 1
 -15 524 l 1
 -15 579 l 1
EndSplineSet
Validated: 524289
EndChar

StartChar: iideva
Encoding: 266 2312 56
Width: 536
VWidth: 1000
GlyphClass: 2
Flags: HMW
AnchorPoint: "DVAnchor3" 410 582 basechar 0
LayerCount: 2
Fore
SplineSet
165 149 m 0
 146 149 131 135 131 116 c 0
 131 75 180 58 215 50 c 1
 217 59 218 68 218 77 c 0
 218 113 199 149 165 149 c 0
510 740 m 1
 469.998046875 702 l 1
 456.998046875 716 440 725 420 725 c 0
 387 725 366 703 366 672 c 0
 366 637 394 602 428 579 c 1
 551 579 l 1
 551 524 l 1
 438 524 l 1
 438 401 l 1
 242 401 l 2
 184 401 165 390 165 355 c 0
 165 332 194 306 219 284 c 1
 313 284 l 2
 423 284 500 234 500 140 c 0
 500 34 401 -15 298 -15 c 0
 283 -15 266 -14 251 -12 c 1
 226 -64 184 -106 135 -133 c 1
 108 -85 l 1
 143 -65 174 -37 195 -2 c 1
 140 13 76 46 76 116 c 0
 76 165 116 204 165 204 c 0
 232 204 273 144 273 77 c 0
 273 65 271 53 269 41 c 1
 278 40 289 40 298 40 c 0
 367 40 426.97265625 65 441.97265625 119 c 0
 443.97265625 126 445 133 445 140 c 0
 445 192 406 219 360 226 c 0
 345 228 329 229 311 229 c 2
 203 229 l 1
 172 255 109 289 109 357 c 0
 109 440 186 451 242 451 c 2
 384 451 l 1
 384 524 l 1
 -15 524 l 1
 -15 579 l 1
 348 579 l 1
 327 604 311 635 311 672 c 0
 311 733 359 780 420 780 c 0
 456 780 487 764 510 740 c 1
EndSplineSet
Validated: 524289
EndChar

StartChar: udeva
Encoding: 267 2313 57
Width: 496
VWidth: 1000
GlyphClass: 2
Flags: HMW
AnchorPoint: "DVAnchor3" 312 579 basechar 0
LayerCount: 2
Fore
SplineSet
-15 524 m 1
 -15 579 l 1
 516 579 l 1
 516 524 l 1
 359 524 l 1
 373 502 382 476 382 447 c 0
 382 405 364 368 335 342 c 1
 407 314 458 249 458 167 c 0
 458 73 383 -2 288 -2 c 0
 143 -2 66 134 35 228 c 1
 87 242 l 1
 117 150 186 48 288 48 c 0
 349 48 403 97 403 167 c 0
 403 250 337 307 255 307 c 2
 208 307 l 1
 208 357 l 1
 253 357 l 1
 292 364 327 398 327 447 c 0
 327 482 309 509 287 524 c 1
 -15 524 l 1
EndSplineSet
Validated: 1
EndChar

StartChar: uudeva
Encoding: 268 2314 58
Width: 729
VWidth: 1000
GlyphClass: 2
Flags: HMW
AnchorPoint: "DVAnchor3" 320 577 basechar 0
LayerCount: 2
Fore
SplineSet
208 307 m 1
 208 357 l 1
 253 357 l 1
 292 364 327 398 327 447 c 0
 327 482 309 509 287 524 c 1
 -15 524 l 1
 -15 579 l 1
 749 579 l 1
 749 524 l 1
 359 524 l 1
 373 502 382 476 382 447 c 0
 382 405 364 368 335 342 c 1
 377 326 412 297 434 260 c 1
 458 294 496 322 550 322 c 0
 639 322 699 246 699 167 c 0
 699 79 630 8 547 -3 c 2
 539 -4 l 1
 539 46.9775390625 l 1
 593 53.9775390625 644 103 644 167 c 0
 644 226 600 272 550 272 c 0
 507 272 476 240 463 199 c 0
 460 189 459 178 458 167 c 0
 458 73 383 -2 288 -2 c 0
 143 -2 66 134 35 228 c 1
 87 242 l 1
 117 150 186 48 288 48 c 0
 349 48 403 97 403 167 c 0
 403 250 337 307 255 307 c 2
 208 307 l 1
EndSplineSet
Validated: 524289
EndChar

StartChar: rvocalicdeva
Encoding: 269 2315 59
Width: 730
VWidth: 1000
GlyphClass: 2
Flags: HMW
AnchorPoint: "DVAnchor3" 352 579 basechar 0
AnchorPoint: "DVAnchor0" 410 -6 basechar 0
LayerCount: 2
Fore
SplineSet
511 325 m 1
 547 337 587 351 587 395 c 0
 587 419 569 437 546 437 c 0
 516 437 493 406 493 375 c 0
 493 357 497 340 511 325 c 1
545 277 m 1
 594 233 675 201 675 111 c 0
 675 48 625 -3 564 -7 c 1
 560 48 l 1
 592 50 620 77 620 111 c 0
 620 153 587 176 560 195 c 0
 535 213 507 233 485 259 c 1
 378 225 l 1
 378 82 l 2
 378 63 393 48 412 48 c 0
 425 48 435 53 441 63 c 1
 487 32 l 1
 469 6 444 -7 412 -7 c 0
 363 -7 323 33 323 82 c 2
 323 209 l 1
 108 148 l 1
 93 201 l 1
 274 252 l 1
 264 273 218 356 154 377 c 0
 129 385 97 386 65 386 c 1
 65 441 l 1
 101 441 137 439 170 429 c 0
 264 401 313 295 323 271 c 1
 323 524 l 1
 -15 524 l 1
 -15 579 l 1
 745 579 l 1
 745 524 l 1
 378 524 l 1
 378 283 l 1
 456 307 l 1
 443 327 438 351 438 375 c 0
 438 436 484 492 546 492 c 0
 600 492 642 449 642 395 c 0
 642 334 598 293 545 277 c 1
EndSplineSet
Validated: 1
EndChar

StartChar: lvocalicdeva
Encoding: 270 2316 60
Width: 708
VWidth: 1000
GlyphClass: 2
Flags: HMW
LayerCount: 2
Fore
SplineSet
-15 579 m 1
 723 579 l 1
 723 524 l 1
 460 524 l 1
 460 423 l 1
 494 418 526 404 552 380 c 0
 584 350 602 307 602 263 c 0
 602 137 483 97 430 25 c 0
 416 6 407 -13 407 -39 c 0
 407 -99 461 -136 517 -136 c 0
 566 -136 611 -106 611 -57 c 0
 611 -50 611 -44 609 -38 c 1
 661 -22 l 1
 664 -33 666 -45 666 -57 c 0
 666 -139 596 -191 517 -191 c 0
 433 -191 352 -131 352 -39 c 0
 352 33 399 78 439 112 c 0
 484 150 547 190 547 263 c 0
 547 324 495 370 434 370 c 0
 366 370 312 318 312 249 c 1
 257 249 l 1
 257 285 267 318 284 345 c 1
 267 363 244 375 213 375 c 0
 140 375 95 312 95 239 c 0
 95 203 106 167 124 134 c 0
 153 81 198 37 251 7 c 1
 224 -41 l 1
 162 -6 109 45 75 108 c 0
 54 147 40 193 40 239 c 0
 40 321 81 382 138 411 c 0
 161 423 186 430 212 430 c 0
 258 430 294 412 321 386 c 1
 344 405 374 418 405 423 c 1
 405 524 l 1
 -15 524 l 1
 -15 579 l 1
EndSplineSet
Validated: 1
EndChar

StartChar: ecandradeva
Encoding: 271 2317 61
Width: 537
VWidth: 1000
GlyphClass: 2
Flags: HMW
LayerCount: 2
Fore
SplineSet
-20 579 m 1
 557 579 l 1
 557 524 l 1
 458 524 l 1
 458 322 l 2
 458 272 418 232 368 232 c 1
 368 287 l 1
 385 287 403 305 403 322 c 2
 403 524 l 1
 158 524 l 1
 158 330 l 2
 158 244 193 220 242 176 c 2
 395 38 l 2
 412 22 421 2 421 -25 c 0
 421 -76 379 -114 330 -114 c 1
 330 -59 l 1
 351 -59 364 -45 365 -25 c 0
 365 -14 362 -6 356 0 c 2
 205 136 l 2
 145 190 103 223 103 330 c 2
 103 524 l 1
 -20 524 l 1
 -20 579 l 1
378 773 m 1
 433 773 l 1
 433 689 352 634 272 634 c 0
 191 634 110 689 110 773 c 1
 165 773 l 1
 165 721 216 684 272 684 c 0
 327 684 378 721 378 773 c 1
EndSplineSet
Validated: 1
EndChar

StartChar: eshortdeva
Encoding: 272 2318 62
Width: 537
VWidth: 1000
GlyphClass: 2
Flags: HMW
LayerCount: 2
Fore
SplineSet
147 773 m 1
 147 746 152 727 162 718 c 0
 172 709 191 704 221 704 c 2
 329 704 l 2
 372 704 404 693 426 671 c 0
 448 649 458 618 458 579 c 1
 557 579 l 1
 557 524 l 1
 458 524 l 1
 458 322 l 2
 458 272 418 232 368 232 c 1
 368 287 l 1
 385 287 403 305 403 322 c 2
 403 524 l 1
 158 524 l 1
 158 330 l 2
 158 244 193 220 242 176 c 2
 395 38 l 2
 412 22 421 2 421 -25 c 0
 421 -76 379 -114 330 -114 c 1
 330 -59 l 1
 351 -59 364 -45 365 -25 c 0
 365 -14 362 -6 356 0 c 2
 205 136 l 2
 145 190 103 223 103 330 c 2
 103 524 l 1
 -20 524 l 1
 -20 579 l 1
 403 579 l 1
 403 606 398 625 389 634 c 0
 380 643 360 648 329 648 c 2
 221 648 l 2
 178 648 146 659 124 681 c 0
 102 703 92 734 92 773 c 1
 147 773 l 1
EndSplineSet
Validated: 1
EndChar

StartChar: edeva
Encoding: 273 2319 63
Width: 475
VWidth: 1000
GlyphClass: 2
Flags: HMW
AnchorPoint: "DVAnchor3" 234 579 basechar 0
LayerCount: 2
Fore
SplineSet
-20 579 m 1
 495 579 l 1
 495 524 l 1
 414 524 l 1
 414 322 l 2
 414 272 374 232 324 232 c 1
 324 287 l 1
 341 287 359 305 359 322 c 2
 359 524 l 1
 114 524 l 1
 114 330 l 2
 114 244 149 220 198 176 c 2
 351 38 l 2
 368 22 377 2 377 -25 c 0
 377 -76 335 -114 286 -114 c 1
 286 -59 l 1
 307 -59 320 -45 321 -25 c 0
 321 -14 318 -6 312 0 c 2
 161 136 l 2
 101 190 59 223 59 330 c 2
 59 524 l 1
 -20 524 l 1
 -20 579 l 1
EndSplineSet
Validated: 1
EndChar

StartChar: aideva
Encoding: 274 2320 64
Width: 537
VWidth: 1000
GlyphClass: 2
Flags: HMW
LayerCount: 2
Fore
SplineSet
394 579 m 1
 255 820 l 1
 302.981445312 848 l 1
 458 579 l 1
 557 579 l 1
 557 524 l 1
 458 524 l 1
 458 322 l 2
 458 272 418 232 368 232 c 1
 368 287 l 1
 385 287 403 305 403 322 c 2
 403 524 l 1
 158 524 l 1
 158 330 l 2
 158 244 193 220 242 176 c 2
 395 38 l 2
 412 22 421 2 421 -25 c 0
 421 -76 379 -114 330 -114 c 1
 330 -59 l 1
 351 -59 364 -45 365 -25 c 0
 365 -14 362 -6 356 0 c 2
 205 136 l 2
 145 190 103 223 103 330 c 2
 103 524 l 1
 -20 524 l 1
 -20 579 l 1
 394 579 l 1
EndSplineSet
Validated: 524289
EndChar

StartChar: ocandradeva
Encoding: 275 2321 65
Width: 1043
VWidth: 1000
GlyphClass: 2
Flags: HMW
LayerCount: 2
Fore
SplineSet
836 748 m 1
 892 748 l 1
 892 664 810 609 730 609 c 0
 650 609 568 664 568 748 c 1
 624 748 l 1
 624 696 674 659 730 659 c 0
 786 659 836 696 836 748 c 1
937 -7 m 0
 888 -7 848 33 848 82 c 2
 848 524 l 1
 831 524 l 1
 744 524 l 1
 671 524 l 1
 671 82 l 2
 671 63 686 48 705 48 c 0
 718 48 728 53 734 63 c 1
 780 32 l 1
 762 6 737 -7 705 -7 c 0
 654 -7 616 34 616 82 c 2
 616 291 l 1
 585 269 546 256 507 256 c 0
 493 256 479 258 466 261 c 1
 468 252 469 242 469 228 c 0
 469 136 388 74 296 74 c 0
 173 74 71 168 30 265 c 1
 80 287 l 1
 114 209 196 129 296 129 c 0
 357 129 414 167 414 228 c 0
 414 326 328 332 241 332 c 2
 231 332 l 1
 231 386 l 1
 241 386 l 2
 327 386 357 432 357 472 c 0
 357 520 312 554 262 554 c 0
 211 554 170 524 148 491 c 1
 102 521 l 1
 133 567 191 609 262 609 c 0
 341 609 412 551 412 472 c 0
 412 435 394 399 371 376 c 1
 387 369 405 356 418 343 c 0
 442 320 475 306 507 306 c 0
 559 306 596 337 616 363 c 1
 616 524 l 1
 502 524 l 1
 502 579 l 1
 744 579 l 1
 831 579 l 1
 1063 579 l 1
 1063 524 l 1
 903 524 l 1
 903 82 l 2
 903 63 918 48 937 48 c 0
 950 48 960 53 966 63 c 1
 1012 32 l 1
 994 6 969 -7 937 -7 c 0
EndSplineSet
Validated: 1
EndChar

StartChar: oshortdeva
Encoding: 276 2322 66
Width: 1043
VWidth: 1000
GlyphClass: 2
Flags: HMW
LayerCount: 2
Fore
SplineSet
592 773 m 1
 592 746 596 727 606 718 c 0
 616 709 636 704 666 704 c 2
 774 704 l 2
 817 704 848 693 870 671 c 0
 892 649 903 618 903 579 c 1
 1063 579 l 1
 1063 524 l 1
 903 524 l 1
 903 82 l 2
 903 63 918 48 937 48 c 0
 950 48 960 53 966 63 c 1
 1012 32 l 1
 994 6 969 -7 937 -7 c 0
 888 -7 848 33 848 82 c 2
 848 524 l 1
 831 524 l 1
 744 524 l 1
 671 524 l 1
 671 82 l 2
 671 63 686 48 705 48 c 0
 718 48 728 53 734 63 c 1
 780 32 l 1
 762 6 737 -7 705 -7 c 0
 654 -7 616 34 616 82 c 2
 616 291 l 1
 585 269 546 256 507 256 c 0
 493 256 479 258 466 261 c 1
 468 252 469 242 469 228 c 0
 469 136 388 74 296 74 c 0
 173 74 71 168 30 265 c 1
 80 287 l 1
 114 209 196 129 296 129 c 0
 357 129 414 167 414 228 c 0
 414 326 328 332 241 332 c 2
 231 332 l 1
 231 386 l 1
 241 386 l 2
 327 386 357 432 357 472 c 0
 357 520 312 554 262 554 c 0
 211 554 170 524 148 491 c 1
 102 521 l 1
 133 567 191 609 262 609 c 0
 341 609 412 551 412 472 c 0
 412 435 394 399 371 376 c 1
 387 369 405 356 418 343 c 0
 442 320 475 306 507 306 c 0
 559 306 596 337 616 363 c 1
 616 524 l 1
 502 524 l 1
 502 579 l 1
 744 579 l 1
 831 579 l 1
 848 579 l 1
 848 606 843 625 834 634 c 0
 825 643 805 648 774 648 c 2
 666 648 l 2
 623 648 592 659 570 681 c 0
 548 703 537 734 537 773 c 1
 592 773 l 1
EndSplineSet
Validated: 1
EndChar

StartChar: odeva
Encoding: 277 2323 67
Width: 1043
VWidth: 1000
GlyphClass: 2
Flags: HMW
LayerCount: 2
Fore
SplineSet
937 -7 m 0
 888 -7 848 33 848 82 c 2
 848 524 l 1
 831 524 l 1
 744 524 l 1
 671 524 l 1
 671 82 l 2
 671 63 686 48 705 48 c 0
 718 48 728 53 734 63 c 1
 780 32 l 1
 762 6 737 -7 705 -7 c 0
 654 -7 616 34 616 82 c 2
 616 291 l 1
 585 269 546 256 507 256 c 0
 493 256 479 258 466 261 c 1
 468 252 469 242 469 228 c 0
 469 136 388 74 296 74 c 0
 173 74 71 168 30 265 c 1
 80 287 l 1
 114 209 196 129 296 129 c 0
 357 129 414 167 414 228 c 0
 414 326 328 332 241 332 c 2
 231 332 l 1
 231 386 l 1
 241 386 l 2
 327 386 357 432 357 472 c 0
 357 520 312 554 262 554 c 0
 211 554 170 524 148 491 c 1
 102 521 l 1
 133 567 191 609 262 609 c 0
 341 609 412 551 412 472 c 0
 412 435 394 399 371 376 c 1
 387 369 405 356 418 343 c 0
 442 320 475 306 507 306 c 0
 559 306 596 337 616 363 c 1
 616 524 l 1
 502 524 l 1
 502 579 l 1
 744 579 l 1
 831 579 l 1
 834.325842697 579 l 1
 695 819 l 1
 743 847 l 1
 897.423791822 579 l 1
 1063 579 l 1
 1063 524 l 1
 903 524 l 1
 903 82 l 2
 903 63 918 48 937 48 c 0
 950 48 960 53 966 63 c 1
 1012 32 l 1
 994 6 969 -7 937 -7 c 0
EndSplineSet
Validated: 524289
EndChar

StartChar: audeva
Encoding: 278 2324 68
Width: 1043
VWidth: 1000
GlyphClass: 2
Flags: HMW
LayerCount: 2
Fore
SplineSet
937 -7 m 0
 888 -7 848 33 848 82 c 2
 848 524 l 1
 831 524 l 1
 744 524 l 1
 671 524 l 1
 671 82 l 2
 671 63 686 48 705 48 c 0
 718 48 728 53 734 63 c 1
 780 32 l 1
 762 6 737 -7 705 -7 c 0
 654 -7 616 34 616 82 c 2
 616 291 l 1
 585 269 546 256 507 256 c 0
 493 256 479 258 466 261 c 1
 468 252 469 242 469 228 c 0
 469 136 388 74 296 74 c 0
 173 74 71 168 30 265 c 1
 80 287 l 1
 114 209 196 129 296 129 c 0
 357 129 414 167 414 228 c 0
 414 326 328 332 241 332 c 2
 231 332 l 1
 231 386 l 1
 241 386 l 2
 327 386 357 432 357 472 c 0
 357 520 312 554 262 554 c 0
 211 554 170 524 148 491 c 1
 102 521 l 1
 133 567 191 609 262 609 c 0
 341 609 412 551 412 472 c 0
 412 435 394 399 371 376 c 1
 387 369 405 356 418 343 c 0
 442 320 475 306 507 306 c 0
 559 306 596 337 616 363 c 1
 616 524 l 1
 502 524 l 1
 502 579 l 1
 744 579 l 1
 831 579 l 1
 834.977777778 579 l 1
 824 598 l 2
 819 602 814 605 808 609 c 0
 754 645 677 648 601 648 c 1
 601 703 l 1
 655 703 716 685 773 685 c 1
 695 820 l 1
 743 848 l 1
 898 579 l 1
 1063 579 l 1
 1063 524 l 1
 903 524 l 1
 903 82 l 2
 903 63 918 48 937 48 c 0
 950 48 960 53 966 63 c 1
 1012 32 l 1
 994 6 969 -7 937 -7 c 0
EndSplineSet
Validated: 524289
EndChar

StartChar: kadeva
Encoding: 279 2325 69
Width: 728
VWidth: 1000
GlyphClass: 2
Flags: HMW
AnchorPoint: "DVAnchor3" 379 579 basechar 0
AnchorPoint: "DVAnchor0" 442 -7 basechar 0
LayerCount: 2
Fore
SplineSet
305 332 m 0
 305 283 265 243 216 243 c 0
 184 243 159 256 141 282 c 1
 187 313 l 1
 193 303 203 298 216 298 c 0
 235 298 250 313 250 332 c 0
 250 363 223 381 193 381 c 0
 140 381 91 329 91 276 c 0
 91 222 139 177 194 177 c 0
 283 177 337 280 353 336 c 1
 353 524 l 1
 -20 524 l 1
 -20 579 l 1
 748 579 l 1
 748 524 l 1
 408 524 l 1
 408 381 l 1
 439 410 483 436 533 436 c 0
 622 436 693 362 693 273 c 0
 693 189 634 122 546 122 c 1
 546 177 l 1
 602 177 638 219 638 273 c 0
 638 332 592 381 534 381 c 0
 479 381 436 342 408 304 c 1
 408 82 l 2
 408 63 423 48 442 48 c 0
 455 48 465 53 471 63 c 1
 517 32 l 1
 499 6 474 -7 442 -7 c 0
 393 -7 353 33 353 82 c 2
 353 220 l 1
 326 175 272 122 194 122 c 0
 108 122 36 191 36 276 c 0
 36 361 108 436 193 436 c 0
 252 436 305 395 305 332 c 0
EndSplineSet
Validated: 1
EndChar

StartChar: khadeva
Encoding: 280 2326 70
Width: 845
VWidth: 1000
GlyphClass: 2
Flags: HMW
AnchorPoint: "DVAnchor3" 676 579 basechar 0
AnchorPoint: "DVAnchor0" 739 -7 basechar 0
LayerCount: 2
Fore
SplineSet
739 48 m 0
 752 48 762 53 768 63 c 1
 814 32 l 1
 796 6 771 -7 739 -7 c 0
 690 -7 651 32 650 81 c 1
 574 30 483 -1 391 -1 c 0
 278 -1 163 45 98 138 c 0
 65 186 47 243 47 301 c 0
 47 321 50 338 58 353 c 1
 110 337 l 1
 110 337 102.97265625 326 102.97265625 312 c 0
 102.97265625 290 125 273 148 273 c 0
 184 273 203 303 203 340 c 2
 203 524 l 1
 -20 524 l 1
 -20 579 l 1
 865 579 l 1
 865 524 l 1
 705 524 l 1
 705 82 l 2
 705 64 721 48 739 48 c 0
116 223 m 1
 159 105 283.973632812 54 388.973632812 54 c 0
 483.973632812 54 578 90 650 149 c 1
 650 219 l 1
 622 174 569 122 491 122 c 0
 405 122 333 191 333 276 c 0
 333 361 405 436 490 436 c 0
 515 436 542 429 563 412 c 0
 576 402 586 388 593 373 c 0
 599 360 602 346 602 332 c 0
 602 307 593 286 576 269 c 0
 559 252 538 243 513 243 c 0
 481 243 456 256 438 282 c 1
 484 313 l 1
 490 303 500 298 513 298 c 0
 522 298 530 301 537 308 c 0
 544 315 547 323 547 332 c 0
 547 338 546 345 543 351 c 0
 540 358 535 363 529 368 c 0
 519 376 505 381 490 381 c 0
 437 381 388 329 388 276 c 0
 388 222 436 177 491 177 c 0
 580 177 634 280 650 336 c 1
 650 524 l 1
 258 524 l 1
 258 352 l 2
 258 277 223 218 148 218 c 0
 137 218 126 220 116 223 c 1
EndSplineSet
Validated: 524289
EndChar

StartChar: gadeva
Encoding: 281 2327 71
Width: 667
VWidth: 1000
GlyphClass: 2
Flags: HMW
AnchorPoint: "DVAnchor3" 498 579 basechar 0
LayerCount: 2
Fore
SplineSet
191 296 m 1
 191 296 168 296 157 296 c 0
 110 296 90 281 90 250 c 0
 90 228 108 209 129 209 c 0
 166 209 184 258 191 296 c 1
-20 579 m 1
 687 579 l 1
 687 524 l 1
 527 524 l 1
 527 82 l 2
 527 63 542 48 561 48 c 0
 574 48 584 53 590 63 c 1
 636 32 l 1
 618 6 593 -7 561 -7 c 0
 512 -7 472 33 472 82 c 2
 472 524 l 1
 250 524 l 1
 250 351 l 2
 250 303 244 268 229 232 c 0
 216 200 186 154 129 154 c 0
 75 154 35 200 35 250 c 0
 35 324 98 351 159 351 c 2
 159 351 183 351 195 351 c 1
 195 524 l 1
 -20 524 l 1
 -20 579 l 1
EndSplineSet
Validated: 1
EndChar

StartChar: ghadeva
Encoding: 282 2328 72
Width: 601
VWidth: 1000
GlyphClass: 2
Flags: HMW
AnchorPoint: "DVAnchor3" 430 577 basechar 0
LayerCount: 2
Fore
SplineSet
138 524 m 1
 128 510 117 491 117 469 c 0
 117 419 158 385 207 380 c 0
 210 380 214 380 217 380 c 2
 283 380 l 1
 283 325 l 1
 235 325 l 2
 230 325 224 324 219 324 c 0
 215 324 211 324 207 324 c 0
 172 320 148 292 148 255 c 0
 148 204 195 169 247 169 c 0
 250 169 252 169 255 169 c 0
 332 175 394 246 406 323 c 1
 406 524 l 1
 138 524 l 1
495 48 m 0
 508 48 518 53 524 63 c 1
 570 32 l 1
 552 6 527 -7 495 -7 c 0
 446 -7 406 33 406 82 c 2
 406 193 l 1
 370 149 318 119 259 115 c 0
 255 115 251 114 247 114 c 0
 165 114 93 172 93 255 c 0
 93 268 95 280 99 292 c 0
 106 313 118 333 134 348 c 1
 94 372 62 414 62 469 c 0
 62 489 67 508 74 524 c 1
 -20 524 l 1
 -20 579 l 1
 621 579 l 1
 621 524 l 1
 461 524 l 1
 461 325 l 1
 461 82 l 2
 461 64 477 48 495 48 c 0
EndSplineSet
Validated: 1
EndChar

StartChar: ngadeva
Encoding: 283 2329 73
Width: 644
VWidth: 1000
GlyphClass: 2
Flags: HMW
AnchorPoint: "DVAnchor3" 407 575 basechar 0
AnchorPoint: "DVAnchor0" 328 -18 basechar 0
LayerCount: 2
Fore
SplineSet
327 37 m 0
 388 37 445 80 445 140 c 0
 445 192 406 219 360 226 c 0
 345 228 329 229 311 229 c 2
 203 229 l 1
 171 258 l 2
 153 275 110 305 110 355 c 0
 110 444 186 451 242 451 c 2
 384 451 l 1
 384 524 l 1
 -15 524 l 1
 -15 579 l 1
 664 579 l 1
 664 524 l 1
 439 524 l 1
 438 401 l 1
 438 401 286 401 242 401 c 0
 184 401 165 390 165 355 c 0
 165 333 185.983398438 315 209.983398438 293 c 2
 220 284 l 1
 318 284 l 2
 427 284 500 234 500 140 c 0
 500 48 419 -18 328 -18 c 0
 278 -18 233 -1 193 21 c 0
 121 62 61 119 8 179 c 1
 49 216 l 1
 100 159 156 105 220 69 c 0
 254 49 291 37 327 37 c 0
536 283 m 1
 482 338 l 1
 536 392 l 1
 590 338 l 1
 536 283 l 1
EndSplineSet
Validated: 524289
EndChar

StartChar: cadeva
Encoding: 284 2330 74
Width: 643
VWidth: 1000
GlyphClass: 2
Flags: HMW
AnchorPoint: "DVAnchor3" 477 577 basechar 0
LayerCount: 2
Fore
SplineSet
15 374 m 1
 15 429 l 1
 393 429 l 1
 393 374 l 1
 294 374 l 2
 244 374 192 328 192 271 c 0
 192 212 240 169 305 169 c 0
 379 169 448 240 448 312 c 2
 448 524 l 1
 -15 524 l 1
 -15 579 l 1
 663 579 l 1
 663 524 l 1
 503 524 l 1
 503 82 l 2
 503 63 518 48 537 48 c 0
 550 48 560 53 566 63 c 1
 612 32 l 1
 594 6 569 -7 537 -7 c 0
 488 -7 448 33 448 82 c 2
 448 195 l 1
 426 150 365 114 300 114 c 0
 197 114 141 190 141 272 c 0
 141 310 153 345 177 374 c 1
 15 374 l 1
EndSplineSet
Validated: 1
EndChar

StartChar: chadeva
Encoding: 285 2331 75
Width: 665
VWidth: 1000
GlyphClass: 2
Flags: HMW
AnchorPoint: "DVAnchor3" 497 579 basechar 0
AnchorPoint: "DVAnchor0" 269 -6 basechar 0
LayerCount: 2
Fore
SplineSet
127 355 m 0
 127 307 172 289 222 289 c 2
 293 289 l 1
 293 239.000976562 l 1
 293 239.000976562 258 239.000976562 233 239.000976562 c 0
 186 239.000976562 154 199 154 153 c 0
 154 88 205 44 269 44 c 0
 314 44 345 61 379 83 c 0
 406 101 432 122 456 145 c 1
 432 168 410 196 394 226 c 0
 380 252 369 281 369 317 c 0
 369 377 408 436 470 450 c 1
 470 524 l 1
 -20 524 l 1
 -20 579 l 1
 685 579 l 1
 685 524 l 1
 525 524 l 1
 525 450 l 1
 585 437 624 379 624 320 c 0
 624 239 570 187 533 148 c 1
 539 143 546 138 552 134 c 0
 578 116 632 81 632 18 c 0
 632 -25 597 -63 549 -63 c 0
 544 -63 540 -63 535 -62 c 1
 545 -12 l 2
 546 -12 548 -13 549 -13 c 0
 563 -13 577 -3 577 18 c 0
 577 58 528 86 496 111 c 1
 470 86 441 63 411 43 c 0
 375 19 330 -6 269 -6 c 0
 174 -6 99 62 99 153 c 0
 99 190 115 227 142 254 c 1
 106 268 72 301 72 355 c 0
 72 417 122 470 189 470 c 0
 224 470 257 454 278 428 c 1
 234 398 l 1
 223 412 205 420 189 420 c 0
 157 420 127 394 127 355 c 0
493 182 m 1
 527 218 569 262 569 320 c 0
 569 369 535 403 498 403 c 0
 460 403 424 367 424 317 c 0
 424 259 462 214 493 182 c 1
EndSplineSet
Validated: 524289
EndChar

StartChar: jadeva
Encoding: 286 2332 76
Width: 692
VWidth: 1000
GlyphClass: 2
Flags: HMW
AnchorPoint: "DVAnchor0" 586 -7 basechar 0
AnchorPoint: "DVAnchor3" 525 579 basechar 0
LayerCount: 2
Fore
SplineSet
315 370 m 1
 351 331 390 274 390 204 c 0
 390 133 338 65 254 65 c 0
 171 65 120 125 88 174 c 0
 58 218 36 266 17 314 c 1
 68 331 l 1
 87 285 108 240 135 200 c 0
 163 159 197 115 254 115 c 0
 300 115 335 152 335 204 c 0
 335 277 283 334 239 370 c 1
 239 425 l 1
 497 425 l 1
 497 524 l 1
 -20 524 l 1
 -20 579 l 1
 712 579 l 1
 712 524 l 1
 552 524 l 1
 552 82 l 2
 552 63 567 48 586 48 c 0
 599 48 609 53 615 63 c 1
 661 32 l 1
 643 6 618 -7 586 -7 c 0
 537 -7 497 33 497 82 c 2
 497 370 l 1
 315 370 l 1
EndSplineSet
Validated: 1
EndChar

StartChar: jhadeva
Encoding: 287 2333 77
Width: 782
VWidth: 1000
GlyphClass: 2
Flags: HMW
AnchorPoint: "DVAnchor3" 612 575 basechar 0
LayerCount: 2
Fore
SplineSet
311 284 m 2
 371 284 417 274 452 245 c 0
 471 228 493 221 518 221 c 0
 544 222 570 233 587 253 c 1
 587 524 l 1
 438 524 l 1
 438 401 l 1
 242 401 l 2
 184 401 165 390 165 355 c 0
 165 333 194 306 219 284 c 1
 311 284 l 2
165 149 m 0
 146 149 133 137 131 119 c 0
 131 118 131 117 131 116 c 0
 131 75 180 59 215 50 c 1
 217 59 218 68 218 77 c 0
 218 114 200 146 167 149 c 0
 166 149 166 149 165 149 c 0
445 140 m 0
 445 210 383 229 311 229 c 2
 203 229 l 1
 172 255 109 289 109 357 c 0
 109 440 186 451 242 451 c 2
 383 451 l 1
 383 524 l 1
 -15 524 l 1
 -15 579 l 1
 802 579 l 1
 802 524 l 1
 642 524 l 1
 642 82 l 2
 642 64 658 48 676 48 c 0
 689 48 699 53 705 63 c 1
 751 32 l 1
 733 6 708 -7 676 -7 c 0
 627 -7 587 33 587 82 c 2
 587 184 l 1
 566 173 539 165 515 165 c 0
 509 165 503 165 497 166 c 1
 499 157 500 149 500 140 c 0
 500 35 401 -15 298 -15 c 0
 283 -15 266 -14 251 -12 c 1
 224 -65 185 -105 135 -133 c 1
 108 -85 l 1
 143 -66 175 -36 195 -2 c 1
 140 12 76 47 76 116 c 0
 76 118 76 121 76 123 c 0
 80 168 117 204 165 204 c 0
 167 204 168 204 170 204 c 0
 233 199 273 143 273 77 c 0
 273 65 271 53 269 41 c 1
 278 40 289 40 298 40 c 0
 373 40 445 71 445 140 c 0
EndSplineSet
Validated: 1
Substitution2: "Devanagari-'locl' Localized Forms lookup 3 subtable" jhadeva.np
EndChar

StartChar: nyadeva
Encoding: 288 2334 78
Width: 817
VWidth: 1000
GlyphClass: 2
Flags: HMW
AnchorPoint: "DVAnchor3" 650 579 basechar 0
LayerCount: 2
Fore
SplineSet
711 -7 m 0
 662 -7 622 33 622 82 c 2
 622 287 l 1
 592 267 556 256 519 256 c 0
 493 256 467 262 444 272 c 1
 444 166 354 87 247 87 c 0
 156 87 78 139 30 191 c 1
 70 229 l 1
 108 187 176 142 247 142 c 0
 324 142 389 196 389 272 c 0
 389 344 327 402 255 402 c 0
 223 402 190 390 165 370 c 1
 131 412 l 1
 166 440 210 456 256 456 c 0
 334 456 400 407 428 345 c 1
 452 321 486 306 519 306 c 0
 566 306 601 332 622 356 c 1
 622 524 l 1
 -20 524 l 1
 -20 579 l 1
 837 579 l 1
 837 524 l 1
 677 524 l 1
 677 82 l 2
 677 64 693 48 711 48 c 0
 724 48 734 53 740 63 c 1
 786 32 l 1
 768 6 743 -7 711 -7 c 0
EndSplineSet
Validated: 1
EndChar

StartChar: ttadeva
Encoding: 289 2335 79
Width: 526
VWidth: 1000
GlyphClass: 2
Flags: HMW
AnchorPoint: "DVAnchor3" 346 575 basechar 0
AnchorPoint: "DVAnchor0" 282 -7 basechar 0
LayerCount: 2
Fore
SplineSet
-20 579 m 1
 546 579 l 1
 546 524 l 1
 377 524 l 1
 377 370 l 1
 225 370 l 2
 152 370 106 348 106 278 c 0
 106 197 198 109 281 108 c 0
 360 108 429 164 466 212 c 1
 505 172 l 1
 459 115 376 53 281 53 c 0
 160 53 51 159 51 278 c 0
 51 379 124 425 225 425 c 2
 322 425 l 1
 322 524 l 1
 -20 524 l 1
 -20 579 l 1
EndSplineSet
Validated: 1
EndChar

StartChar: tthadeva
Encoding: 290 2336 80
Width: 550
VWidth: 1000
GlyphClass: 2
Flags: HMW
AnchorPoint: "DVAnchor3" 320 577 basechar 0
AnchorPoint: "DVAnchor0" 291 -7 basechar 0
LayerCount: 2
Fore
SplineSet
-20 579 m 1
 570 579 l 1
 570 524 l 1
 345 524 l 1
 345 370 l 1
 290 370 l 1
 233 370 l 2
 160 370 114 348 114 278 c 0
 114 198 207 107.998046875 290 107.998046875 c 0
 381 107.998046875 456 179 456 269 c 0
 456 321 422 361 378 367 c 1
 402 417.971679688 l 1
 463 401.971679688 511 346 511 269 c 0
 511 147 411 52.998046875 289 52.998046875 c 0
 168 52.998046875 59 159 59 278 c 0
 59 379 132 425 233 425 c 2
 290 425 l 1
 290 524 l 1
 -20 524 l 1
 -20 579 l 1
EndSplineSet
Validated: 524289
EndChar

StartChar: ddadeva
Encoding: 291 2337 81
Width: 536
VWidth: 1000
GlyphClass: 2
Flags: HMW
AnchorPoint: "DVAnchor3" 409 577 basechar 0
AnchorPoint: "DVAnchor0" 327 -18 basechar 0
LayerCount: 2
Fore
SplineSet
-15 579 m 1
 551 579 l 1
 551 524 l 1
 439 524 l 1
 438 401 l 1
 438 401 286 401 242 401 c 0
 184 401 165 390 165 355 c 0
 165 333 185.983398438 315 209.983398438 293 c 2
 220 284 l 1
 311 284 l 2
 416 284 500 244 500 140 c 0
 500 48 419 -18 328 -18 c 0
 278 -18 233 -1 193 21 c 0
 121 62 61 119 8 179 c 1
 49 216 l 1
 100 159 156 105 220 69 c 0
 254 49 291 37 327 37 c 0
 388 37 445 80 445 140 c 0
 445 192 406 219 360 226 c 0
 345 228 329 229 311 229 c 2
 203 229 l 1
 171 258 l 2
 153 275 110 305 110 355 c 0
 110 444 186 451 242 451 c 2
 384 451 l 1
 384 524 l 1
 -15 524 l 1
 -15 579 l 1
EndSplineSet
Validated: 524289
EndChar

StartChar: ddhadeva
Encoding: 292 2338 82
Width: 516
VWidth: 1000
GlyphClass: 2
Flags: HMW
AnchorPoint: "DVAnchor3" 396 579 basechar 0
AnchorPoint: "DVAnchor0" 312 -7 basechar 0
LayerCount: 2
Fore
SplineSet
-20 579 m 1
 531 579 l 1
 531 524 l 1
 419 524 l 1
 419 370 l 1
 258 370 l 2
 168 370 106 344 106 269 c 0
 106 172 214 78 311 78 c 0
 374 78 421.974609375 118 421.974609375 183 c 0
 421.974609375 239 377 283 330 283 c 0
 300 283 275 264 275 236 c 0
 275 214 293 201 306 201 c 0
 310 201 315 202 321 206 c 1
 338 157 l 1
 328 153 317 151 306 151 c 0
 257 151 220 191 220 236 c 0
 220 296 276 333 330 333 c 0
 415 333 476.974609375 260 476.974609375 183 c 0
 476.974609375 92 403 28 311 28 c 0
 182 28 51 143 51 269 c 0
 51 385 160 420 258 420 c 2
 364 420 l 1
 364 524 l 1
 -20 524 l 1
 -20 579 l 1
EndSplineSet
Validated: 524289
EndChar

StartChar: nnadeva
Encoding: 293 2339 83
Width: 705
VWidth: 1000
GlyphClass: 2
Flags: HMW
AnchorPoint: "DVAnchor3" 540 579 basechar 0
AnchorPoint: "DVAnchor0" 599 -7 basechar 0
LayerCount: 2
Fore
SplineSet
143 524 m 1
 143 253 l 2
 143 210 182 174 230 174 c 0
 277 174 315 209 315 253 c 2
 315 524 l 1
 143 524 l 1
599 -7 m 0
 550 -7 510 33 510 82 c 2
 510 524 l 1
 370 524 l 1
 370 253 l 2
 370 183 309 124 230 124 c 0
 152 124 88 182 88 253 c 2
 88 524 l 1
 -20 524 l 1
 -20 579 l 1
 725 579 l 1
 725 524 l 1
 565 524 l 1
 565 82 l 2
 565 64 581 48 599 48 c 0
 612 48 622 53 628 63 c 1
 674 32 l 1
 656 6 631 -7 599 -7 c 0
EndSplineSet
Validated: 1
EndChar

StartChar: tadeva
Encoding: 294 2340 84
Width: 601
VWidth: 1000
GlyphClass: 2
Flags: HMW
AnchorPoint: "DVAnchor3" 434 579 basechar 0
LayerCount: 2
Fore
SplineSet
495 -7 m 0
 446 -7 406 33 406 82 c 2
 406 370 l 1
 255 370 l 2
 178 370 136 312 136 234 c 0
 136 192 146 155 165 125 c 0
 184 95 212 63 248 30 c 1
 210 -10 l 1
 148 49 81 113 81 234 c 0
 81 338 151 426 255 426 c 2
 406 426 l 1
 406 524 l 1
 -20 524 l 1
 -20 579 l 1
 621 579 l 1
 621 524 l 1
 461 524 l 1
 461 82 l 2
 461 64 477 48 495 48 c 0
 508 48 518 53 524 63 c 1
 570 32 l 1
 552 6 527 -7 495 -7 c 0
EndSplineSet
Validated: 1
EndChar

StartChar: thadeva
Encoding: 295 2341 85
Width: 662
VWidth: 1000
GlyphClass: 2
Flags: HMW
AnchorPoint: "DVAnchor3" 493 579 basechar 0
LayerCount: 2
Fore
SplineSet
682 579 m 1
 682 524 l 1
 522 524 l 1
 522 82 l 2
 522 63 537 48 556 48 c 0
 569 48 579 53 585 63 c 1
 631 32 l 1
 613 6 588 -7 556 -7 c 0
 507 -7 467 33 467 82 c 2
 467 182 l 1
 423 134 370 110 309 110 c 0
 151 110 91 255 91 255 c 1
 91 313 l 1
 104 313 l 2
 172 313 285.001953125 348 285.001953125 481 c 0
 285.001953125 532 248 565 200 565 c 0
 163 565 132 534 132 497 c 0
 132 473 144 451 168 451 c 0
 185 451 196 458.991210938 201 470.991210938 c 1
 251 449 l 1
 236 417 209 395 167 395 c 0
 112 395 77 442 77 497 c 0
 77 563 132 620 200 620 c 0
 279 620 340 559 340 480 c 0
 340 321 211 270 149 261 c 1
 177 211 234 165 309 165 c 0
 383 165 439 209 467 258 c 1
 467 524 l 1
 378 524 l 1
 378 579 l 1
 682 579 l 1
EndSplineSet
Validated: 524289
EndChar

StartChar: dadeva
Encoding: 296 2342 86
Width: 510
VWidth: 1000
GlyphClass: 2
Flags: HMW
AnchorPoint: "DVAnchor3" 385 575 basechar 0
AnchorPoint: "DVAnchor0" 419 -7 basechar 0
LayerCount: 2
Fore
SplineSet
342 234 m 0
 322 234 304 215 304 195 c 0
 304 173 321 150 333 138 c 1
 357 146 382 164 382 194 c 0
 382 217 362 234 342 234 c 0
358 425 m 1
 358 524 l 1
 -20 524 l 1
 -20 579 l 1
 530 579 l 1
 530 524 l 1
 413 524 l 1
 413 370 l 1
 229 370 l 2
 157 370 106 344 106 275 c 0
 106 191 193 142 267 133 c 1
 257 150 249 170 249 193 c 0
 249 248 291 290 343 290 c 0
 395 290 437 246 437 194 c 0
 437 149 409 118 380 100 c 1
 413 73 451 34 451 -24 c 0
 451 -81 403 -139 348 -139 c 1
 348 -83 l 1
 374 -79 396 -55 396 -24 c 0
 396 24 350 54 319 78 c 1
 309 77 300 76 290 76 c 0
 174 76 51 154 51 276 c 0
 51 365 128 425 212 425 c 2
 358 425 l 1
EndSplineSet
Validated: 1
EndChar

StartChar: dhadeva
Encoding: 297 2343 87
Width: 604
VWidth: 1000
GlyphClass: 2
Flags: HMW
AnchorPoint: "DVAnchor3" 435 579 basechar 0
LayerCount: 2
Fore
SplineSet
498 -7 m 0
 449 -7 409 33 409 82 c 2
 409 140 l 1
 387 97 325 59 262 59 c 0
 169 59 102 126 102 216 c 0
 102 261 120 303 151 333 c 1
 113 367 80 423 80 488 c 0
 80 577 158 620 224 620 c 0
 283 620 336 579 336 516 c 0
 336 467 296 427 247 427 c 0
 215 427 190 440 172 466 c 1
 218 497 l 1
 224 487 234 482 247 482 c 0
 265 482 281 498 281 516 c 0
 281 547 254 565 224 565 c 0
 176 565 136 538 136 488 c 0
 136 432 172 383 201 364 c 1
 219 371 240 374 263 374 c 2
 332 374 l 1
 332 319 l 1
 263 319 l 2
 204 319 153 274 153 216 c 0
 153 154 201 114 262 114 c 0
 336 114 409 185 409 257 c 2
 409 579 l 1
 624 579 l 1
 624 524 l 1
 464 524 l 1
 464 82 l 2
 464 64 480 48 498 48 c 0
 511 48 521 53 527 63 c 1
 573 32 l 1
 555 6 530 -7 498 -7 c 0
EndSplineSet
Validated: 1
EndChar

StartChar: nadeva
Encoding: 298 2344 88
Width: 623
VWidth: 1000
GlyphClass: 2
Flags: HMW
AnchorPoint: "DVAnchor3" 455 579 basechar 0
LayerCount: 2
Fore
SplineSet
191 296 m 1
 157 296 l 2
 110 296 90 280 90 249 c 0
 90 227 108 209 129 209 c 0
 151 209 168 227 179 253 c 0
 185 267 188 281 191 296 c 1
517 -7 m 0
 468 -7 428 33 428 82 c 2
 428 296 l 1
 246 296 l 1
 243 274 238 253 229 232 c 0
 216 200 186 154 129 154 c 0
 75 154 35 199 35 249 c 0
 35 322 98 351 157 351 c 2
 428 351 l 1
 428 524 l 1
 -20 524 l 1
 -20 579 l 1
 643 579 l 1
 643 524 l 1
 483 524 l 1
 483 82 l 2
 483 64 499 48 517 48 c 0
 530 48 540 53 546 63 c 1
 592 32 l 1
 574 6 549 -7 517 -7 c 0
EndSplineSet
Validated: 1
EndChar

StartChar: nnnadeva
Encoding: 299 2345 89
Width: 623
VWidth: 1000
GlyphClass: 2
Flags: HMW
AnchorPoint: "DVAnchor3" 452 577 basechar 0
LayerCount: 2
Fore
SplineSet
143 -70 m 1
 89 -15 l 1
 143 39 l 1
 197 -15 l 1
 143 -70 l 1
191 296 m 1
 157 296 l 2
 110 296 90 280 90 249 c 0
 90 227 108 209 129 209 c 0
 151 209 168 227 179 253 c 0
 185 267 188 281 191 296 c 1
517 -7 m 0
 468 -7 428 33 428 82 c 2
 428 296 l 1
 246 296 l 1
 243 274 238 253 229 232 c 0
 216 200 186 154 129 154 c 0
 75 154 35 199 35 249 c 0
 35 322 98 351 157 351 c 2
 428 351 l 1
 428 524 l 1
 -20 524 l 1
 -20 579 l 1
 643 579 l 1
 643 524 l 1
 483 524 l 1
 483 82 l 2
 483 64 499 48 517 48 c 0
 530 48 540 53 546 63 c 1
 592 32 l 1
 574 6 549 -7 517 -7 c 0
EndSplineSet
Validated: 1
Ligature2: "Devanagari-'nukt' Nukta Forms lookup 5 subtable" nadeva nuktadeva
LCarets2: 1 0 
EndChar

StartChar: padeva
Encoding: 300 2346 90
Width: 592
VWidth: 1000
GlyphClass: 2
Flags: HMW
AnchorPoint: "DVAnchor3" 423 579 basechar 0
LayerCount: 2
Fore
SplineSet
397 350 m 1
 397 524 l 1
 142 524 l 1
 142 328 l 2
 142 252 189 220 246 220 c 0
 322 220 373 293 397 350 c 1
486 -7 m 0
 437 -7 397 33 397 82 c 2
 397 242 l 1
 364 199 316 165 246 165 c 0
 163 165 88 222 88 328 c 2
 88 524 l 1
 -20 524 l 1
 -20 579 l 1
 612 579 l 1
 612 524 l 1
 452 524 l 1
 452 82 l 2
 452 63 467 48 486 48 c 0
 499 48 509 53 515 63 c 1
 561 32 l 1
 543 6 518 -7 486 -7 c 0
EndSplineSet
Validated: 1
EndChar

StartChar: phadeva
Encoding: 301 2347 91
Width: 796
VWidth: 1000
GlyphClass: 2
Flags: HMW
AnchorPoint: "DVAnchor3" 433 577 basechar 0
AnchorPoint: "DVAnchor0" 497 -9 basechar 0
LayerCount: 2
Fore
SplineSet
406 350 m 1
 406 524 l 1
 152 524 l 1
 152 328 l 2
 152 252 198 220 255 220 c 0
 331 220 382 293 406 350 c 1
495 -7 m 0
 446 -7 406 33 406 82 c 2
 406 243 l 1
 373 200 325 165 255 165 c 0
 172 165 97 222 97 328 c 2
 97 524 l 1
 -20 524 l 1
 -20 579 l 1
 816 579 l 1
 816 524 l 1
 461 524 l 1
 461 381 l 1
 492 411 535 436 586 436 c 0
 675 436 746 362 746 273 c 0
 746 189 687 122 599 122 c 1
 599 177 l 1
 655 177 691 219 691 273 c 0
 691 332 645 381 587 381 c 0
 533 381 489 342 461 304 c 1
 461 82 l 2
 461 64 477 48 495 48 c 0
 508 48 518 53 524 63 c 1
 570 32 l 1
 552 6 527 -7 495 -7 c 0
EndSplineSet
Validated: 1
EndChar

StartChar: badeva
Encoding: 302 2348 92
Width: 583
VWidth: 1000
GlyphClass: 2
Flags: HMW
LayerCount: 2
Fore
SplineSet
298 191 m 1
 147 342 l 1
 133 325 124 303 124 278 c 0
 124 218 174 174 233 174 c 0
 255 174 278 180 298 191 c 1
388 349 m 1
 350 366 296 386 249 386 c 0
 228 386 208 382 190 375 c 1
 340 225 l 1
 364 252 383 289 388 329 c 1
 388 349 l 1
443 82 m 2
 443 63 458 48 477 48 c 0
 490 48 500 53 506 63 c 1
 552 32 l 1
 534 6 509 -7 477 -7 c 0
 428 -7 388 33 388 82 c 2
 388 196 l 1
 353 154 300 119 233 119 c 0
 145 119 69 187 69 278 c 0
 69 376 151 441 249 441 c 0
 300 441 347 427 388 410 c 1
 388 524 l 1
 -15 524 l 1
 -15 579 l 1
 603 579 l 1
 603 524 l 1
 443 524 l 1
 443 82 l 2
EndSplineSet
Validated: 1
EndChar

StartChar: bhadeva
Encoding: 303 2349 93
Width: 684
VWidth: 1000
GlyphClass: 2
Flags: HMW
LayerCount: 2
Fore
SplineSet
140 451 m 0
 157 451 168 459 173 471 c 1
 223 449 l 1
 208 417 181 395 139 395 c 0
 84 395 49 442 49 497 c 0
 49 563 104 620 172 620 c 0
 251 620 312 559 312 480 c 2
 311 321 l 1
 489 321 l 1
 489 524 l 1
 359 524 l 1
 359 579 l 1
 684 579 l 1
 684 524 l 1
 544 524 l 1
 544 82 l 2
 544 63 559 48 578 48 c 0
 591 48 601 53 607 63 c 1
 653 32 l 1
 635 6 610 -7 578 -7 c 0
 529 -7 489 33 489 82 c 2
 489 266 l 1
 307 266 l 1
 304 244 299 223 290 202 c 0
 277 170 247 124 190 124 c 0
 136 124 96 170 96 220 c 0
 96 293 159 321 218 321 c 2
 256 321 l 1
 257 481 l 2
 257 532 220 565 172 565 c 0
 135 565 104 534 104 497 c 0
 104 473 116 451 140 451 c 0
252 266 m 1
 218 266 l 2
 171 266 151 251 151 220 c 0
 151 198 169 179 190 179 c 0
 227 179 245 228 252 266 c 1
EndSplineSet
Validated: 1
EndChar

StartChar: madeva
Encoding: 304 2350 94
Width: 613
VWidth: 1000
GlyphClass: 2
Flags: HMW
AnchorPoint: "DVAnchor3" 444 579 basechar 0
LayerCount: 2
Fore
SplineSet
240 321 m 1
 245 321 l 1
 418 321 l 1
 418 524 l 1
 240 524 l 1
 240 321 l 1
181 266 m 1
 150 266 l 2
 102 266 80 252 80 220 c 0
 80 198 98 179 119 179 c 0
 156 179 173 228 181 266 c 1
507 -7 m 0
 458 -7 418 33 418 82 c 2
 418 266 l 1
 245 266 l 1
 236 266 l 1
 233 244 228 223 219 202 c 0
 206 170 176 124 119 124 c 0
 65 124 25 170 25 220 c 0
 25 295 89 321 150 321 c 2
 185 321 l 1
 185 524 l 1
 -20 524 l 1
 -20 579 l 1
 633 579 l 1
 633 524 l 1
 473 524 l 1
 473 82 l 2
 473 64 489 48 507 48 c 0
 520 48 530 53 536 63 c 1
 582 32 l 1
 564 6 539 -7 507 -7 c 0
EndSplineSet
Validated: 1
EndChar

StartChar: yadeva
Encoding: 305 2351 95
Width: 632
VWidth: 1000
GlyphClass: 2
Flags: HMW
AnchorPoint: "DVAnchor3" 459 579 basechar 0
AnchorPoint: "DVAnchor0" 526 -8 basechar 0
LayerCount: 2
Fore
SplineSet
526 -7 m 0
 477 -7 437 33 437 82 c 2
 437 182 l 1
 393 134 340 110 279 110 c 0
 142 110 72 222 61 255 c 1
 61 313 l 1
 83 313 l 2
 165 313 215 361 215 416 c 0
 215 492 174 519 164 524 c 1
 -20 524 l 1
 -20 579 l 1
 652 579 l 1
 652 524 l 1
 492 524 l 1
 492 82 l 2
 492 63 507 48 526 48 c 0
 539 48 549 53 555 63 c 1
 601 32 l 1
 583 6 558 -7 526 -7 c 0
279 165 m 0
 353 165 409 209 437 258 c 1
 437 524 l 1
 241 524 l 1
 257 499 271 464 271 416 c 0
 271 334 205 274 119 261 c 1
 147 211 204 165 279 165 c 0
EndSplineSet
Validated: 1
EndChar

StartChar: radeva
Encoding: 306 2352 96
Width: 408
VWidth: 1000
GlyphClass: 2
Flags: HMW
AnchorPoint: "DVAnchor3" 259 579 basechar 0
LayerCount: 2
Fore
SplineSet
138 337 m 1
 138 337 131 326 131 312 c 0
 131 290 153 273 176 273 c 0
 212 273 231 303 231 340 c 2
 231 524 l 1
 -20 524 l 1
 -20 579 l 1
 428 579 l 1
 428 524 l 1
 286 524 l 1
 286 352 l 2
 286 277 251 218 176 218 c 0
 164 218 153 220 142 224 c 1
 155 181 180 141 212 110 c 0
 249 75 298 52 348 44 c 1
 348 -7 l 1
 282 1 220 31 172 76 c 0
 111 134 76 215 76 298 c 0
 76 321 78 336 86 353 c 1
 138 337 l 1
EndSplineSet
Validated: 1
EndChar

StartChar: rradeva
Encoding: 307 2353 97
Width: 426
VWidth: 1000
GlyphClass: 3
Flags: HMW
AnchorPoint: "DVAnchor3" 256 579 basechar 0
LayerCount: 2
Fore
SplineSet
135 -71 m 1
 81 -16 l 1
 135 38 l 1
 189 -16 l 1
 135 -71 l 1
138 337 m 1
 138 337 131 326 131 312 c 0
 131 290 153 273 176 273 c 0
 212 273 231 303 231 340 c 2
 231 524 l 1
 -20 524 l 1
 -20 579 l 1
 428 579 l 1
 428 524 l 1
 286 524 l 1
 286 352 l 2
 286 277 251 218 176 218 c 0
 164 218 153 220 142 224 c 1
 155 181 180 141 212 110 c 0
 249 75 298 52 348 44 c 1
 348 -7 l 1
 282 1 220 31 172 76 c 0
 111 134 76 215 76 298 c 0
 76 321 78 336 86 353 c 1
 138 337 l 1
EndSplineSet
Validated: 1
Ligature2: "Devanagari-'nukt' Nukta Forms lookup 5 subtable" radeva nuktadeva
LCarets2: 1 0 
EndChar

StartChar: ladeva
Encoding: 308 2354 98
Width: 665
VWidth: 1000
GlyphClass: 2
Flags: HMW
LayerCount: 2
Fore
SplineSet
553 -7 m 0
 504 -7 464 33 464 82 c 2
 464 370 l 1
 404 369 362 337 344 291 c 0
 339 278 337 263 337 249 c 1
 282 249 l 1
 282 287 293 319 310 345 c 1
 293 363 269 375 238 375 c 0
 165 375 120 312 120 239 c 0
 120 130 202 49 276 7 c 1
 249 -41 l 1
 160 9 65 105 65 239 c 0
 65 343 133 430 237 430 c 0
 283 430 320 412 347 385 c 1
 380 412 416 424 464 425 c 1
 464 524 l 1
 -20 524 l 1
 -20 579 l 1
 685 579 l 1
 685 524 l 1
 519 524 l 1
 519 82 l 2
 519 63 534 48 553 48 c 0
 566 48 576 53 582 63 c 1
 628 32 l 1
 610 6 585 -7 553 -7 c 0
EndSplineSet
Validated: 1
Substitution2: "Devanagari-'locl' Localized Forms lookup 1 subtable" ladeva.mr
EndChar

StartChar: lladeva
Encoding: 309 2355 99
Width: 697
VWidth: 1000
GlyphClass: 2
Flags: HMW
AnchorPoint: "DVAnchor3" 490 579 basechar 0
AnchorPoint: "DVAnchor0" 494 55 basechar 0
LayerCount: 2
Fore
SplineSet
334 295 m 1
 332 294 l 1
 302 338 255 380 203 380 c 0
 140 380 96 322 96 249 c 0
 96 169 143 110 206 110 c 0
 251 110 283.991210938 143 299.991210938 187 c 0
 311.991210938 218 322 258 334 295 c 1
364 203 m 1
 394 159 441 110 491 110 c 0
 552 110 598 174 598 248 c 0
 598 327 554 380 488 380 c 0
 436 380 413 351 395 305 c 0
 393 299 364 203 364 203 c 1
356 350 m 1
 376 388 411 421 465 428 c 1
 465 524 l 1
 -15 524 l 1
 -15 579 l 1
 712 579 l 1
 712 524 l 1
 520 524 l 1
 520 427 l 1
 607 411 652 332 652 248 c 0
 652 164 600 60 491 60 c 0
 423 60 372 106 340 145 c 1
 316 102 272 60 206 60 c 0
 98 60 42 157 42 249 c 0
 42 334 96 430 203 430 c 0
 270 430 322 390 356 350 c 1
EndSplineSet
Validated: 524289
EndChar

StartChar: llladeva
Encoding: 310 2356 100
Width: 697
VWidth: 1000
GlyphClass: 2
Flags: HMW
AnchorPoint: "DVAnchor3" 492 579 basechar 0
AnchorPoint: "DVAnchor0" 496 60 basechar 0
LayerCount: 2
Fore
SplineSet
344 -71 m 1
 290 -16 l 1
 344 38 l 1
 398 -16 l 1
 344 -71 l 1
334 295 m 1
 332 294 l 1
 302 338 255 380 203 380 c 0
 140 380 96 322 96 249 c 0
 96 169 143 110 206 110 c 0
 251 110 284 143 300 187 c 0
 312 218 322 258 334 295 c 1
364 203 m 1
 394 159 441 110 491 110 c 0
 552 110 598 174 598 248 c 0
 598 327 554 380 488 380 c 0
 436 380 413 351 395 305 c 0
 393 299 364 203 364 203 c 1
356 350 m 1
 376 388 411 421 465 428 c 1
 465 524 l 1
 -15 524 l 1
 -15 579 l 1
 712 579 l 1
 712 524 l 1
 520 524 l 1
 520 427 l 1
 607 411 652 332 652 248 c 0
 652 164 600 60 491 60 c 0
 423 60 372 106 340 145 c 1
 316 102 272 60 206 60 c 0
 98 60 42 157 42 249 c 0
 42 334 96 430 203 430 c 0
 270 430 322 390 356 350 c 1
EndSplineSet
Validated: 1
Ligature2: "Devanagari-'nukt' Nukta Forms lookup 5 subtable" lladeva nuktadeva
LCarets2: 1 0 
EndChar

StartChar: vadeva
Encoding: 311 2357 101
Width: 558
VWidth: 1000
GlyphClass: 2
Flags: HMW
AnchorPoint: "DVAnchor3" 390 579 basechar 0
LayerCount: 2
Fore
SplineSet
315 332 m 0
 315 283 275 243 226 243 c 0
 194 243 169 256 151 282 c 1
 197 313 l 1
 203 303 213 298 226 298 c 0
 245 298 260 313 260 332 c 0
 260 363 233 381 203 381 c 0
 150 381 101 329 101 276 c 0
 101 222 149 177 204 177 c 0
 293 177 347 280 363 336 c 1
 363 524 l 1
 -20 524 l 1
 -20 579 l 1
 578 579 l 1
 578 524 l 1
 418 524 l 1
 418 82 l 2
 418 63 433 48 452 48 c 0
 465 48 475 53 481 63 c 1
 527 32 l 1
 509 6 484 -7 452 -7 c 0
 403 -7 363 33 363 82 c 2
 363 219 l 1
 335 174 282 122 204 122 c 0
 118 122 46 191 46 276 c 0
 46 361 118 436 203 436 c 0
 262 436 315 395 315 332 c 0
EndSplineSet
Validated: 1
EndChar

StartChar: shadeva
Encoding: 312 2358 102
Width: 732
VWidth: 1000
GlyphClass: 2
Flags: HMW
LayerCount: 2
Fore
SplineSet
330.994140625 256.859375 m 1
 333.108398438 259.286132812 335.229492188 261.845703125 337.072265625 264.200195312 c 0
 362.01171875 296.05859375 374.159179688 334.619140625 374.159179688 378.80859375 c 0
 374.159179688 486.157818116 306.988512013 565 200 565 c 0
 163 565 132 534 132 497 c 0
 132 473 144 451 168 451 c 0
 185 451 196 459 201 471 c 1
 251 449 l 1
 236 417 209 395 167 395 c 0
 112 395 77 442 77 497 c 0
 77 563 132 620 200 620 c 0
 335.281017978 620 424.159179688 514.814268198 424.159179688 378.80859375 c 0
 424.159179688 323.118164062 408.134765625 270.688476562 374.9609375 228.311523438 c 0
 370.134765625 222.146484375 364.3984375 215.5859375 358.422851562 209.444335938 c 1
 366.655273438 193.350585938 374.233537773 177.215420018 381.125976562 162.80078125 c 0
 402.512695312 118.073242188 429.923828125 57.56640625 449.240234375 12.4208984375 c 1
 404 -11 l 1
 384.810546875 33.8486328125 357.713912982 93.6171667376 336.874023438 137.198242188 c 0
 330.580078125 150.360351562 324.21484375 163.905273438 317.560546875 177.1328125 c 1
 292.563476562 162.326171875 262.487304688 152.4453125 228.713867188 152.4453125 c 0
 177.46875 152.4453125 115.3046875 181.887695312 115.3046875 251.303710938 c 0
 115.3046875 307.11328125 159.743164062 340.435546875 206.147460938 340.435546875 c 0
 228.842773438 340.435546875 248.810546875 333.040039062 265.791992188 322.733398438 c 0
 292.771484375 306.356445312 313.893554688 282.259765625 330.994140625 256.859375 c 1
290.971679688 223.88671875 m 1
 276.560546875 245.451171875 260.428710938 263.170898438 241.635742188 274.578125 c 0
 230.03125 281.62109375 219.024414062 285.435546875 206.147460938 285.435546875 c 0
 178.588867188 285.435546875 165.3046875 269.255859375 165.3046875 251.303710938 c 0
 165.3046875 228.311523438 187.603515625 207.4453125 228.713867188 207.4453125 c 0
 252.439453125 207.4453125 273.125976562 213.888671875 290.971679688 223.88671875 c 1
537 82 m 2
 537 524 l 1
 460 524 l 1
 460 579 l 1
 752 579 l 1
 752 524 l 1
 592 524 l 1
 592 82 l 2
 592 63 607 48 626 48 c 0
 639 48 649 53 655 63 c 1
 701 32 l 1
 683 6 658 -7 626 -7 c 0
 577 -7 537 33 537 82 c 2
EndSplineSet
Validated: 524289
Substitution2: "Devanagari-'locl' Localized Forms lookup 1 subtable" shadeva.mr
EndChar

StartChar: ssadeva
Encoding: 313 2359 103
Width: 558
VWidth: 1000
GlyphClass: 2
Flags: HMW
AnchorPoint: "DVAnchor3" 388 579 basechar 0
LayerCount: 2
Fore
SplineSet
325 284 m 1
 108 456 l 1
 108 328 l 2
 108 252 155 220 212 220 c 0
 260 220 297 248 325 284 c 1
354 331 m 1
 357 337 360 344 363 350 c 2
 363 524 l 1
 110 524 l 1
 354 331 l 1
452 -7 m 0
 403 -7 363 33 363 82 c 2
 363 243 l 1
 330 200 282 165 212 165 c 0
 129 165 54 222 54 328 c 2
 54 524 l 1
 -20 524 l 1
 -20 579 l 1
 578 579 l 1
 578 524 l 1
 418 524 l 1
 418 82 l 2
 418 63 433 48 452 48 c 0
 465 48 475 53 481 63 c 1
 527 32 l 1
 509 6 484 -7 452 -7 c 0
EndSplineSet
Validated: 1
EndChar

StartChar: sadeva
Encoding: 314 2360 104
Width: 612
VWidth: 1000
GlyphClass: 2
Flags: HMW
AnchorPoint: "DVAnchor3" 441 578 basechar 0
LayerCount: 2
Fore
SplineSet
417 320 m 1
 417 524 l 1
 219 524 l 1
 219 351 l 2
 219 340 218 330 217 320 c 1
 417 320 l 1
506 -7 m 0
 457 -7 417 33 417 82 c 2
 417 265 l 1
 198 265 l 1
 180 236 151 217 109 217 c 0
 97 217 86 219 75 223 c 1
 88 180 112 140 144 109 c 0
 181 74 230 51 280 43 c 1
 280 -8 l 1
 214 0 153 30 105 75 c 0
 44 133 9 214 9 297 c 0
 9 320 10 335 18 352 c 1
 70 336 l 1
 70 336 63.97265625 325 63.97265625 311 c 0
 63.97265625 289 86 272 109 272 c 0
 145 272 164 302 164 339 c 0
 164 367 164 478 164 524 c 1
 -15 524 l 1
 -15 579 l 1
 632 579 l 1
 632 524 l 1
 472 524 l 1
 472 82 l 2
 472 64 488 48 506 48 c 0
 519 48 529 53 535 63 c 1
 581 32 l 1
 563 6 538 -7 506 -7 c 0
EndSplineSet
Validated: 524289
EndChar

StartChar: hadeva
Encoding: 315 2361 105
Width: 506
VWidth: 1000
GlyphClass: 2
Flags: HMW
AnchorPoint: "DVAnchor3" 379 579 basechar 0
AnchorPoint: "DVAnchor0" 337 2 basechar 0
LayerCount: 2
Fore
SplineSet
350 138 m 0
 369 138 384 153 384 172 c 0
 384 232 319 257 255 257 c 0
 176 257 108 221 106 150 c 1
 114 42 260 3 390 0 c 1
 388 -55 l 1
 228 -52 50 7 50 151 c 0
 50 207 86 252 121 276 c 1
 102 294 80 319 80 355 c 0
 80 444 156 451 212 451 c 2
 354 451 l 1
 354 524 l 1
 -20 524 l 1
 -20 579 l 1
 526 579 l 1
 526 524 l 1
 409 524 l 1
 408 401 l 1
 408 401 256 401 212 401 c 0
 154 401 135 390 135 355 c 0
 135 336 152 319 172 300 c 1
 197 308 224 312 255 312 c 0
 351 312 439 260 439 172 c 0
 439 123 399 83 350 83 c 0
 318 83 293 96 275 122 c 1
 321 153 l 1
 327 143 337 138 350 138 c 0
EndSplineSet
Validated: 1
EndChar

StartChar: oesigndeva
Encoding: 316 2362 106
Width: 0
VWidth: 1000
GlyphClass: 4
Flags: HMW
AnchorPoint: "DVAnchor3" -162 524 mark 0
LayerCount: 2
Fore
SplineSet
-189 801 m 1
 -134 801 l 1
 -134 524 l 1
 -189 524 l 1
 -189 801 l 1
EndSplineSet
Validated: 1
EndChar

StartChar: ooesigndeva
Encoding: 317 2363 107
Width: 335
VWidth: 1000
GlyphClass: 2
Flags: HMW
LayerCount: 2
Fore
SplineSet
229 -7 m 0
 180 -7 140 33 140 82 c 2
 140 524 l 1
 -20 524 l 1
 -20 579 l 1
 140 579 l 1
 140 684 l 1
 195 684 l 1
 195 579 l 1
 355 579 l 1
 355 524 l 1
 195 524 l 1
 195 82 l 2
 195 63 210 48 229 48 c 0
 242 48 252 53 258 63 c 1
 304 32 l 1
 286 6 261 -7 229 -7 c 0
EndSplineSet
Validated: 1
EndChar

StartChar: nuktadeva
Encoding: 318 2364 108
Width: 0
VWidth: 1000
GlyphClass: 4
Flags: HMW
LayerCount: 2
Fore
SplineSet
-218 -165 m 1
 -272 -110 l 1
 -218 -56 l 1
 -164 -110 l 1
 -218 -165 l 1
EndSplineSet
Validated: 1
EndChar

StartChar: avagrahadeva
Encoding: 319 2365 109
Width: 445
VWidth: 1000
GlyphClass: 2
Flags: HMW
LayerCount: 2
Fore
SplineSet
107 129 m 0
 107 77 163 39 233 39 c 0
 298 39 355 89 355 157 c 0
 355 204 330 238 301 260 c 0
 261 291 194 308 147 347 c 0
 118 369 79 406 79 463 c 0
 79 547 152 579 237 579 c 2
 382 579 l 1
 382 524 l 1
 243 524 l 2
 191 524 134 516 134 463 c 0
 134 422 172 393 198 375 c 0
 236 349 289 334 336 298 c 0
 374 269 410 222 410 157 c 0
 410 63 330 -11 233 -11 c 0
 132 -11 53 45 53 129 c 0
 53 179 93 220 143 220 c 0
 155 220 167 217 179 212 c 1
 156 161 l 1
 152 163 148 165 143 165 c 0
 124 165 107 149 107 129 c 0
EndSplineSet
Validated: 1
EndChar

StartChar: aasigndeva
Encoding: 320 2366 110
Width: 315
VWidth: 1000
GlyphClass: 2
Flags: HMW
LayerCount: 2
Fore
SplineSet
335 579 m 1
 335 524 l 1
 175 524 l 1
 175 82 l 2
 175 63 190 48 209 48 c 0
 222 48 232 53 238 63 c 1
 284 32 l 1
 266 6 241 -7 209 -7 c 0
 160 -7 120 33 120 82 c 2
 120 524 l 1
 -20 524 l 1
 -20 579 l 1
 335 579 l 1
EndSplineSet
Validated: 1
EndChar

StartChar: isigndeva
Encoding: 321 2367 111
Width: 333
VWidth: 1000
GlyphClass: 4
Flags: HMW
LayerCount: 2
Fore
SplineSet
229 -7 m 0
 180 -7 140 33 140 82 c 2
 140 524 l 1
 -20 524 l 1
 -20 579 l 1
 122 579 l 1
 113 596 108 616 108 638 c 0
 108 742 211 798 305 798 c 0
 359 798 405 784 450 766 c 0
 565 719 665 646 759 571 c 1
 723 533 l 1
 630 607 534 677 428 720 c 0
 387 737 349 748 305 748 c 0
 230 748 163 706 163 638 c 0
 163 612 172 593 186 579 c 1
 353 579 l 1
 353 524 l 1
 195 524 l 1
 195 82 l 2
 195 63 210 48 229 48 c 0
 242 48 252 53 258 63 c 1
 304 32 l 1
 286 6 261 -7 229 -7 c 0
EndSplineSet
Validated: 1
Substitution2: "Lohit-Devanagari-Single Substitution lookup 23 subtable" isigndeva.ja
Substitution2: "Lohit-Devanagari-Single Substitution lookup 21 subtable" isigndeva.tha
Substitution2: "Lohit-Devanagari-Single Substitution lookup 19 subtable" isigndeva.alt4
Substitution2: "Lohit-Devanagari-Single Substitution lookup 17 subtable" isigndeva.alt2
Substitution2: "Devanagari-Single Substitution lookup 15 subtable" isigndeva.alt3
Substitution2: "Devanagari-Single Substitution lookup 14 subtable" isigndeva.alt1
EndChar

StartChar: iisigndeva
Encoding: 322 2368 112
Width: 315
VWidth: 1000
GlyphClass: 4
Flags: HMW
LayerCount: 2
Fore
SplineSet
229 -7 m 0
 180 -7 140 33 140 82 c 2
 140 384 l 1
 140 524 l 1
 -20 524 l 1
 -20 579 l 1
 138 579 l 1
 133 617 121 646 102 670 c 0
 67 714 14 748 -55 748 c 0
 -115 748 -160 720 -174 677 c 0
 -177 668 -178 659 -178 649 c 0
 -178 606 -150 578 -120 571 c 1
 -133 526 l 1
 -188 539 -233 584 -233 649 c 0
 -233 663 -231 677 -226 691 c 0
 -204 755 -136 798 -55 798 c 0
 36 798 104 753 146 700 c 0
 173 666 188 627 193 579 c 1
 335 579 l 1
 335 524 l 1
 195 524 l 1
 195 384 l 1
 195 82 l 2
 195 64 211 48 229 48 c 0
 242 48 252 53 258 63 c 1
 304 32 l 1
 286 6 261 -7 229 -7 c 0
EndSplineSet
Validated: 1
Substitution2: "Single Substitution lookup 29 subtable" iisigndeva.alt1
Substitution2: "Devanagari_Single Sub lookup 35 subtable" iisigndeva.alt2
EndChar

StartChar: usigndeva
Encoding: 323 2369 113
Width: 0
VWidth: 1000
GlyphClass: 4
Flags: HMW
AnchorPoint: "DVAnchor0" -100 1 mark 0
LayerCount: 2
Fore
SplineSet
-167 -245 m 0
 -140 -245 -118 -237 -99 -221 c 0
 -80 -205 -71 -186 -71 -163 c 0
 -71 -144 -78 -128 -91 -115 c 0
 -104 -102 -120 -95 -139 -95 c 0
 -157 -95 -173 -101 -186 -113 c 1
 -226 -75 l 1
 -201 -52 -172 -40 -139 -40 c 0
 -106 -40 -77 -52 -52 -76 c 0
 -28 -100 -16 -128 -16 -160 c 0
 -16 -202 -31 -236 -61 -261 c 0
 -91 -287 -126 -300 -165 -300 c 0
 -184 -300 -204 -297 -224 -290 c 0
 -243 -283 -262 -273 -281 -261 c 0
 -300 -249 -319 -234 -339 -215 c 0
 -362 -194 -385 -169 -410 -141 c 1
 -370 -105 l 1
 -346 -132 -323 -155 -301 -175 c 0
 -275 -199 -251 -217 -229 -228 c 0
 -208 -239 -187 -245 -167 -245 c 0
EndSplineSet
Validated: 1
EndChar

StartChar: uusigndeva
Encoding: 324 2370 114
Width: 0
VWidth: 1000
GlyphClass: 4
Flags: HMW
AnchorPoint: "DVAnchor0" -79 0 mark 0
LayerCount: 2
Fore
SplineSet
-99 -40 m 0
 -32 -40 35 -76 103 -148 c 1
 228 -293 l 1
 186 -328 l 1
 62 -185 l 2
 5 -125 -48 -95 -97 -95 c 0
 -124 -95 -146 -103 -165 -119 c 0
 -184 -135 -193 -154 -193 -177 c 0
 -193 -196 -186 -212 -173 -225 c 0
 -160 -238 -144 -245 -125 -245 c 0
 -107 -245 -91 -239 -78 -227 c 1
 -38 -265 l 1
 -63 -288 -92 -300 -125 -300 c 0
 -158 -300 -187 -288 -212 -264 c 0
 -236 -240 -248 -212 -248 -180 c 0
 -248 -138 -233 -104 -203 -79 c 0
 -173 -53 -138 -40 -99 -40 c 0
EndSplineSet
Validated: 1
EndChar

StartChar: rvocalicsigndeva
Encoding: 325 2371 115
Width: 0
VWidth: 1000
GlyphClass: 4
Flags: HMW
AnchorPoint: "DVAnchor0" -38 0 mark 0
LayerCount: 2
Fore
SplineSet
-38 -40 m 1
 -38 -95 l 1
 -98 -95 l 2
 -147 -95 -194 -129 -194 -177 c 0
 -194 -214 -163 -245 -126 -245 c 0
 -108 -245 -92 -239 -79 -227 c 1
 -39 -265 l 1
 -64 -288 -93 -300 -126 -300 c 0
 -191 -300 -249 -245 -249 -180 c 0
 -249 -99 -180 -40 -100 -40 c 2
 -38 -40 l 1
EndSplineSet
Validated: 1
EndChar

StartChar: rrvocalicsigndeva
Encoding: 326 2372 116
Width: 0
VWidth: 1000
GlyphClass: 4
Flags: HMW
AnchorPoint: "DVAnchor0" -52 0 mark 0
LayerCount: 2
Fore
SplineSet
-93 -136 m 1
 -75 -184 l 1
 -87 -188 -100 -189 -113 -189 c 0
 -131 -189 -151 -185 -168 -177 c 1
 -175 -182 -182 -192 -182 -204 c 0
 -182 -233 -154.017578125 -251 -118.017578125 -251 c 0
 -88.017578125 -251 -56 -239 -30 -218 c 1
 5.9716796875 -256 l 1
 -28.0283203125 -283 -72.017578125 -301 -118.017578125 -301 c 0
 -172.017578125 -301 -237 -270 -237 -204 c 0
 -237 -179 -225 -157 -207 -142 c 1
 -213 -131 -217 -119 -217 -105 c 0
 -217 -52 -158.002929688 -40 -123.002929688 -40 c 2
 -104 -40 l 1
 -52 -40 l 1
 -52 -90 l 1
 -104 -90 l 1
 -104 -90 -117.002929688 -90 -123.002929688 -90 c 0
 -155.002929688 -90 -162 -99 -162 -105 c 0
 -162 -125 -142 -139 -113 -139 c 0
 -106 -139 -100 -138 -93 -136 c 1
EndSplineSet
Validated: 524289
EndChar

StartChar: ecandrasigndeva
Encoding: 327 2373 117
Width: 0
VWidth: 1000
GlyphClass: 4
Flags: HMW
AnchorPoint: "DVAnchor3" -200 579 mark 0
LayerCount: 2
Fore
SplineSet
-94 773 m 1
 -39 773 l 1
 -39 689 -120 634 -200 634 c 0
 -281 634 -362 689 -362 773 c 1
 -307 773 l 1
 -307 721 -256 684 -200 684 c 0
 -145 684 -94 721 -94 773 c 1
EndSplineSet
Validated: 1
EndChar

StartChar: eshortsigndeva
Encoding: 328 2374 118
Width: 0
VWidth: 1000
GlyphClass: 4
Flags: HMW
AnchorPoint: "DVAnchor3" -161 579 mark 0
LayerCount: 2
Fore
SplineSet
-190 579 m 2
 -190 636 -205 648 -264 648 c 2
 -372 648 l 2
 -455 648 -501 692 -501 773 c 1
 -446 773 l 1
 -446 716 -430 704 -372 704 c 2
 -264 704 l 2
 -181 704 -135 660 -135 579 c 2
 -135 564 l 1
 -190 564 l 1
 -190 579 l 2
EndSplineSet
Validated: 1
EndChar

StartChar: esigndeva
Encoding: 329 2375 119
Width: 0
VWidth: 1000
GlyphClass: 4
Flags: HMW
AnchorPoint: "DVAnchor3" -172 579 mark 0
LayerCount: 2
Fore
SplineSet
-138 579 m 1
 -186 553 l 1
 -341 820 l 1
 -293.018554688 848 l 1
 -138 579 l 1
EndSplineSet
Validated: 524289
EndChar

StartChar: aisigndeva
Encoding: 330 2376 120
Width: -97
VWidth: 1000
GlyphClass: 4
Flags: HMW
AnchorPoint: "DVAnchor3" -169 579 mark 0
LayerCount: 2
Fore
SplineSet
-137 579 m 1
 -185 553 l 1
 -211 598 l 1
 -267 640 -347 648 -434 648 c 1
 -434 703 l 1
 -380 703 -319 703 -262 685 c 1
 -340 820 l 1
 -292.018554688 848 l 1
 -137 579 l 1
EndSplineSet
Validated: 524289
EndChar

StartChar: ocandrasigndeva
Encoding: 331 2377 121
Width: 325
VWidth: 1000
GlyphClass: 2
Flags: HMW
LayerCount: 2
Fore
SplineSet
229 48 m 0
 242 48 252 53 258 63 c 1
 304 32 l 1
 286 6 261 -7 229 -7 c 0
 180 -7 140 33 140 82 c 2
 140 524 l 1
 -20 524 l 1
 -20 579 l 1
 344 579 l 1
 344 524 l 1
 195 524 l 1
 195 82 l 2
 195 64 210 48 229 48 c 0
269 773 m 1
 324 773 l 1
 324 689 243 634 163 634 c 0
 82 634 1 689 1 773 c 1
 56 773 l 1
 56 721 107 684 163 684 c 0
 218 684 269 721 269 773 c 1
EndSplineSet
Validated: 1
EndChar

StartChar: oshortsigndeva
Encoding: 332 2378 122
Width: 324
VWidth: 1000
GlyphClass: 2
Flags: HMW
LayerCount: 2
Fore
SplineSet
229 48 m 0
 242 48 252 53 258 63 c 1
 304 32 l 1
 286 6 261 -7 229 -7 c 0
 180 -7 140 33 140 82 c 2
 140 524 l 1
 -20 524 l 1
 -20 579 l 1
 140 579 l 1
 140 636 125 648 66 648 c 2
 -42 648 l 2
 -125 648 -171 692 -171 773 c 1
 -116 773 l 1
 -116 716 -100 704 -42 704 c 2
 66 704 l 2
 149 704 195 660 195 579 c 1
 344 579 l 1
 344 524 l 1
 195 524 l 1
 195 82 l 2
 195 64 210 48 229 48 c 0
EndSplineSet
Validated: 1
EndChar

StartChar: osigndeva
Encoding: 333 2379 123
Width: 324
VWidth: 1000
GlyphClass: 2
Flags: HMW
LayerCount: 2
Fore
SplineSet
229 48 m 0
 242 48 252 53 258 63 c 1
 304 32 l 1
 286 6 261 -7 229 -7 c 0
 180 -7 140 33 140 82 c 2
 140 524 l 1
 -20 524 l 1
 -20 579 l 1
 134 579 l 1
 5 801 l 1
 53 828 l 1
 197 579 l 1
 344 579 l 1
 344 524 l 1
 195 524 l 1
 195 82 l 2
 195 64 210 48 229 48 c 0
EndSplineSet
Validated: 1
EndChar

StartChar: ausigndeva
Encoding: 334 2380 124
Width: 324
VWidth: 1000
GlyphClass: 2
Flags: HMW
LayerCount: 2
Fore
SplineSet
229 48 m 0
 242 48 252 53 258 63 c 1
 304 32 l 1
 286 6 261 -7 229 -7 c 0
 180 -7 140 33 140 82 c 2
 140 524 l 1
 -20 524 l 1
 -20 579 l 1
 134 579 l 1
 129 583 123 587 118 590 c 0
 64 626 -13 629 -89 629 c 1
 -89 684 l 1
 -35 684 26 666 83 666 c 1
 5 801 l 1
 53 828 l 1
 197 579 l 1
 344 579 l 1
 344 524 l 1
 195 524 l 1
 195 82 l 2
 195 64 210 48 229 48 c 0
EndSplineSet
Validated: 1
EndChar

StartChar: viramadeva
Encoding: 335 2381 125
Width: 0
VWidth: 1000
GlyphClass: 4
Flags: HMW
AnchorPoint: "DVAnchor0" -186 0 mark 0
LayerCount: 2
Fore
SplineSet
-271 -176 m 1
 -315 -146.028320312 l 1
 -231 -43 l 1
 -210 -53 l 2
 -30 -137 -9 -285 -9 -288 c 2
 -64 -294 l 1
 -64 -294 -81 -179 -215 -107 c 1
 -271 -176 l 1
EndSplineSet
Validated: 524289
EndChar

StartChar: eprishthamatrasigndeva
Encoding: 336 2382 126
Width: 335
VWidth: 1000
GlyphClass: 2
Flags: HMW
LayerCount: 2
Fore
SplineSet
229 -7 m 0
 180 -7 140 33 140 82 c 2
 140 579 l 1
 355 579 l 1
 355 524 l 1
 195 524 l 1
 195 82 l 2
 195 64 211 48 229 48 c 0
 242 48 252 53 258 63 c 1
 304 32 l 1
 286 6 261 -7 229 -7 c 0
EndSplineSet
Validated: 1
EndChar

StartChar: awsigndeva
Encoding: 337 2383 127
Width: 324
VWidth: 1000
GlyphClass: 2
Flags: HMW
LayerCount: 2
Fore
SplineSet
-57 840 m 1
 -2 840 l 1
 -2 812 l 1
 15 812 l 2
 151 812 254 715 254 579 c 1
 344 579 l 1
 344 524 l 1
 195 524 l 1
 195 82 l 2
 195 64 210 48 229 48 c 0
 242 48 252 53 258 63 c 1
 304 32 l 1
 286 6 261 -7 229 -7 c 0
 180 -7 140 33 140 82 c 2
 140 524 l 1
 -20 524 l 1
 -20 579 l 1
 89 579 l 1
 89 636 74 648 15 648 c 2
 -38 648 l 2
 -121 648 -167 692 -167 773 c 1
 -112 773 l 1
 -112 716 -96 704 -38 704 c 2
 15 704 l 2
 98 704 144 660 144 579 c 1
 199 579 l 1
 199 690 119 762 15 762 c 2
 -30 762 l 2
 -42 762 -57 771 -57 786 c 2
 -57 840 l 1
EndSplineSet
Validated: 1
EndChar

StartChar: omdeva
Encoding: 338 2384 128
Width: 880
VWidth: 1000
GlyphClass: 2
Flags: HMW
LayerCount: 2
Fore
SplineSet
458.996048667 258 m 1
 460.996048667 248 462 239 462 228 c 0
 462 136 381 74 289 74 c 0
 166 74 64 168 23 265 c 1
 73 287 l 1
 107 209 189 129 289 129 c 0
 350 129 407 167 407 228 c 0
 407 326 321 332 234 332 c 2
 224 332 l 1
 224 386 l 1
 234 386 l 2
 320 386 350 432 350 472 c 0
 350 520 305 554 255 554 c 0
 204 554 163 524 141 491 c 1
 95 521 l 1
 126 567 184 609 255 609 c 0
 334 609 405 551 405 472 c 0
 405 435 387 399 364 376 c 1
 428 346 432 307 476 307 c 0
 512 307 537 332 566 360 c 0
 590 383 628 422 688 422 c 0
 750 422 791 380 811 345 c 0
 829 313 840 277 840 240 c 0
 840 156 779 74 684 74 c 0
 616 74 556 123 556 191 c 0
 556 242 591 282 635 294 c 1
 651 246 l 1
 631 240 611 221 611 191 c 0
 611 152 645 124 684 124 c 0
 739 124 785 174 785 240 c 0
 785 268 777 297 763 321 c 0
 747 349 720 372 688 372 c 0
 657 372 632 351 606 326 c 0
 580 301 542 257 476 257 c 0
 470 257 463.996048667 257 458.996048667 258 c 1
726 664 m 1
 781 664 l 1
 781 580 700 525 620 525 c 0
 539 525 458 580 458 664 c 1
 513 664 l 1
 513 612 564 575 620 575 c 0
 675 575 726 612 726 664 c 1
620 605 m 1
 565 660 l 1
 620 714 l 1
 674 660 l 1
 620 605 l 1
EndSplineSet
Validated: 524289
EndChar

StartChar: udattadeva
Encoding: 339 2385 129
Width: 0
VWidth: 1000
GlyphClass: 4
Flags: HMW
AnchorPoint: "DVAnchor3" -124 579 mark 0
LayerCount: 2
Fore
SplineSet
-151 634 m 1
 -151 800 l 1
 -96 800 l 1
 -96 634 l 1
 -151 634 l 1
EndSplineSet
Validated: 1
EndChar

StartChar: anudattadeva
Encoding: 340 2386 130
Width: 0
VWidth: 1000
GlyphClass: 4
Flags: HMW
LayerCount: 2
Fore
SplineSet
0 -60 m 1
 0 -114 l 1
 -500 -114 l 1
 -500 -60 l 1
 0 -60 l 1
EndSplineSet
Validated: 1
EndChar

StartChar: gravedeva
Encoding: 341 2387 131
Width: 0
VWidth: 1000
GlyphClass: 4
Flags: HMW
AnchorPoint: "DVAnchor3" -104 579 mark 0
LayerCount: 2
Fore
SplineSet
-90 654 m 1
 -125 619 l 1
 -251 744 l 1
 -208 787 l 1
 -90 654 l 1
EndSplineSet
Validated: 1
EndChar

StartChar: acutedeva
Encoding: 342 2388 132
Width: 0
VWidth: 1000
GlyphClass: 4
Flags: HMW
AnchorPoint: "DVAnchor3" -164 579 mark 0
LayerCount: 2
Fore
SplineSet
-181 654 m 1
 -62 787 l 1
 -20 744 l 1
 -145 619 l 1
 -181 654 l 1
EndSplineSet
Validated: 1
EndChar

StartChar: ecandralongsigndeva
Encoding: 343 2389 133
Width: 0
VWidth: 1000
GlyphClass: 4
Flags: HMW
AnchorPoint: "DVAnchor3" -168 579 mark 0
LayerCount: 2
Fore
SplineSet
-322 652 m 1
 -9 652 l 1
 -9 607 l 1
 -322 607 l 1
 -322 652 l 1
-59 800 m 1
 -4 800 l 1
 -4 716 -86 671 -166 671 c 0
 -246 671 -327 716 -327 800 c 1
 -272 800 l 1
 -272 748 -222 721 -166 721 c 0
 -110 721 -59 748 -59 800 c 1
EndSplineSet
Validated: 1
EndChar

StartChar: uesigndeva
Encoding: 344 2390 134
Width: 0
VWidth: 1000
GlyphClass: 4
Flags: HMW
AnchorPoint: "DVAnchor0" -133 -8 mark 0
LayerCount: 2
Fore
SplineSet
-294 -60 m 1
 -239 -60 l 1
 -239 -77 -206 -112 -130 -112 c 0
 -54 -112 -21 -77 -21 -60 c 1
 34 -60 l 1
 34 -123 -44 -162 -130 -162 c 0
 -216 -162 -294 -123 -294 -60 c 1
EndSplineSet
Validated: 1
EndChar

StartChar: uuesigndeva
Encoding: 345 2391 135
Width: 0
VWidth: 1000
GlyphClass: 4
Flags: HMW
AnchorPoint: "DVAnchor0" -129 -7 mark 0
LayerCount: 2
Fore
SplineSet
-294 -160 m 1
 -239 -160 l 1
 -239 -177 -206 -212 -130 -212 c 0
 -54 -212 -21 -177 -21 -160 c 1
 34 -160 l 1
 34 -223 -44 -262 -130 -262 c 0
 -216 -262 -294 -223 -294 -160 c 1
-294 -60 m 1
 -239 -60 l 1
 -239 -77 -206 -112 -130 -112 c 0
 -54 -112 -21 -77 -21 -60 c 1
 34 -60 l 1
 34 -123 -44 -162 -130 -162 c 0
 -216 -162 -294 -123 -294 -60 c 1
EndSplineSet
Validated: 1
EndChar

StartChar: qadeva
Encoding: 346 2392 136
Width: 728
VWidth: 1000
GlyphClass: 2
Flags: HMW
AnchorPoint: "DVAnchor3" 379 579 basechar 0
AnchorPoint: "DVAnchor0" 441 -7 basechar 0
LayerCount: 2
Fore
SplineSet
188 -71 m 1
 134 -16 l 1
 188 38 l 1
 242 -16 l 1
 188 -71 l 1
305 332 m 0
 305 283 265 243 216 243 c 0
 184 243 159 256 141 282 c 1
 187 313 l 1
 193 303 203 298 216 298 c 0
 235 298 250 313 250 332 c 0
 250 363 223 381 193 381 c 0
 140 381 91 329 91 276 c 0
 91 222 139 177 194 177 c 0
 283 177 337 280 353 336 c 1
 353 524 l 1
 -20 524 l 1
 -20 579 l 1
 748 579 l 1
 748 524 l 1
 408 524 l 1
 408 381 l 1
 439 410 483 436 533 436 c 0
 622 436 693 362 693 273 c 0
 693 189 634 122 546 122 c 1
 546 177 l 1
 602 177 638 219 638 273 c 0
 638 332 592 381 534 381 c 0
 479 381 436 342 408 304 c 1
 408 82 l 2
 408 63 423 48 442 48 c 0
 455 48 465 53 471 63 c 1
 517 32 l 1
 499 6 474 -7 442 -7 c 0
 393 -7 353 33 353 82 c 2
 353 220 l 1
 326 175 272 122 194 122 c 0
 108 122 36 191 36 276 c 0
 36 361 108 436 193 436 c 0
 252 436 305 395 305 332 c 0
EndSplineSet
Validated: 1
Ligature2: "Devanagari-'nukt' Nukta Forms lookup 5 subtable" kadeva nuktadeva
LCarets2: 1 0 
EndChar

StartChar: khhadeva
Encoding: 347 2393 137
Width: 845
VWidth: 1000
GlyphClass: 2
Flags: HMW
AnchorPoint: "DVAnchor3" 675 579 basechar 0
LayerCount: 2
Fore
SplineSet
118 -70 m 1
 64 -15 l 1
 118 39 l 1
 172 -15 l 1
 118 -70 l 1
739 48 m 0
 752 48 762 53 768 63 c 1
 814 32 l 1
 796 6 771 -7 739 -7 c 0
 690 -7 651 32 650 81 c 1
 574 30 483 -1 391 -1 c 0
 278 -1 163 45 98 138 c 0
 65 186 47 243 47 301 c 0
 47 321 50 338 58 353 c 1
 110 337 l 1
 110 337 103 326 103 312 c 0
 103 290 125 273 148 273 c 0
 184 273 203 303 203 340 c 2
 203 524 l 1
 -20 524 l 1
 -20 579 l 1
 865 579 l 1
 865 524 l 1
 705 524 l 1
 705 82 l 2
 705 64 721 48 739 48 c 0
116 223 m 1
 159 105 284 54 389 54 c 0
 484 54 578 90 650 149 c 1
 650 219 l 1
 622 174 569 122 491 122 c 0
 405 122 333 191 333 276 c 0
 333 361 405 436 490 436 c 0
 515 436 542 429 563 412 c 0
 576 402 586 388 593 373 c 0
 599 360 602 346 602 332 c 0
 602 307 593 286 576 269 c 0
 559 252 538 243 513 243 c 0
 481 243 456 256 438 282 c 1
 484 313 l 1
 490 303 500 298 513 298 c 0
 522 298 530 301 537 308 c 0
 544 315 547 323 547 332 c 0
 547 338 546 345 543 351 c 0
 540 358 535 363 529 368 c 0
 519 376 505 381 490 381 c 0
 437 381 388 329 388 276 c 0
 388 222 436 177 491 177 c 0
 580 177 634 280 650 336 c 1
 650 524 l 1
 258 524 l 1
 258 352 l 2
 258 277 223 218 148 218 c 0
 137 218 126 220 116 223 c 1
EndSplineSet
Validated: 1
Ligature2: "Devanagari-'nukt' Nukta Forms lookup 5 subtable" khadeva nuktadeva
LCarets2: 1 0 
EndChar

StartChar: ghhadeva
Encoding: 348 2394 138
Width: 667
VWidth: 1000
GlyphClass: 2
Flags: HMW
AnchorPoint: "DVAnchor3" 499 579 basechar 0
LayerCount: 2
Fore
SplineSet
138 -71 m 1
 84 -16 l 1
 138 38 l 1
 192 -16 l 1
 138 -71 l 1
191 296 m 1
 191 296 168 296 157 296 c 0
 110 296 90 281 90 250 c 0
 90 228 108 209 129 209 c 0
 166 209 184 258 191 296 c 1
-20 579 m 1
 687 579 l 1
 687 524 l 1
 527 524 l 1
 527 82 l 2
 527 63 542 48 561 48 c 0
 574 48 584 53 590 63 c 1
 636 32 l 1
 618 6 593 -7 561 -7 c 0
 512 -7 472 33 472 82 c 2
 472 524 l 1
 250 524 l 1
 250 351 l 2
 250 303 244 268 229 232 c 0
 216 200 186 154 129 154 c 0
 75 154 35 200 35 250 c 0
 35 324 98 351 159 351 c 2
 159 351 183 351 195 351 c 1
 195 524 l 1
 -20 524 l 1
 -20 579 l 1
EndSplineSet
Validated: 1
Ligature2: "Devanagari-'nukt' Nukta Forms lookup 5 subtable" gadeva nuktadeva
LCarets2: 1 0 
EndChar

StartChar: zadeva
Encoding: 349 2395 139
Width: 692
VWidth: 1000
GlyphClass: 2
Flags: HMW
AnchorPoint: "DVAnchor3" 559 579 basechar 0
LayerCount: 2
Fore
SplineSet
85 -71 m 1
 31 -16 l 1
 85 38 l 1
 139 -16 l 1
 85 -71 l 1
315 370 m 1
 351 331 390 274 390 204 c 0
 390 133 338 65 254 65 c 0
 171 65 120 125 88 174 c 0
 58 218 36 266 17 314 c 1
 68 331 l 1
 87 285 108 240 135 200 c 0
 163 159 197 115 254 115 c 0
 300 115 335 152 335 204 c 0
 335 277 283 334 239 370 c 1
 239 425 l 1
 497 425 l 1
 497 524 l 1
 -20 524 l 1
 -20 579 l 1
 712 579 l 1
 712 524 l 1
 552 524 l 1
 552 82 l 2
 552 63 567 48 586 48 c 0
 599 48 609 53 615 63 c 1
 661 32 l 1
 643 6 618 -7 586 -7 c 0
 537 -7 497 33 497 82 c 2
 497 370 l 1
 315 370 l 1
EndSplineSet
Validated: 1
Ligature2: "Devanagari-'nukt' Nukta Forms lookup 5 subtable" jadeva nuktadeva
LCarets2: 1 0 
EndChar

StartChar: dddhadeva
Encoding: 350 2396 140
Width: 536
VWidth: 1000
GlyphClass: 2
Flags: HMW
AnchorPoint: "DVAnchor3" 410 577 basechar 0
AnchorPoint: "DVAnchor0" 327 -8 basechar 0
LayerCount: 2
Fore
SplineSet
318 -165 m 1
 264 -110 l 1
 318 -56 l 1
 372 -110 l 1
 318 -165 l 1
-15 579 m 1
 551 579 l 1
 551 524 l 1
 439 524 l 1
 438 401 l 1
 438 401 286 401 242 401 c 0
 184 401 165 390 165 355 c 0
 165 333 186 315 210 293 c 2
 220 284 l 1
 311 284 l 2
 416 284 500 244 500 140 c 0
 500 48 419 -18 328 -18 c 0
 278 -18 233 -1 193 21 c 0
 121 62 61 119 8 179 c 1
 49 216 l 1
 100 159 156 105 220 69 c 0
 254 49 291 37 327 37 c 0
 388 37 445 80 445 140 c 0
 445 192 406 219 360 226 c 0
 345 228 329 229 311 229 c 2
 203 229 l 1
 171 258 l 2
 153 275 110 305 110 355 c 0
 110 444 186 451 242 451 c 2
 384 451 l 1
 384 524 l 1
 -15 524 l 1
 -15 579 l 1
EndSplineSet
Validated: 1
Ligature2: "Devanagari-'nukt' Nukta Forms lookup 5 subtable" ddadeva nuktadeva
LCarets2: 1 0 
EndChar

StartChar: rhadeva
Encoding: 351 2397 141
Width: 516
VWidth: 1000
GlyphClass: 2
Flags: HMW
AnchorPoint: "DVAnchor3" 410 577 basechar 0
AnchorPoint: "DVAnchor0" 324 -7 basechar 0
LayerCount: 2
Fore
SplineSet
298 -165 m 1
 244 -110 l 1
 298 -56 l 1
 352 -110 l 1
 298 -165 l 1
-20 579 m 1
 531 579 l 1
 531 524 l 1
 419 524 l 1
 419 370 l 1
 258 370 l 2
 168 370 106 344 106 269 c 0
 106 172 214 78 311 78 c 0
 374 78 422 118 422 183 c 0
 422 239 377 283 330 283 c 0
 300 283 275 264 275 236 c 0
 275 214 293 201 306 201 c 0
 310 201 315 202 321 206 c 1
 338 157 l 1
 328 153 317 151 306 151 c 0
 257 151 220 191 220 236 c 0
 220 296 276 333 330 333 c 0
 415 333 477 260 477 183 c 0
 477 92 403 28 311 28 c 0
 182 28 51 143 51 269 c 0
 51 385 160 420 258 420 c 2
 364 420 l 1
 364 524 l 1
 -20 524 l 1
 -20 579 l 1
EndSplineSet
Validated: 1
Ligature2: "Devanagari-'nukt' Nukta Forms lookup 5 subtable" ddhadeva nuktadeva
LCarets2: 1 0 
EndChar

StartChar: fadeva
Encoding: 352 2398 142
Width: 796
VWidth: 1000
GlyphClass: 2
Flags: HMW
AnchorPoint: "DVAnchor3" 438 579 basechar 0
AnchorPoint: "DVAnchor0" 501 -8 basechar 0
LayerCount: 2
Fore
SplineSet
147 -71 m 1
 93 -16 l 1
 147 38 l 1
 201 -16 l 1
 147 -71 l 1
406 350 m 1
 406 524 l 1
 152 524 l 1
 152 328 l 2
 152 252 198 220 255 220 c 0
 331 220 382 293 406 350 c 1
495 -7 m 0
 446 -7 406 33 406 82 c 2
 406 243 l 1
 373 200 325 165 255 165 c 0
 172 165 97 222 97 328 c 2
 97 524 l 1
 -20 524 l 1
 -20 579 l 1
 816 579 l 1
 816 524 l 1
 461 524 l 1
 461 381 l 1
 492 411 535 436 586 436 c 0
 675 436 746 362 746 273 c 0
 746 189 687 122 599 122 c 1
 599 177 l 1
 655 177 691 219 691 273 c 0
 691 332 645 381 587 381 c 0
 533 381 489 342 461 304 c 1
 461 82 l 2
 461 64 477 48 495 48 c 0
 508 48 518 53 524 63 c 1
 570 32 l 1
 552 6 527 -7 495 -7 c 0
EndSplineSet
Validated: 1
Ligature2: "Devanagari-'nukt' Nukta Forms lookup 5 subtable" phadeva nuktadeva
LCarets2: 1 0 
EndChar

StartChar: yyadeva
Encoding: 353 2399 143
Width: 632
VWidth: 1000
GlyphClass: 2
Flags: HMW
AnchorPoint: "DVAnchor3" 462 579 basechar 0
LayerCount: 2
Fore
SplineSet
186 -71 m 1
 132 -16 l 1
 186 38 l 1
 240 -16 l 1
 186 -71 l 1
526 -7 m 0
 477 -7 437 33 437 82 c 2
 437 182 l 1
 393 134 340 110 279 110 c 0
 142 110 72 222 61 255 c 1
 61 313 l 1
 83 313 l 2
 165 313 215 361 215 416 c 0
 215 492 174 519 164 524 c 1
 -20 524 l 1
 -20 579 l 1
 652 579 l 1
 652 524 l 1
 492 524 l 1
 492 82 l 2
 492 63 507 48 526 48 c 0
 539 48 549 53 555 63 c 1
 601 32 l 1
 583 6 558 -7 526 -7 c 0
279 165 m 0
 353 165 409 209 437 258 c 1
 437 524 l 1
 241 524 l 1
 257 499 271 464 271 416 c 0
 271 334 205 274 119 261 c 1
 147 211 204 165 279 165 c 0
EndSplineSet
Validated: 1
Ligature2: "Devanagari-'nukt' Nukta Forms lookup 5 subtable" yadeva nuktadeva
LCarets2: 1 0 
EndChar

StartChar: rrvocalicdeva
Encoding: 354 2400 144
Width: 754
VWidth: 1000
GlyphClass: 2
Flags: HMW
AnchorPoint: "DVAnchor3" 349 579 basechar 0
AnchorPoint: "DVAnchor0" 413 -7 basechar 0
LayerCount: 2
Fore
SplineSet
511 325 m 1
 546 336 587 351 587 395 c 0
 587 418 569 436 547 437 c 0
 516 437 493 407 493 375 c 0
 493 357 497 340 511 325 c 1
686 113 m 1
 730 84 l 1
 704 52 663 26 609 26 c 0
 534 26 474 80 474 153 c 0
 474 188 488 217 509 238 c 1
 492 261 l 1
 440 244 378 225 378 225 c 1
 378 82 l 2
 378 63 393 48 412 48 c 0
 425 48 435 53 441 63 c 1
 487 32 l 1
 469 6 444 -7 412 -7 c 0
 363 -7 323 33 323 82 c 2
 323 209 l 1
 108 148 l 1
 93 201 l 1
 274 252 l 1
 264 273 218 356 154 377 c 0
 129 385 97 386 65 386 c 1
 65 441 l 1
 101 441 137 439 170 429 c 0
 264 401 313 295 323 271 c 1
 323 524 l 1
 -15 524 l 1
 -15 579 l 1
 769 579 l 1
 769 524 l 1
 378 524 l 1
 378 283 l 1
 456 307 l 1
 443 327 438 351 438 375 c 0
 438 436 484 492 546 492 c 0
 600 492 642 449 642 395 c 0
 642 330 597 298 547 279 c 1
 559 263 l 1
 588 227 l 1
 568 217 l 2
 546 206 529 185 529 153 c 0
 529 106 564 76 609 76 c 0
 643 76 669 90 686 113 c 1
EndSplineSet
Validated: 1
EndChar

StartChar: llvocalicdeva
Encoding: 355 2401 145
Width: 708
VWidth: 1000
GlyphClass: 2
Flags: HMW
LayerCount: 2
Fore
SplineSet
-15 579 m 1
 723 579 l 1
 723 524 l 1
 460 524 l 1
 460 423 l 1
 537 412 602 346 602 263 c 0
 602 137 483 97 430 25 c 0
 416 6 407 -13 407 -39 c 0
 407 -99 461 -136 517 -136 c 0
 535 -136 551.999998735 -131 566.999998735 -124 c 1
 594 -173 l 1
 571 -185 545 -191 517 -191 c 0
 495 -192 478 -191 466 -195 c 0
 451 -200 440 -211 440 -232 c 0
 440 -269 475 -295 517 -295 c 0
 558 -295 596 -263 614 -235 c 1
 648 -276 l 1
 623 -311 573 -345 517 -345 c 0
 452 -345 385 -303 385 -232 c 0
 385 -201 399 -177 420 -162 c 1
 380 -136 352 -93 352 -39 c 0
 352 33 399 78 439 112 c 0
 484 150 547 190 547 263 c 0
 547 324 495 370 434 370 c 0
 366 370 312 318 312 249 c 1
 257 249 l 1
 257 285 267 318 284 345 c 1
 267 363 244 375 213 375 c 0
 140 375 95 312 95 239 c 0
 95 139 176 49 251 7 c 1
 224 -41 l 1
 135 9 40 115 40 239 c 0
 40 344 117 430 212 430 c 0
 258 430 294 412 321 386 c 1
 344 405 374 418 405 423 c 1
 405 524 l 1
 -15 524 l 1
 -15 579 l 1
EndSplineSet
Validated: 524289
EndChar

StartChar: lvocalicsigndeva
Encoding: 356 2402 146
Width: 0
VWidth: 1000
GlyphClass: 4
Flags: HMW
AnchorPoint: "DVAnchor0" -246 1 mark 0
LayerCount: 2
Fore
SplineSet
-259 -165 m 2
 -313 -172 l 1
 -314 -167 -314 -161 -314 -156 c 0
 -314 -138 -310 -120 -303 -105 c 1
 -307 -93 -318 -85 -330 -85 c 0
 -351 -85 -371 -107 -371 -145 c 0
 -371 -196 -341 -238 -309 -266 c 1
 -347 -302 l 1
 -384 -269 -426 -215 -426 -145 c 0
 -426 -97 -398 -35 -330 -35 c 0
 -303 -35 -282 -46 -267 -62 c 1
 -248 -48 -224 -40 -198 -40 c 0
 -132 -40 -84 -94 -84 -153 c 0
 -84 -228 -146 -263 -155 -294 c 0
 -156 -298 -157 -302 -157 -306 c 0
 -157 -333 -138.002929688 -348 -108.002929688 -348 c 0
 -83.002929688 -348 -63 -339 -43 -322 c 1
 -5 -359 l 1
 -32 -382 -66.002929688 -398 -108.002929688 -398 c 0
 -162.002929688 -398 -212 -363 -212 -306 c 0
 -212 -297 -211 -289 -209 -281 c 0
 -190 -215 -139 -200 -139 -153 c 0
 -139 -117 -168 -90 -198 -90 c 0
 -230 -90 -259 -116 -259 -156 c 0
 -259 -159 -259 -162 -259 -165 c 2
EndSplineSet
Validated: 524289
EndChar

StartChar: llvocalicsigndeva
Encoding: 357 2403 147
Width: 0
VWidth: 1000
GlyphClass: 4
Flags: HMW
AnchorPoint: "DVAnchor0" -236 0 mark 0
LayerCount: 2
Fore
SplineSet
-73 -237 m 1
 -53 -283 l 1
 -64 -287 -75 -289 -87 -289 c 0
 -105 -289 -124.98 -284 -140.98 -273 c 1
 -149.98 -277 -160 -288.016601562 -160 -303.016601562 c 0
 -160 -332.016601562 -133 -350 -97 -350 c 0
 -73 -350 -48 -342 -26 -329 c 1
 0 -373 l 1
 -29 -389 -62 -400 -97 -400 c 0
 -151 -400 -215 -369.016601562 -215 -303.016601562 c 0
 -215 -271.016601562 -196 -243 -169 -230 c 0
 -169 -227 -170 -224 -170 -221 c 0
 -170 -167 -133 -152 -133 -137 c 0
 -133 -112 -160 -92 -189 -92 c 0
 -219 -92 -247 -119 -247 -160 c 0
 -247 -163 -246 -165.00390625 -246 -168.00390625 c 2
 -301 -173 l 2
 -301 -169 -302 -164 -302 -160 c 0
 -302 -141 -298 -122 -289 -105 c 1
 -294 -94 -304 -87 -315 -87 c 0
 -336 -87 -356 -108 -356 -146 c 0
 -356 -197 -326 -240 -294 -268 c 1
 -332 -304 l 1
 -369 -271 -411 -216 -411 -146 c 0
 -411 -98 -383 -37 -315 -37 c 0
 -289 -37 -268 -48 -253 -63 c 1
 -235 -50 -214 -42 -189 -42 c 0
 -136 -42 -78 -78 -78 -137 c 0
 -78 -191 -115 -203 -115 -221 c 0
 -115 -230 -105 -239 -87 -239 c 0
 -82 -239 -78 -239 -73 -237 c 1
EndSplineSet
Validated: 524289
EndChar

StartChar: danda
Encoding: 358 2404 148
Width: 299
VWidth: 1000
GlyphClass: 2
Flags: HMW
LayerCount: 2
Fore
SplineSet
122 -55 m 1
 122 579 l 1
 177 579 l 1
 177 -55 l 1
 122 -55 l 1
EndSplineSet
Validated: 1
EndChar

StartChar: dbldanda
Encoding: 359 2405 149
Width: 530
VWidth: 1000
GlyphClass: 2
Flags: HMW
LayerCount: 2
Fore
SplineSet
122 579 m 1
 177 579 l 1
 177 -55 l 1
 122 -55 l 1
 122 579 l 1
353 -55 m 1
 353 579 l 1
 408 579 l 1
 408 -55 l 1
 353 -55 l 1
EndSplineSet
Validated: 1
EndChar

StartChar: zerodeva
Encoding: 360 2406 150
Width: 500
VWidth: 1000
GlyphClass: 2
Flags: HMW
LayerCount: 2
Fore
SplineSet
90 265 m 0
 90 163 165 88 250 88 c 0
 335 88 410 163 410 265 c 0
 410 367 335 442 250 442 c 0
 165 442 90 367 90 265 c 0
34 265 m 0
 34 387 127 492 250 492 c 0
 373 492 466 387 466 265 c 0
 466 143 373 38 250 38 c 0
 127 38 34 143 34 265 c 0
EndSplineSet
Validated: 1
EndChar

StartChar: onedeva
Encoding: 361 2407 151
Width: 500
VWidth: 1000
GlyphClass: 2
Flags: HMW
LayerCount: 2
Fore
SplineSet
206 275 m 1
 159 311 101 367 101 444 c 0
 101 522 168 583 248 583 c 0
 330 583 399 520 399 441 c 0
 399 362 339 312 299 280 c 0
 260 250 182 192 182 192 c 1
 182 192 229 148 253 124 c 0
 274 104 306 71 306 23 c 0
 306 -11 288 -38 262 -54 c 1
 232 -12 l 1
 243 -6 251 5 251 23 c 0
 251 50 233 70 213 90 c 2
 105 198 l 1
 206 275 l 1
250 308 m 1
 292 340 344 381 344 441 c 0
 344 493 298 533 248 533 c 0
 200 533 156 495 156 444 c 0
 156 384 211 336 250 308 c 1
EndSplineSet
Validated: 1
EndChar

StartChar: twodeva
Encoding: 362 2408 152
Width: 500
VWidth: 1000
GlyphClass: 2
Flags: HMW
LayerCount: 2
Fore
SplineSet
200 148 m 0
 132 148 62 184 62 260 c 0
 62 307 99 347 152 347 c 0
 196 347 224 322 242 305 c 0
 266 282 286 255 304 229 c 1
 358 261 400 315 400 381 c 0
 400 416 389 446 368 471 c 0
 338 506 293 529 232 529 c 0
 167 529 123 506 84 470 c 1
 44 506 l 1
 90 548 151 579 232 579 c 0
 310 579 371 547 410 501 c 0
 438 468 456 427 456 381 c 0
 456 294 399 226 334 187 c 1
 375 128 411 66 444 2 c 1
 396 -19 l 1
 364 44 325 105 284 164 c 1
 260 155 230 148 200 148 c 0
116 260 m 0
 116 220 151 198 200 198 c 0
 217 198 237 201 254 207 c 1
 237 230 221 252 202 271 c 0
 186 287 171 297 152 297 c 0
 133 297 116 284 116 260 c 0
EndSplineSet
Validated: 1
EndChar

StartChar: threedeva
Encoding: 363 2409 153
Width: 500
VWidth: 1000
GlyphClass: 2
Flags: HMW
LayerCount: 2
Fore
SplineSet
430 192 m 0
 430 105 373 52 318 18 c 1
 336 -8 370 -60 370 -60 c 1
 322 -85 l 1
 322 -85 287 -31 268 -5 c 1
 246 -14 219 -20 192 -20 c 0
 134 -20 70 14 70 80 c 0
 70 123 103 161 152 161 c 0
 196 161 224 135 240 118 c 0
 258 100 274 80 288 60 c 1
 330 85 376 129 376 192 c 0
 376 267 311 315 232 315 c 2
 190 315 l 1
 190 365 l 1
 232 365 l 2
 297 365 350 394 350 450 c 0
 350 503 295 539 240 539 c 0
 206 539 171 527 144 505 c 1
 108 543 l 1
 144 572 192 589 240 589 c 0
 316 589 406 539 406 450 c 0
 406 398 377 362 338 340 c 1
 393 311 430 260 430 192 c 0
236 40 m 1
 224 57 210 73 196 87 c 0
 181 103 167 113 150 113 c 0
 135 113 122 103 122 82 c 0
 122 51 150 32 190 32 c 0
 204 32 217 35 232 39 c 0
 233 39 235 40 236 40 c 1
EndSplineSet
Validated: 1
EndChar

StartChar: fourdeva
Encoding: 364 2410 154
Width: 500
VWidth: 1000
GlyphClass: 2
Flags: HMW
LayerCount: 2
Fore
SplineSet
87 165 m 0
 87 257 147 309 201 345 c 1
 138 384 60 472 60 579 c 1
 115 579 l 1
 115 492 182 409 250 375 c 1
 318 409 385 492 385 579 c 1
 440 579 l 1
 440 472 362 384 299 345 c 1
 353 309 412 254 412 165 c 0
 412 146 409 128 403 110 c 0
 383 54 326 2 249 2 c 0
 155 2 87 75 87 165 c 0
249 52 m 0
 310 52 357 100 357 165 c 0
 357 242 301 282 250 315 c 1
 200 283 158 250 145 194 c 0
 143 185 142 175 142 165 c 0
 142 97 189 52 249 52 c 0
EndSplineSet
Validated: 1
EndChar

StartChar: fivedeva
Encoding: 365 2411 155
Width: 500
VWidth: 1000
GlyphClass: 2
Flags: HMW
LayerCount: 2
Fore
SplineSet
442 -67 m 1
 414 -23 l 1
 423 -18 432 -9 432 8 c 0
 432 27 422 42 410 60 c 0
 385 98 363 137 336 172 c 1
 313 164 290 161 266 161 c 0
 126 161 14 274 14 407 c 0
 14 473 43 537 92 582 c 1
 130 546 l 1
 92 511 68 461 68 407 c 0
 68 299 161 211 266 211 c 0
 278 211 288 212 300 215 c 1
 281 239 262 270 262 309 c 0
 262 354 297 401 352 401 c 0
 410 401 444 351 444 304 c 0
 444 255 414 219 384 197 c 1
 411 161 434 123 458 86 c 0
 469 69 486 43 486 8 c 0
 486 -26 468 -53 442 -67 c 1
352 237 m 1
 373 252 390 275 390 304 c 0
 390 333 369 351 352 351 c 0
 336 351 317.98828125 335 317.98828125 309 c 0
 317.98828125 284 333 261 352 237 c 1
EndSplineSet
Validated: 524289
Substitution2: "Devanagari-'locl' Localized Forms lookup 3 subtable" fivedeva.np
EndChar

StartChar: sixdeva
Encoding: 366 2412 156
Width: 500
VWidth: 1000
GlyphClass: 2
Flags: HMW
LayerCount: 2
Fore
SplineSet
358 51 m 1
 378 64 393 83 393 109 c 0
 393 131 379 141 368 141 c 0
 361 141 343 128 343 102 c 0
 343 83 349 67 358 51 c 1
250 315 m 2
 173 315 107 270 107 197 c 0
 107 109 203 30 289 30 c 0
 295 30 301 31 307 32 c 1
 297 51 288 74 288 102 c 0
 288 141 315 191 368 191 c 0
 419 191 448 149 448 109 c 0
 448 60 416 27 386 8 c 1
 402 -15 418 -38 435 -62 c 1
 389 -89 l 1
 372 -65 354 -40 336 -14 c 1
 321 -18 304 -20 289 -20 c 0
 169 -20 52 77 52 197 c 0
 52 264 94 313 145 340 c 1
 106 362 77 398 77 450 c 0
 77 539 167 589 243 589 c 0
 291 589 338 572 374 543 c 1
 338 505 l 1
 311 527 277 539 243 539 c 0
 188 539 132 503 132 450 c 0
 132 394 185 365 250 365 c 2
 290 365 l 1
 290 315 l 1
 250 315 l 2
EndSplineSet
Validated: 1
EndChar

StartChar: sevendeva
Encoding: 367 2413 157
Width: 500
VWidth: 1000
GlyphClass: 2
Flags: HMW
LayerCount: 2
Fore
SplineSet
330 433 m 0
 429 433 484 339 484 243 c 0
 484 194 470 144 444 102 c 0
 411 49 349 -4 262 -4 c 0
 217 -4 173 11 138 36 c 0
 57 94 16 205 16 321 c 0
 16 412 42 503 76 579 c 1
 126 560 l 1
 94 489 70 405 70 321 c 0
 70 215 111 120 172 76 c 0
 199 57 231 46 262 46 c 0
 350 46 411 121 426 200 c 1
 404 185 375 175 344 175 c 0
 267 175 204 233 204 308 c 0
 204 376 259 433 330 433 c 0
426 283 m 1
 417 333 384 383 330 383 c 0
 294 383 258 353 258 308 c 0
 258 259 299 225 344 225 c 0
 382 225 414 250 426 283 c 1
EndSplineSet
Validated: 1
EndChar

StartChar: eightdeva
Encoding: 368 2414 158
Width: 500
VWidth: 1000
GlyphClass: 2
Flags: HMW
LayerCount: 2
Fore
SplineSet
282 583 m 1
 326 553 l 1
 275 490 223 428 178 362 c 0
 144 312 110 255 110 184 c 0
 110 104 166 44 236 44 c 0
 321 44 374 115 392 186 c 1
 446 175 l 1
 425 85 351 -6 236 -6 c 0
 127 -6 54 85 54 184 c 0
 54 270 97 337 132 388 c 0
 178 456 232 520 282 583 c 1
EndSplineSet
Validated: 1
Substitution2: "Devanagari-'locl' Localized Forms lookup 3 subtable" eightdeva.np
EndChar

StartChar: ninedeva
Encoding: 369 2415 159
Width: 500
VWidth: 1000
GlyphClass: 2
Flags: HMW
LayerCount: 2
Fore
SplineSet
380 -53 m 1
 350 -11 l 1
 360 -5 368 6 368 23 c 0
 368 50 350 70 330 92 c 0
 266 164 201 238 138 312 c 0
 113 342 78 384 78 444 c 0
 78 522 145 584 226 584 c 0
 306 584 374 523 374 445 c 0
 374 400 352 363 328 333 c 0
 305 305 279 282 250 262 c 1
 250 262 333 169 372 124 c 0
 390 103 422 71 422 23 c 0
 422 -10 406 -38 380 -53 c 1
216 301 m 1
 242 319 265 340 284 363 c 0
 305 388 320 415 320 445 c 0
 320 497 275 534 226 534 c 0
 177 534 132 496 132 444 c 0
 132 403 157 371 182 342 c 0
 193 329 204 315 216 301 c 1
EndSplineSet
Validated: 1
EndChar

StartChar: abbreviationsigndeva
Encoding: 370 2416 160
Width: 382
VWidth: 1000
GlyphClass: 2
Flags: HMW
LayerCount: 2
Fore
SplineSet
94 287 m 0
 94 230 140 188 191 188 c 0
 242 188 288 230 288 287 c 0
 288 344 242 386 191 386 c 0
 140 386 94 344 94 287 c 0
40 287 m 0
 40 368 105 436 191 436 c 0
 277 436 342 368 342 287 c 0
 342 206 277 138 191 138 c 0
 105 138 40 206 40 287 c 0
EndSplineSet
Validated: 1
EndChar

StartChar: highspacingdotdeva
Encoding: 371 2417 161
Width: 335
VWidth: 1000
GlyphClass: 2
Flags: HMW
LayerCount: 2
Fore
SplineSet
128 634 m 1
 128 714 l 1
 208 714 l 1
 208 634 l 1
 128 634 l 1
EndSplineSet
Validated: 1
EndChar

StartChar: acandradeva
Encoding: 372 2418 162
Width: 811
VWidth: 1000
GlyphClass: 2
Flags: HMW
LayerCount: 2
Fore
SplineSet
743 773 m 1
 798 773 l 1
 798 689 717 634 637 634 c 0
 556 634 475 689 475 773 c 1
 530 773 l 1
 530 721 581 684 637 684 c 0
 692 684 743 721 743 773 c 1
469 228 m 0
 469 136 388 74 296 74 c 0
 173 74 71 168 30 265 c 1
 80 287 l 1
 114 209 196 129 296 129 c 0
 357 129 414 167 414 228 c 0
 414 326 328 332 241 332 c 2
 231 332 l 1
 231 386 l 1
 241 386 l 2
 327 386 357 432 357 472 c 0
 357 520 312 554 262 554 c 0
 211 554 170 524 148 491 c 1
 102 521 l 1
 133 567 191 609 262 609 c 0
 341 609 412 551 412 472 c 0
 412 435 394 399 371 376 c 1
 387 369 405 356 418 343 c 0
 442 320 475 306 507 306 c 0
 559 306 596 337 616 363 c 1
 616 524 l 1
 502 524 l 1
 502 579 l 1
 831 579 l 1
 831 524 l 1
 671 524 l 1
 671 82 l 2
 671 63 686 48 705 48 c 0
 718 48 728 53 734 63 c 1
 780 32 l 1
 762 6 737 -7 705 -7 c 0
 654 -7 616 34 616 82 c 2
 616 291 l 1
 585 269 546 256 507 256 c 0
 493 256 479 258 466 261 c 1
 468 252 469 242 469 228 c 0
EndSplineSet
Validated: 1
EndChar

StartChar: oedeva
Encoding: 373 2419 163
Width: 811
VWidth: 1000
GlyphClass: 2
Flags: HMW
AnchorPoint: "DVAnchor3" 643 684 basechar 0
LayerCount: 2
Fore
SplineSet
469 228 m 0
 469 136 388 74 296 74 c 0
 173 74 71 168 30 265 c 1
 80 287 l 1
 114 209 196 129 296 129 c 0
 357 129 414 167 414 228 c 0
 414 326 328 332 241 332 c 2
 231 332 l 1
 231 386 l 1
 241 386 l 2
 327 386 357 432 357 472 c 0
 357 520 312 554 262 554 c 0
 211 554 170 524 148 491 c 1
 102 521 l 1
 133 567 191 609 262 609 c 0
 341 609 412 551 412 472 c 0
 412 435 394 399 371 376 c 1
 387 369 405 356 418 343 c 0
 442 320 475 306 507 306 c 0
 559 306 596 337 616 363 c 1
 616 524 l 1
 502 524 l 1
 502 579 l 1
 616 579 l 1
 616 684 l 1
 671 684 l 1
 671 579 l 1
 831 579 l 1
 831 524 l 1
 671 524 l 1
 671 82 l 2
 671 63 686 48 705 48 c 0
 718 48 728 53 734 63 c 1
 780 32 l 1
 762 6 737 -7 705 -7 c 0
 654 -7 616 34 616 82 c 2
 616 291 l 1
 585 269 546 256 507 256 c 0
 493 256 479 258 466 261 c 1
 468 252 469 242 469 228 c 0
EndSplineSet
Validated: 1
EndChar

StartChar: ooedeva
Encoding: 374 2420 164
Width: 1043
VWidth: 1000
GlyphClass: 2
Flags: HMW
LayerCount: 2
Fore
SplineSet
469 228 m 0
 469 136 388 74 296 74 c 0
 173 74 71 168 30 265 c 1
 80 287 l 1
 114 209 196 129 296 129 c 0
 357 129 414 167 414 228 c 0
 414 326 328 332 241 332 c 2
 231 332 l 1
 231 386 l 1
 241 386 l 2
 327 386 357 432 357 472 c 0
 357 520 312 554 262 554 c 0
 211 554 170 524 148 491 c 1
 102 521 l 1
 133 567 191 609 262 609 c 0
 341 609 412 551 412 472 c 0
 412 435 394 399 371 376 c 1
 387 369 405 356 418 343 c 0
 442 320 475 306 507 306 c 0
 559 306 596 337 616 363 c 1
 616 524 l 1
 502 524 l 1
 502 579 l 1
 848 579 l 1
 848 684 l 1
 903 684 l 1
 903 579 l 1
 1063 579 l 1
 1063 524 l 1
 903 524 l 1
 903 82 l 2
 903 63 918 48 937 48 c 0
 950 48 960 53 966 63 c 1
 1012 32 l 1
 994 6 969 -7 937 -7 c 0
 886 -7 848 34 848 82 c 2
 848 524 l 1
 671 524 l 1
 671 82 l 2
 671 63 686 48 705 48 c 0
 718 48 728 53 734 63 c 1
 780 32 l 1
 762 6 737 -7 705 -7 c 0
 654 -7 616 34 616 82 c 2
 616 291 l 1
 585 269 546 256 507 256 c 0
 493 256 479 258 466 261 c 1
 468 252 469 242 469 228 c 0
EndSplineSet
Validated: 1
EndChar

StartChar: awdeva
Encoding: 375 2421 165
Width: 1043
VWidth: 1000
GlyphClass: 2
Flags: HMW
LayerCount: 2
Fore
SplineSet
647 840 m 1
 702 840 l 1
 702 812 l 1
 719 812 l 2
 855 812 958 715 958 579 c 1
 1063 579 l 1
 1063 524 l 1
 903 524 l 1
 903 82 l 2
 903 63 918 48 937 48 c 0
 950 48 960 53 966 63 c 1
 1012 32 l 1
 994 6 969 -7 937 -7 c 0
 886 -7 848 34 848 82 c 2
 848 524 l 1
 671 524 l 1
 671 82 l 2
 671 63 686 48 705 48 c 0
 718 48 728 53 734 63 c 1
 780 32 l 1
 762 6 737 -7 705 -7 c 0
 654 -7 616 34 616 82 c 2
 616 291 l 1
 585 269 546 256 507 256 c 0
 493 256 479 258 466 261 c 1
 468 252 469 242 469 228 c 0
 469 136 388 74 296 74 c 0
 173 74 71 168 30 265 c 1
 80 287 l 1
 114 209 196 129 296 129 c 0
 357 129 414 167 414 228 c 0
 414 326 328 332 241 332 c 2
 231 332 l 1
 231 386 l 1
 241 386 l 2
 327 386 357 432 357 472 c 0
 357 520 312 554 262 554 c 0
 211 554 170 524 148 491 c 1
 102 521 l 1
 133 567 191 609 262 609 c 0
 341 609 412 551 412 472 c 0
 412 435 394 399 371 376 c 1
 387 369 405 356 418 343 c 0
 442 320 475 306 507 306 c 0
 559 306 596 337 616 363 c 1
 616 524 l 1
 502 524 l 1
 502 579 l 1
 793 579 l 1
 793 636 778 648 719 648 c 2
 666 648 l 2
 583 648 537 692 537 773 c 1
 592 773 l 1
 592 716 608 704 666 704 c 2
 719 704 l 2
 802 704 848 660 848 579 c 1
 903 579 l 1
 903 690 823 762 719 762 c 2
 674 762 l 2
 662 762 647 771 647 786 c 2
 647 840 l 1
EndSplineSet
Validated: 1
EndChar

StartChar: uedeva
Encoding: 376 2422 166
Width: 811
VWidth: 1000
GlyphClass: 2
Flags: HMW
AnchorPoint: "DVAnchor0" 635 578 basechar 0
LayerCount: 2
Fore
SplineSet
500 -60 m 1
 555 -60 l 1
 555 -77 588 -112 664 -112 c 0
 740 -112 773 -77 773 -60 c 1
 828 -60 l 1
 828 -123 750 -162 664 -162 c 0
 578 -162 500 -123 500 -60 c 1
469 228 m 0
 469 136 388 74 296 74 c 0
 173 74 71 168 30 265 c 1
 80 287 l 1
 114 209 196 129 296 129 c 0
 357 129 414 167 414 228 c 0
 414 326 328 332 241 332 c 2
 231 332 l 1
 231 386 l 1
 241 386 l 2
 327 386 357 432 357 472 c 0
 357 520 312 554 262 554 c 0
 211 554 170 524 148 491 c 1
 102 521 l 1
 133 567 191 609 262 609 c 0
 341 609 412 551 412 472 c 0
 412 435 394 399 371 376 c 1
 387 369 405 356 418 343 c 0
 442 320 475 306 507 306 c 0
 559 306 596 337 616 363 c 1
 616 524 l 1
 502 524 l 1
 502 579 l 1
 831 579 l 1
 831 524 l 1
 671 524 l 1
 671 82 l 2
 671 63 686 48 705 48 c 0
 718 48 728 53 734 63 c 1
 780 32 l 1
 762 6 737 -7 705 -7 c 0
 654 -7 616 34 616 82 c 2
 616 291 l 1
 585 269 546 256 507 256 c 0
 493 256 479 258 466 261 c 1
 468 252 469 242 469 228 c 0
EndSplineSet
Validated: 1
EndChar

StartChar: uuedeva
Encoding: 377 2423 167
Width: 811
VWidth: 1000
GlyphClass: 2
Flags: HMW
AnchorPoint: "DVAnchor0" 640 578 basechar 0
LayerCount: 2
Fore
SplineSet
495 -160 m 1
 550 -160 l 1
 550 -177 583 -212 659 -212 c 0
 735 -212 768 -177 768 -160 c 1
 823 -160 l 1
 823 -223 745 -262 659 -262 c 0
 573 -262 495 -223 495 -160 c 1
495 -60 m 1
 550 -60 l 1
 550 -77 583 -112 659 -112 c 0
 735 -112 768 -77 768 -60 c 1
 823 -60 l 1
 823 -123 745 -162 659 -162 c 0
 573 -162 495 -123 495 -60 c 1
469 228 m 0
 469 136 388 74 296 74 c 0
 173 74 71 168 30 265 c 1
 80 287 l 1
 114 209 196 129 296 129 c 0
 357 129 414 167 414 228 c 0
 414 326 328 332 241 332 c 2
 231 332 l 1
 231 386 l 1
 241 386 l 2
 327 386 357 432 357 472 c 0
 357 520 312 554 262 554 c 0
 211 554 170 524 148 491 c 1
 102 521 l 1
 133 567 191 609 262 609 c 0
 341 609 412 551 412 472 c 0
 412 435 394 399 371 376 c 1
 387 369 405 356 418 343 c 0
 442 320 475 306 507 306 c 0
 559 306 596 337 616 363 c 1
 616 524 l 1
 502 524 l 1
 502 579 l 1
 831 579 l 1
 831 524 l 1
 671 524 l 1
 671 82 l 2
 671 63 686 48 705 48 c 0
 718 48 728 53 734 63 c 1
 780 32 l 1
 762 6 737 -7 705 -7 c 0
 654 -7 616 34 616 82 c 2
 616 291 l 1
 585 269 546 256 507 256 c 0
 493 256 479 258 466 261 c 1
 468 252 469 242 469 228 c 0
EndSplineSet
Validated: 1
EndChar

StartChar: zhadeva
Encoding: 378 2425 168
Width: 692
VWidth: 1000
GlyphClass: 2
Flags: HMW
LayerCount: 2
Fore
SplineSet
106 -79 m 1
 52 -24 l 1
 106 30 l 1
 160 -24 l 1
 106 -79 l 1
231 -187 m 1
 177 -132 l 1
 231 -78 l 1
 285 -132 l 1
 231 -187 l 1
354 -79 m 1
 300 -24 l 1
 354 30 l 1
 408 -24 l 1
 354 -79 l 1
315 370 m 1
 351 331 390 274 390 204 c 0
 390 133 338 65 254 65 c 0
 171 65 120 125 88 174 c 0
 58 218 36 266 17 314 c 1
 68 331 l 1
 87 285 108 240 135 200 c 0
 163 159 197 115 254 115 c 0
 300 115 335 152 335 204 c 0
 335 277 283 334 239 370 c 1
 239 425 l 1
 497 425 l 1
 497 524 l 1
 -20 524 l 1
 -20 579 l 1
 712 579 l 1
 712 524 l 1
 552 524 l 1
 552 82 l 2
 552 63 567 48 586 48 c 0
 599 48 609 53 615 63 c 1
 661 32 l 1
 643 6 618 -7 586 -7 c 0
 537 -7 497 33 497 82 c 2
 497 370 l 1
 315 370 l 1
EndSplineSet
Validated: 1
EndChar

StartChar: yaheavydeva
Encoding: 379 2426 169
Width: 671
VWidth: 1000
GlyphClass: 2
Flags: HMW
AnchorPoint: "DVAnchor3" 498 579 basechar 0
AnchorPoint: "DVAnchor0" 560 -6 basechar 0
LayerCount: 2
Fore
SplineSet
472 260 m 1
 472 524 l 1
 276 524 l 1
 291 501 304 469 306 426 c 1
 472 260 l 1
439 215 m 1
 295 360 l 1
 273 308 219 271 154 261 c 1
 182 211 239 165 314 165 c 0
 365 165 408 186 439 215 c 1
561 -7 m 0
 512 -7 472 33 472 82 c 2
 472 182 l 1
 428 134 375 110 314 110 c 0
 177 110 107 222 96 255 c 1
 96 313 l 1
 118 313 l 2
 200 313 250 361 250 416 c 0
 250 492 209 519 199 524 c 1
 -15 524 l 1
 -15 579 l 1
 686 579 l 1
 686 524 l 1
 527 524 l 1
 527 82 l 2
 527 63 542 48 561 48 c 0
 574 48 584 53 590 63 c 1
 636 32 l 1
 618 6 593 -7 561 -7 c 0
EndSplineSet
Validated: 1
EndChar

StartChar: ggadeva
Encoding: 380 2427 170
Width: 667
VWidth: 1000
GlyphClass: 2
Flags: HMW
AnchorPoint: "DVAnchor3" 498 579 basechar 0
LayerCount: 2
Fore
SplineSet
129 209 m 0
 166 209 183 258 190 296 c 1
 157 296 l 2
 110 296 90 281 90 250 c 0
 90 228 108 209 129 209 c 0
527 35 m 2
 527 -14 487 -54 438 -54 c 2
 69 -54 l 1
 69 0 l 1
 438 0 l 2
 457 0 472 16 472 35 c 2
 472 524 l 1
 250 524 l 1
 250 351 l 2
 250 260 216 154 128 154 c 0
 74 154 34 200 34 250 c 0
 34 325 101 351 159 351 c 2
 194 351 l 1
 194 524 l 1
 -20 524 l 1
 -20 579 l 1
 687 579 l 1
 687 524 l 1
 527 524 l 1
 527 35 l 2
EndSplineSet
Validated: 1
EndChar

StartChar: jjadeva
Encoding: 381 2428 171
Width: 691
VWidth: 1000
GlyphClass: 2
Flags: HMW
AnchorPoint: "DVAnchor3" 517 578 basechar 0
LayerCount: 2
Fore
SplineSet
313 370 m 1
 349 331 388 274 388 204 c 0
 388 133 336 65 252 65 c 0
 123 65 54 216 15 314 c 1
 66 331 l 1
 97 253 160 115 252 115 c 0
 298 115 333 152 333 204 c 0
 333 277 281 334 237 370 c 1
 237 425 l 1
 495 425 l 1
 495 524 l 1
 -20 524 l 1
 -20 579 l 1
 710 579 l 1
 710 524 l 1
 550 524 l 1
 550 35 l 2
 550 -14 510 -54 461 -54 c 2
 30 -54 l 1
 30 0 l 1
 461 0 l 2
 480 0 495 15 495 34 c 2
 495 370 l 1
 313 370 l 1
EndSplineSet
Validated: 1
EndChar

StartChar: glottalstopdeva
Encoding: 382 2429 172
Width: 418
VWidth: 1000
GlyphClass: 2
Flags: HMW
LayerCount: 2
Fore
SplineSet
214 -7 m 0
 165 -7 125 33 125 82 c 2
 125 263 l 1
 165 263 l 1
 259 271 338 322 338 410 c 0
 338 483 272 532 197 532 c 0
 147 532 101 513 63 481 c 1
 25 517 l 1
 72 557 131 582 197 582 c 0
 299 582 393 513 393 410 c 0
 393 291 287 227 180 214 c 1
 180 82 l 2
 180 64 196 48 214 48 c 0
 227 48 237 53 243 63 c 1
 289 32 l 1
 271 6 246 -7 214 -7 c 0
EndSplineSet
Validated: 1
EndChar

StartChar: dddadeva
Encoding: 383 2430 173
Width: 536
VWidth: 1000
GlyphClass: 2
Flags: HMW
AnchorPoint: "DVAnchor3" 410 579 basechar 0
LayerCount: 2
Fore
SplineSet
-15 579 m 1
 551 579 l 1
 551 524 l 1
 439 524 l 1
 438 401 l 1
 438 401 286 401 242 401 c 0
 184 401 165 390 165 355 c 0
 165 333 185.983398438 315 209.983398438 293 c 2
 219 284 l 1
 300 284 l 2
 379 284 480 262 480 155 c 0
 480 52 381 21 304 21 c 0
 221 21 162 55 112 92 c 0
 76 118 43 148 13 181 c 1
 49 221 l 1
 77 191 107 162 140 138 c 0
 187 104 234 76 304 76 c 0
 376 76 430 103 430 155 c 0
 430 207 381 230 300 230 c 2
 206 230 l 1
 171 258 l 2
 152 273 110 305 110 355 c 0
 110 444 186 451 242 451 c 2
 384 451 l 1
 384 524 l 1
 -15 524 l 1
 -15 579 l 1
516 0 m 1
 516 -54 l 1
 20 -54 l 1
 20 0 l 1
 516 0 l 1
EndSplineSet
Validated: 524289
EndChar

StartChar: bbadeva
Encoding: 384 2431 174
Width: 527
VWidth: 1000
GlyphClass: 2
Flags: HMW
AnchorPoint: "DVAnchor3" 410 578 basechar 0
LayerCount: 2
Fore
SplineSet
298 191 m 1
 147 342 l 1
 133 325 124 303 124 278 c 0
 124 218 174 174 233 174 c 0
 255 174 278 180 298 191 c 1
388 329 m 1
 388 349 l 1
 350 366 296 386 249 386 c 0
 228 386 208 382 190 375 c 1
 340 225 l 1
 364 252 383 289 388 329 c 1
443 35 m 2
 443 -14 403 -54 354 -54 c 2
 50 -54 l 1
 50 0 l 1
 354 0 l 2
 373 0 388 16 388 35 c 2
 388 196 l 1
 353 154 300 119 233 119 c 0
 145 119 69 187 69 278 c 0
 69 285 70 293 71 300 c 0
 83 383 155 441 249 441 c 0
 300 441 347 427 388 410 c 1
 388 524 l 1
 -15 524 l 1
 -15 579 l 1
 542 579 l 1
 542 524 l 1
 443 524 l 1
 443 35 l 2
EndSplineSet
Validated: 1
EndChar

StartChar: zerowidthnonjoiner
Encoding: 385 8204 175
Width: 0
VWidth: 1000
GlyphClass: 2
Flags: HMW
LayerCount: 2
Fore
SplineSet
0 -400 m 1
 0 850 l 1
 55 850 l 1
 55 -400 l 1
 0 -400 l 1
EndSplineSet
Validated: 1
EndChar

StartChar: endash
Encoding: 386 8211 176
Width: 635
VWidth: 1000
GlyphClass: 2
Flags: HMW
LayerCount: 2
Fore
SplineSet
634 234 m 1
 0 234 l 1
 0 290 l 1
 634 290 l 1
 634 234 l 1
EndSplineSet
Validated: 1
EndChar

StartChar: emdash
Encoding: 387 8212 177
Width: 1250
VWidth: 1000
GlyphClass: 2
Flags: HMW
LayerCount: 2
Fore
SplineSet
1250 234 m 1
 0 234 l 1
 0 290 l 1
 1250 290 l 1
 1250 234 l 1
EndSplineSet
Validated: 1
EndChar

StartChar: quoteleft
Encoding: 388 8216 178
Width: 260
VWidth: 1000
GlyphClass: 2
Flags: HMW
LayerCount: 2
Fore
SplineSet
211 601 m 1
 189 567 l 1
 17 677 l 1
 53 726 l 1
 211 601 l 1
EndSplineSet
Validated: 1
EndChar

StartChar: quoteright
Encoding: 389 8217 179
Width: 193
VWidth: 1000
GlyphClass: 2
Flags: HMW
LayerCount: 2
Fore
SplineSet
107 492 m 1
 55 492 l 1
 45 684 l 1
 117 684 l 1
 107 492 l 1
EndSplineSet
Validated: 1
EndChar

StartChar: quotedblleft
Encoding: 390 8220 180
Width: 314
VWidth: 1000
GlyphClass: 2
Flags: HMW
LayerCount: 2
Fore
SplineSet
113 492 m 1
 61 492 l 1
 51 684 l 1
 123 684 l 1
 113 492 l 1
223 492 m 1
 171 492 l 1
 161 684 l 1
 233 684 l 1
 223 492 l 1
EndSplineSet
Validated: 1
EndChar

StartChar: quotedblright
Encoding: 391 8221 181
Width: 314
VWidth: 1000
GlyphClass: 2
Flags: HMW
LayerCount: 2
Fore
SplineSet
113 492 m 1
 61 492 l 1
 51 684 l 1
 123 684 l 1
 113 492 l 1
223 492 m 1
 171 492 l 1
 161 684 l 1
 233 684 l 1
 223 492 l 1
EndSplineSet
Validated: 1
EndChar

StartChar: ellipsis
Encoding: 392 8230 182
Width: 618
VWidth: 1000
GlyphClass: 2
Flags: HMW
LayerCount: 2
Fore
SplineSet
459 38 m 0
 459 61 479 81 501 81 c 0
 524 81 544 62 544 38 c 0
 544 15 525 -4 501 -4 c 0
 478 -4 459 16 459 38 c 0
253 38 m 0
 253 61 273 81 295 81 c 0
 318 81 338 62 338 38 c 0
 338 15 319 -4 295 -4 c 0
 272 -4 253 16 253 38 c 0
47 38 m 0
 47 61 67 81 89 81 c 0
 112 81 132 62 132 38 c 0
 132 15 113 -4 89 -4 c 0
 66 -4 47 16 47 38 c 0
EndSplineSet
Validated: 1
EndChar

StartChar: inr_currency
Encoding: 393 8377 183
Width: 575
VWidth: 1000
GlyphClass: 2
Flags: HMW
LayerCount: 2
Fore
SplineSet
368 524 m 1
 390 505 408 479 415 446 c 1
 515 446 l 1
 515 391 l 1
 414 391 l 1
 402 339 360 305 321 287 c 0
 283 269 238 261 192 257 c 1
 204 253 l 2
 220 248 233 237 242 225 c 0
 293 161 317 133 362 64 c 0
 368 55 377 50 389 50 c 0
 409 50 423 63 423 83 c 1
 480 83 l 1
 480 32 440 -7 390 -7 c 0
 360 -7 334 6 315 32 c 2
 212 172 l 2
 178 218 148 249 78 255 c 1
 78 304.981445312 l 1
 91 304.981445312 l 2
 103 304.981445312 115 304 127 304 c 0
 229 304 330 318 357 391 c 1
 60 391 l 1
 60 446 l 1
 358 446 l 1
 344 490 300 514 243 524 c 1
 60 524 l 1
 60 579 l 1
 515 579 l 1
 515 524 l 1
 368 524 l 1
EndSplineSet
Validated: 524289
EndChar

StartChar: minus
Encoding: 394 8722 184
Width: 436
VWidth: 1000
GlyphClass: 2
Flags: HMW
LayerCount: 2
Fore
SplineSet
351 277 m 1
 54 277 l 1
 54 334 l 1
 351 334 l 1
 351 277 l 1
EndSplineSet
Validated: 1
EndChar

StartChar: dottedcircle
Encoding: 395 9676 185
Width: 668
VWidth: 1000
GlyphClass: 2
Flags: HMW
LayerCount: 2
Fore
SplineSet
146 513 m 1
 190 550 245 574 306 580 c 1
 306 524 l 1
 260 519 219 501 185 474 c 1
 146 513 l 1
146 435 m 1
 119 401 100 360 95 314 c 1
 40 314 l 1
 46 375 70 430 107 474 c 1
 146 435 l 1
95 258 m 1
 100 212 119 171 146 137 c 1
 107 97 l 1
 70 142 46 197 40 258 c 1
 95 258 l 1
184 98 m 1
 218 71 260 52 306 47 c 1
 306 -8 l 1
 245 -2 190 21 145 58 c 1
 184 98 l 1
362 47 m 1
 408 52 450 71 484 98 c 1
 523 58 l 1
 478 21 423 -2 362 -8 c 1
 362 47 l 1
522 137 m 1
 549 171 568 212 573 258 c 1
 628 258 l 1
 622 197 598 142 561 97 c 1
 522 137 l 1
573 314 m 1
 568 360 549 401 522 435 c 1
 561 474 l 1
 598 430 622 375 628 314 c 1
 573 314 l 1
483 474 m 1
 449 501 408 519 362 524 c 1
 362 580 l 1
 423 574 478 550 522 513 c 1
 483 474 l 1
EndSplineSet
Validated: 1
EndChar

StartChar: zerocombiningdigitdeva
Encoding: 396 43232 186
Width: 0
VWidth: 1000
GlyphClass: 4
Flags: HMW
AnchorPoint: "DVAnchor3" -182 579 mark 0
LayerCount: 2
Fore
SplineSet
-282 738 m 0
 -282 791 -239 835 -184 835 c 0
 -129 835 -86 791 -86 738 c 0
 -86 685 -129 641 -184 641 c 0
 -239 641 -282 685 -282 738 c 0
-250 738 m 0
 -250 699 -219 671 -184 671 c 0
 -149 671 -118 699 -118 738 c 0
 -118 777 -149 805 -184 805 c 0
 -219 805 -250 777 -250 738 c 0
EndSplineSet
Validated: 1
EndChar

StartChar: onecombiningdigitdeva
Encoding: 397 43233 187
Width: 0
VWidth: 1000
GlyphClass: 4
Flags: HMW
AnchorPoint: "DVAnchor3" -149 579 mark 0
LayerCount: 2
Fore
SplineSet
-175 722 m 1
 -193 737 -214 760 -214 790 c 0
 -214 824 -185 850 -150 850 c 0
 -114 850 -84 822 -84 788 c 0
 -84 745 -119.9765625 723.98828125 -141.9765625 707.98828125 c 0
 -150.9765625 700.98828125 -160 695 -169 688 c 1
 -162 682 -152.014648438 673 -144.014648438 665 c 0
 -136.014648438 657 -122 642 -122 621 c 0
 -122 606 -129 593 -141 586 c 1
 -160 611 l 2
 -157 613 -155 615 -155 621 c 0
 -155 630 -160 636 -168 644 c 0
 -179 655 -192.989257812 666 -204.989257812 680 c 0
 -210.989257812 686 -209.029296875 696 -203.029296875 701 c 0
 -194.029296875 708 -184 715 -175 722 c 1
-150 741 m 1
 -134 753 -117 768 -117 788 c 0
 -117 806 -133 820 -150 820 c 0
 -166 820 -181 808 -181 790 c 0
 -181 771 -167 754 -150 741 c 1
EndSplineSet
Validated: 524289
EndChar

StartChar: twocombiningdigitdeva
Encoding: 398 43234 188
Width: 0
VWidth: 1000
GlyphClass: 4
Flags: HMW
AnchorPoint: "DVAnchor3" -134 579 mark 0
LayerCount: 2
Fore
SplineSet
-190 798 m 1
 -213 819 l 1
 -194 837 -168 850 -134 850 c 0
 -84 850 -39 817 -39 766 c 0
 -39 733 -59 704 -86 686 c 1
 -71 664 -56 640 -44 616 c 1
 -74 604 l 1
 -86 628 -100 650 -115 672 c 1
 -125 669 -136 667 -147 667 c 0
 -175 667 -208 683 -208 717 c 0
 -208 738 -192 757 -167 757 c 0
 -147 757 -133 746 -126 739 c 0
 -117 731 -110 721 -103 712 c 1
 -84 725 -72 745 -72 766 c 0
 -72 799 -99 820 -134 820 c 0
 -158 820 -175 812 -190 798 c 1
-134 699 m 1
 -139 706 -144 712 -150 718 c 0
 -156 724 -162 727 -167 727 c 0
 -171 727 -175 725 -175 717 c 0
 -175 705 -165 697 -147 697 c 0
 -143 697 -138 698 -134 699 c 1
EndSplineSet
Validated: 1
EndChar

StartChar: threecombiningdigitdeva
Encoding: 399 43235 189
Width: 0
VWidth: 1000
GlyphClass: 4
Flags: HMW
AnchorPoint: "DVAnchor3" -165 579 mark 0
LayerCount: 2
Fore
SplineSet
-183 630 m 1
 -188 636 -200 650 -207 650 c 0
 -209 650 -212 648 -212 643 c 0
 -212 635 -205 629 -191 629 c 0
 -189 629 -184 630 -183 630 c 1
-233 826 m 1
 -216 839 -195 850 -171 850 c 0
 -138 850 -98 828 -98 788 c 0
 -98 769 -107 755 -120 745 c 1
 -100 731 -88 711 -88 685 c 0
 -88 650 -110 628 -131 614 c 1
 -110.006835938 582 l 1
 -140 566 l 1
 -162 599 l 1
 -172 596 -180 594 -190 594 c 0
 -215 594 -246 609 -246 640 c 0
 -246 660 -230 679 -206 679 c 0
 -185 679 -173 667 -166 660 c 0
 -160 654 -154.017578125 647 -150.017578125 641 c 1
 -135.017578125 651 -123 665 -123 685 c 0
 -123 711 -145 728 -174 728 c 2
 -197 728 l 1
 -197 760 l 1
 -174 760 l 2
 -150 760 -133 770 -133 788 c 0
 -133 805 -151 818 -171 818 c 0
 -186 818 -199 811 -210 802 c 1
 -233 826 l 1
EndSplineSet
Validated: 524289
EndChar

StartChar: fourcombiningdigitdeva
Encoding: 400 43236 190
Width: 0
VWidth: 1000
GlyphClass: 4
Flags: HMW
AnchorPoint: "DVAnchor3" -126 579 mark 0
LayerCount: 2
Fore
SplineSet
-156 751 m 1
 -180 767 -209 792 -209 834 c 0
 -209 839 -209 846.003906248 -208.000976562 850 c 2
 -175 850 l 2
 -176 847 -176 837 -176 834 c 0
 -176 802 -152 785 -127 770 c 1
 -99 787 -79 800 -79 834 c 0
 -79 837 -79 847 -80 850 c 2
 -47 850 l 1
 -46 846 -46 839 -46 834 c 0
 -46 792 -72 769 -98 752 c 1
 -77 737 -57 714 -57 680 c 0
 -57 642 -87 610 -128 610 c 0
 -169 610 -198 642 -198 680 c 0
 -198 715 -176 736 -156 751 c 1
-127 734 m 1
 -148 720 -165 707 -165 680 c 0
 -165 655 -148 640 -128 640 c 0
 -108 640 -90 655 -90 680 c 0
 -90 706 -106 720 -127 734 c 1
EndSplineSet
Validated: 524289
EndChar

StartChar: fivecombiningdigitdeva
Encoding: 401 43237 191
Width: 0
VWidth: 1000
GlyphClass: 4
Flags: HMW
LayerCount: 2
Fore
SplineSet
-69 583 m 1
 -86 609 l 2
 -84 610 -82 612 -82 617 c 0
 -82 623 -84 628 -89 635 c 0
 -98 649 -107.025390625 664 -117.025390625 677 c 1
 -125.025390625 675 -134 673 -143 673 c 0
 -202 673 -249 722 -249 777 c 0
 -249 805 -237 831 -216 850 c 1
 -193 829 l 1
 -207 816 -216 797 -216 777 c 0
 -216 736 -182 703 -143 703 c 0
 -141 703 -140 704 -138 704 c 1
 -144 713 -149 724 -149 738 c 0
 -149 758 -134.00390625 779 -108.00390625 779 c 0
 -81.00390625 779 -66 756 -66 736 c 0
 -66 718 -75 702 -88 691 c 1
 -78 678 -70 664 -61 651 c 0
 -57 644 -49 632 -49 617 c 0
 -49 602 -57 589 -69 583 c 1
-107 716 m 1
 -102 721 -99 728 -99 736 c 0
 -99 746 -105.00390625 749 -108.00390625 749 c 0
 -110.00390625 749 -116 747 -116 738 c 0
 -116 731 -113 724 -107 716 c 1
EndSplineSet
Validated: 524289
EndChar

StartChar: sixcombiningdigitdeva
Encoding: 402 43238 192
Width: 0
VWidth: 1000
GlyphClass: 4
Flags: HMW
AnchorPoint: "DVAnchor3" -124 579 mark 0
LayerCount: 2
Fore
SplineSet
-63 566 m 1
 -70 576 -78 585.991210938 -86 596.991210938 c 1
 -93 595.991210938 -97 595 -102 595 c 0
 -153 595 -202 637 -202 688 c 0
 -202 714 -187 733 -170 745 c 1
 -184 755 -192 770 -192 789 c 0
 -192 829 -153 850 -120 850 c 0
 -96 850 -76 840 -59 827 c 1
 -81 803 l 1
 -92 812 -105 819 -120 819 c 0
 -140 819 -158 806 -158 789 c 0
 -158 771 -142 760 -117 760 c 2
 -95 760 l 1
 -95 729 l 1
 -117 729 l 2
 -145 729 -168 714 -168 688 c 0
 -168 657 -134 627 -103 626 c 1
 -106 633 -108 641 -108 650 c 0
 -108 667 -96 691 -70 691 c 0
 -45 691 -32 670 -32 652 c 0
 -32 632 -44 619 -55 611 c 1
 -48 601 -42 592 -35 582 c 1
 -63 566 l 1
-72 638 m 1
 -68 642 -66 646 -66 652 c 0
 -66 658 -69 660 -70 660 c 0
 -72 658 -74 656 -74 650 c 0
 -74 646 -73 641 -72 638 c 1
EndSplineSet
Validated: 524289
EndChar

StartChar: sevencombiningdigitdeva
Encoding: 403 43239 193
Width: 0
VWidth: 1000
GlyphClass: 4
Flags: HMW
AnchorPoint: "DVAnchor3" -178 579 mark 0
LayerCount: 2
Fore
SplineSet
-121 692 m 1
 -128 689 -136 687 -145 687 c 0
 -179 687 -207 714 -207 746 c 0
 -207 775 -183 801 -151 801 c 0
 -103 801 -83 755 -83 719 c 0
 -83 669 -118 616 -178 616 c 0
 -253 616 -282 692 -282 751 c 0
 -282 788 -274 819 -260 850 c 1
 -229 839 l 1
 -242 811 -249 784 -249 751 c 0
 -249 694 -221 646 -178 646 c 0
 -152 646 -130 664 -121 692 c 1
-118 736 m 0
 -123 759 -136 771 -151 771 c 0
 -162 771 -174 762 -174 746 c 0
 -174 729 -160 717 -145 717 c 0
 -137 717 -130 720.997070312 -124 726.997070312 c 0
 -122 729.997070312 -119 733 -118 736 c 0
EndSplineSet
Validated: 524289
EndChar

StartChar: eightcombiningdigitdeva
Encoding: 404 43240 194
Width: 0
VWidth: 1000
GlyphClass: 4
Flags: HMW
AnchorPoint: "DVAnchor3" -147 579 mark 0
LayerCount: 2
Fore
SplineSet
-132 850 m 1
 -105 832 l 1
 -125 807 -146 782 -164 756 c 0
 -178 736 -191 714 -191 687 c 0
 -191 657 -170 636 -146 636 c 0
 -118 636 -96 660 -89 689 c 1
 -57 683 l 1
 -66 648 -95 606 -146 606 c 0
 -193 606 -224 645 -224 687 c 0
 -224 723 -206 752 -192 772 c 0
 -173 800 -152 825 -132 850 c 1
EndSplineSet
Validated: 1
EndChar

StartChar: ninecombiningdigitdeva
Encoding: 405 43241 195
Width: 0
VWidth: 1000
GlyphClass: 4
Flags: HMW
AnchorPoint: "DVAnchor3" -154 579 mark 0
LayerCount: 2
Fore
SplineSet
-87 789 m 0
 -87 754 -114 732 -135 716 c 1
 -120 699 -106 681 -90 664 c 0
 -83 656 -68 642 -68 620 c 0
 -68 605 -76 593 -88 586 c 1
 -106 611 l 2
 -104 612 -101 615 -101 620 c 0
 -101 629 -107 636 -115 645 c 0
 -141 673 -167 703 -192 733 c 0
 -202 745 -217 763 -217 789 c 0
 -217 823 -187 850 -152 850 c 0
 -117 850 -87 823 -87 789 c 0
-155 739 m 1
 -141 750 -120 768 -120 789 c 0
 -120 807 -136 820 -152 820 c 0
 -168 820 -184 807 -184 789 c 0
 -184 769 -166 752 -155 739 c 1
EndSplineSet
Validated: 1
EndChar

StartChar: acombiningletterdeva
Encoding: 406 43242 196
Width: 0
VWidth: 1000
GlyphClass: 4
Flags: HMW
AnchorPoint: "DVAnchor3" -304 579 mark 0
LayerCount: 2
Fore
SplineSet
-449 819 m 1
 -435 840 -411 862 -377 862 c 0
 -342 862 -311 836 -311 801 c 0
 -311 787 -317 773 -324 764 c 1
 -310 755 -302 744 -287 744 c 0
 -279 744 -262 748 -257 753 c 1
 -257 816 l 1
 -284 816 l 1
 -284 850 l 1
 -159 850 l 1
 -159 816 l 1
 -223 816 l 1
 -223 645 l 2
 -223 640 -219 637 -215 637 c 0
 -209 637 -208 642 -206 646 c 1
 -177 627 l 1
 -186 614 -197 604 -215 604 c 0
 -239 604 -257 623 -257 645 c 2
 -257 717 l 1
 -266 714 -279 711 -287 711 c 0
 -288 711 -288 709 -288 708 c 0
 -288 706 -288 705 -288 704 c 0
 -288 664 -323 636 -363 636 c 0
 -419 636 -459 679 -477 721 c 1
 -446 735 l 1
 -432 703 -403 670 -363 670 c 0
 -341 670 -322 683 -322 704 c 0
 -322 738 -349 740 -385 740 c 2
 -395 740 l 1
 -395 772 l 1
 -385 772 l 2
 -354 772 -345 788 -345 801 c 0
 -345 817 -360 828 -377 828 c 0
 -398 828 -411 815 -420 801 c 1
 -449 819 l 1
EndSplineSet
Validated: 1
EndChar

StartChar: ucombiningletterdeva
Encoding: 407 43243 197
Width: 0
VWidth: 1000
GlyphClass: 4
Flags: HMW
AnchorPoint: "DVAnchor3" -98 579 mark 0
LayerCount: 2
Fore
SplineSet
-173 719 m 1
 -166 679 -132 640 -97 640 c 0
 -76 640 -57 657 -57 682 c 0
 -57 712 -80 732 -110 732 c 2
 -135 732 l 1
 -135 763 l 1
 -112 763 l 2
 -100 766 -87 777 -87 794 c 0
 -87 806 -94 814 -100 819 c 1
 -224 819 l 1
 -224 852 l 1
 0 852 l 1
 0 819 l 1
 -59 819 l 1
 -55 811 -53 803 -53 794 c 0
 -53 778 -60 765 -69 754 c 1
 -41 740 -23 714 -23 682 c 0
 -23 642 -55 609 -97 609 c 0
 -164 609 -192 669 -206 710 c 1
 -173 719 l 1
EndSplineSet
Validated: 1
EndChar

StartChar: kacombiningletterdeva
Encoding: 408 43244 198
Width: 0
VWidth: 1000
GlyphClass: 4
Flags: HMW
LayerCount: 2
Fore
SplineSet
-223 710 m 1
 -223 743 l 1
 -219 743 -216 746 -216 751 c 0
 -216 760 -223 765 -232 765 c 0
 -249 765 -267 748 -267 729 c 0
 -267 710 -250 695 -232 695 c 0
 -202 695 -181 730 -174 754 c 1
 -174 822 l 1
 -324 822 l 1
 -324 856 l 1
 6 856 l 1
 6 822 l 1
 -140 822 l 1
 -140 783 l 1
 -128 791 -113 798 -96 798 c 0
 -57 798 -26 766 -26 728 c 0
 -26 692 -52 662 -91 662 c 2
 -97 662 l 1
 -97 695 l 1
 -91 695 l 2
 -72 695 -60 708 -60 728 c 0
 -60 749 -77 765 -96 765 c 0
 -114 765 -128 753 -140 738 c 1
 -140 651 l 2
 -140 646 -137 643 -133 643 c 0
 -129 643 -127 644 -126 646 c 2
 -123 652 l 1
 -95 633 l 1
 -98 628 l 2
 -106 616 -118 610 -133 610 c 0
 -156 610 -174 629 -174 651 c 2
 -174 689 l 1
 -186 676 -206 662 -232 662 c 0
 -270 662 -301 692 -301 729 c 0
 -301 766 -270 798 -232 798 c 0
 -205 798 -182 779 -182 751 c 0
 -182 729 -200 710 -223 710 c 1
EndSplineSet
Validated: 1
EndChar

StartChar: nacombiningletterdeva
Encoding: 409 43245 199
Width: 0
VWidth: 1000
GlyphClass: 4
Flags: HMW
AnchorPoint: "DVAnchor3" -133 579 mark 0
LayerCount: 2
Fore
SplineSet
-56 605 m 0
 -79 605 -98 624 -98 646 c 2
 -98 748 l 1
 -159 748 l 1
 -160 740 -163 733 -166 726 c 0
 -171 713 -184 692 -211 692 c 0
 -237 692 -255 713 -255 735 c 0
 -255 768 -225 781 -200 781 c 2
 -98 781 l 1
 -98 818 l 1
 -257 818 l 1
 -257 850 l 1
 0 850 l 1
 0 818 l 1
 -64 818 l 1
 -64 646 l 2
 -64 641 -59 638 -56 638 c 0
 -53 638 -51 639 -50 641 c 2
 -47 647 l 1
 -18 628 l 1
 -21 623 l 2
 -29 611 -41 605 -56 605 c 0
-194 748 m 1
 -200 748 l 2
 -217 748 -221 744 -221 735 c 0
 -221 729 -216 724 -211 724 c 0
 -204 724 -198 735 -194 748 c 1
EndSplineSet
Validated: 1
EndChar

StartChar: pacombiningletterdeva
Encoding: 410 43246 200
Width: 0
VWidth: 1000
GlyphClass: 4
Flags: HMW
AnchorPoint: "DVAnchor3" -132 579 mark 0
LayerCount: 2
Fore
SplineSet
-56 605 m 0
 -79 605 -98 624 -98 646 c 2
 -98 695 l 1
 -111 683 -129 673 -152 673 c 0
 -189 673 -222 699 -222 744 c 2
 -222 817 l 1
 -265 817 l 1
 -265 850 l 1
 0 850 l 1
 0 817 l 1
 -64 817 l 1
 -64 646 l 2
 -64 641 -60 638 -56 638 c 0
 -52 638 -51 639 -50 641 c 2
 -47 646 l 1
 -18 627 l 1
 -21 623 l 2
 -29 611 -41 605 -56 605 c 0
-98 754 m 1
 -98 817 l 1
 -188 817 l 1
 -188 744 l 2
 -188 716 -172 706 -152 706 c 0
 -126 706 -107 732 -98 754 c 1
EndSplineSet
Validated: 1
EndChar

StartChar: racombiningletterdeva
Encoding: 411 43247 201
Width: 0
VWidth: 1000
GlyphClass: 4
Flags: HMW
AnchorPoint: "DVAnchor3" -90 579 mark 0
LayerCount: 2
Fore
SplineSet
-145.000000407 762 m 1
 -116 744 l 2
 -118 742 -119 740 -119 738 c 0
 -119 732 -114 728 -107 728 c 0
 -97 728 -92 735 -91 747 c 2
 -91 817 l 1
 -191 817 l 1
 -191 850 l 1
 0 850 l 1
 0 817 l 1
 -57 817 l 1
 -57 754 l 2
 -57 723 -72 695 -107 695 c 0
 -108 695 -110 695 -111 695 c 1
 -98 664 -71.0185546875 641 -37.0185546875 636 c 2
 -32 635 l 1
 -32 604 l 1
 -39 605 l 2
 -67 608 -93 620 -113 639 c 0
 -139 663 -153 698 -153 732 c 0
 -153 745 -151.000000407 753 -145.000000407 762 c 1
EndSplineSet
Validated: 524289
EndChar

StartChar: vicombiningletterdeva
Encoding: 412 43248 202
Width: 0
VWidth: 1000
GlyphClass: 4
Flags: HMW
AnchorPoint: "DVAnchor3" -173 579 mark 0
LayerCount: 2
Fore
SplineSet
-66 818 m 1
 -66 646 l 2
 -66 641 -63 638 -59 638 c 0
 -55 638 -53 639 -52 641 c 2
 -49 647 l 1
 -21 628 l 1
 -24 623 l 2
 -32 611 -44 605 -59 605 c 0
 -82 605 -100 624 -100 646 c 2
 -100 684 l 1
 -112 671 -132 657 -158 657 c 0
 -196 657 -227 687 -227 724 c 0
 -227 761 -196 793 -158 793 c 0
 -131 793 -108 774 -108 746 c 0
 -108 724 -126 705 -149 705 c 1
 -149 738 l 1
 -145 738 -142 741 -142 746 c 0
 -142 755 -149 760 -158 760 c 0
 -175 760 -193 743 -193 724 c 0
 -193 705 -176 690 -158 690 c 0
 -128 690 -107 725 -100 749 c 1
 -100 818 l 1
 -217 818 l 1
 -250 818 l 1
 -279 818 l 1
 -279 646 l 2
 -279 641 -275 638 -271 638 c 0
 -267 638 -266 639 -265 641 c 2
 -261 647 l 1
 -233 628 l 1
 -236 623 l 2
 -244 611 -256 605 -271 605 c 0
 -294 605 -313 624 -313 646 c 2
 -313 818 l 1
 -377 818 l 1
 -377 850 l 1
 -321 850 l 1
 -324 859 -325 866 -325 873 c 0
 -325 917 -283 936 -238 936 c 0
 -204 936 -176.026367188 924 -153.026367188 910 c 0
 -127.026367188 894 -105 873 -85 850 c 1
 0 850 l 1
 0 818 l 1
 -66 818 l 1
-291 873 m 0
 -291 865 -287 855 -283 850 c 1
 -250 850 l 1
 -217 850 l 1
 -132 850 l 1
 -145 863 -159 874 -173 883 c 0
 -195 897 -217 903 -238 903 c 0
 -276 903 -291 892 -291 873 c 0
EndSplineSet
Validated: 524289
EndChar

StartChar: avagrahacombiningsigndeva
Encoding: 413 43249 203
Width: 0
VWidth: 1000
GlyphClass: 4
Flags: HMW
AnchorPoint: "DVAnchor3" -97 579 mark 0
LayerCount: 2
Fore
SplineSet
-140 666 m 0
 -140 649 -122 635 -96 635 c 0
 -73 635 -53 653 -53 677 c 0
 -53 725 -103 723 -134 749 c 0
 -146 758 -163 774 -163 799 c 0
 -163 837 -129 851 -94 851 c 2
 -30 851 l 1
 -30 818 l 1
 -92 818 l 2
 -114 818 -129 815 -129 799 c 0
 -129 786 -116 775 -106 768 c 0
 -75 748 -19 733 -19 677 c 0
 -19 636 -54 604 -96 604 c 0
 -139 604 -174 628 -174 665 c 0
 -174 688 -156 707 -132 707 c 0
 -124 707 -116 705 -110 702 c 1
 -123 671 l 2
 -126 672 -128 674 -132 674 c 0
 -136 674 -140 671 -140 666 c 0
EndSplineSet
Validated: 1
EndChar

StartChar: spacingcandrabindudeva
Encoding: 414 43250 204
Width: 563
VWidth: 1000
GlyphClass: 2
Flags: HMW
LayerCount: 2
Fore
SplineSet
388 579 m 1
 443 579 l 1
 443 495 362 440 282 440 c 0
 202 440 120 495 120 579 c 1
 175 579 l 1
 175 527 226 490 282 490 c 0
 338 490 388 527 388 579 c 1
282 520 m 1
 227 575 l 1
 282 629 l 1
 336 575 l 1
 282 520 l 1
EndSplineSet
Validated: 1
EndChar

StartChar: candrabinduviramadeva
Encoding: 415 43251 205
Width: 563
VWidth: 1000
GlyphClass: 2
Flags: HMW
LayerCount: 2
Fore
SplineSet
226 212 m 1
 182 241 l 1
 265 344 l 1
 286 335 l 1
 466 251 486.979492188 102 486.979492188 99 c 2
 432 93 l 2
 432 94 416 208 282 280 c 1
 226 212 l 1
388 579 m 1
 443 579 l 1
 443 495 362 440 282 440 c 0
 202 440 120 495 120 579 c 1
 175 579 l 1
 175 527 226 490 282 490 c 0
 338 490 388 527 388 579 c 1
282 520 m 1
 227 575 l 1
 282 629 l 1
 336 575 l 1
 282 520 l 1
EndSplineSet
Validated: 524289
EndChar

StartChar: doublecandrabinduviramadeva
Encoding: 416 43252 206
Width: 563
VWidth: 1000
GlyphClass: 2
Flags: HMW
LayerCount: 2
Fore
SplineSet
226 -62 m 1
 182 -33 l 1
 265 70 l 1
 286 61 l 1
 466 -23 486.979492188 -172 486.979492188 -175 c 2
 432 -181 l 2
 432 -180 416 -66 282 6 c 1
 226 -62 l 1
388 305 m 1
 443 305 l 1
 443 221 362 166 282 166 c 0
 202 166 120 221 120 305 c 1
 175 305 l 1
 175 253 226 216 282 216 c 0
 338 216 388 253 388 305 c 1
282 246 m 1
 227 301 l 1
 282 355 l 1
 336 301 l 1
 282 246 l 1
388 579 m 1
 443 579 l 1
 443 495 362 440 282 440 c 0
 202 440 120 495 120 579 c 1
 175 579 l 1
 175 527 226 490 282 490 c 0
 338 490 388 527 388 579 c 1
282 520 m 1
 227 575 l 1
 282 629 l 1
 336 575 l 1
 282 520 l 1
EndSplineSet
Validated: 524289
EndChar

StartChar: candrabindudigittwodeva
Encoding: 417 43253 207
Width: 563
VWidth: 1000
GlyphClass: 2
Flags: HMW
LayerCount: 2
Fore
SplineSet
248 52 m 0
 198 52 142 79 142 139 c 0
 142 177 172 208 214 208 c 0
 248 208 271 188 284 176 c 0
 299 161 313 144 324 128 c 1
 357 150 380 183 380 223 c 0
 380 245 373 265 360 281 c 0
 341 304 312 318 272 318 c 0
 229 318 198 303 172 279 c 2
 166 274 l 1
 126 311 l 1
 134 317 l 1
 167 348 213 370 272 370 c 0
 329 370 373 347 402 313 c 0
 423 289 436 257 436 223 c 0
 436 161 397 113 354 85 c 1
 381 45 404 5 426 -38 c 1
 432 -46 l 1
 382 -68 l 1
 378 -60 l 2
 357 -18 331 22 304 61 c 1
 287 55 268 52 248 52 c 0
198 139 m 0
 198 118 216 104 248 104 c 0
 255 104 265 105 272 106 c 1
 262 120 254 130 244 140 c 0
 233 151 224 156 214 156 c 0
 205 156 198 151 198 139 c 0
388 579 m 1
 443 579 l 1
 443 495 362 440 282 440 c 0
 202 440 120 495 120 579 c 1
 175 579 l 1
 175 527 226 490 282 490 c 0
 338 490 388 527 388 579 c 1
282 520 m 1
 227 575 l 1
 282 629 l 1
 336 575 l 1
 282 520 l 1
EndSplineSet
Validated: 1
EndChar

StartChar: candrabindudigitthreedeva
Encoding: 418 43254 208
Width: 563
VWidth: 1000
GlyphClass: 2
Flags: HMW
LayerCount: 2
Fore
SplineSet
282 520 m 1
 227 575 l 1
 282 629 l 1
 336 575 l 1
 282 520 l 1
388 579 m 1
 443 579 l 1
 443 495 362 440 282 440 c 0
 202 440 120 495 120 579 c 1
 175 579 l 1
 175 527 226 490 282 490 c 0
 338 490 388 527 388 579 c 1
254 -18 m 1
 247 -9 242 -3 235 4 c 0
 225 15 217 20 209 20 c 0
 203 20 197 17 197 7 c 0
 197 -8 210 -20 236 -20 c 0
 242 -20 248 -19 254 -18 c 1
414 84 m 0
 414 22 375 -17 338 -41 c 1
 351 -61 370 -88 370 -88 c 1
 375 -96 l 1
 327 -121 l 1
 322 -115 l 1
 322 -115 301 -82 289 -65 c 1
 274 -70 255 -73 238 -73 c 0
 195 -73 144 -48 144 5 c 0
 144 40 172 70 211 70 c 0
 245 70 267 50 278 38 c 0
 289 27 298 15 307 3 c 1
 333 20 358 47 358 84 c 0
 358 131 319 161 267 161 c 2
 229 161 l 1
 229 213 l 1
 267 213 l 2
 311 213 341 232 341 264 c 0
 341 294 308 318 272 318 c 0
 250 318 227 310 210 296 c 2
 204 291 l 1
 167 330 l 1
 174 336 l 2
 201 358 236 370 272 370 c 0
 328 370 396 333 396 264 c 0
 396 229 378 204 356 188 c 1
 390 165 414 129 414 84 c 0
EndSplineSet
Validated: 1
EndChar

StartChar: candrabinduavagrahadeva
Encoding: 419 43255 209
Width: 563
VWidth: 1000
GlyphClass: 2
Flags: HMW
LayerCount: 2
Fore
SplineSet
199 47 m 0
 199 18 232 -8 279 -8 c 0
 320 -8 356 24 356 66 c 0
 356 96 340 117 321 131 c 0
 295 151 248 163 213 192 c 0
 192 208 162 236 162 280 c 0
 162 346 221 370 282 370 c 2
 392 370 l 1
 392 314 l 1
 286 314 l 2
 248 314 218 308 218 280 c 0
 218 257 241 239 259 226 c 0
 284 209 322 198 356 172 c 0
 384 151 411 115 411 66 c 0
 411 -5 351 -60 279 -60 c 0
 206 -60 144 -19 144 46 c 0
 144 86 175 119 215 119 c 0
 225 119 235 117 244 113 c 2
 252 109 l 1
 229 57 l 1
 221 62 l 2
 219 63 218 63 216 63 c 0
 207 63 199 56 199 47 c 0
282 520 m 1
 227 575 l 1
 282 629 l 1
 336 575 l 1
 282 520 l 1
388 579 m 1
 443 579 l 1
 443 495 362 440 282 440 c 0
 202 440 120 495 120 579 c 1
 175 579 l 1
 175 527 226 490 282 490 c 0
 338 490 388 527 388 579 c 1
EndSplineSet
Validated: 1
EndChar

StartChar: pushpikadeva
Encoding: 420 43256 210
Width: 699
VWidth: 1000
GlyphClass: 2
Flags: HMW
AnchorPoint: "DVAnchor3" 506 580 basechar 0
AnchorPoint: "DVAnchor0" 271 -7 basechar 0
LayerCount: 2
Fore
SplineSet
497 182 m 1
 531 218 573 262 573 320 c 0
 573 369 539 403 502 403 c 0
 464 403 427.971679688 367 427.971679688 317 c 0
 427.971679688 259 466 214 497 182 c 1
297 289 m 1
 297 239 l 1
 297 239 262 239 237 239 c 0
 190 239 158 199 158 153 c 0
 158 88 209 44 273 44 c 0
 318 44 349 61 383 83 c 0
 410 101 436 122 460 145 c 1
 436 168 414 196 398 226 c 0
 384 252 372.971679688 281 372.971679688 317 c 0
 372.971679688 386 424 453 502 453 c 0
 578 453 628 388 628 320 c 0
 628 239 574 187 537 148 c 1
 543 143 550 138 556 134 c 0
 582 116 636 81 636 18 c 0
 636 -25 601 -63 553 -63 c 0
 548 -63 544 -63 539 -62 c 1
 549 -12 l 2
 550 -12 552 -13 553 -13 c 0
 567 -13 581 -3 581 18 c 0
 581 58 531.991210938 86 499.991210938 111 c 1
 473.991210938 86 445 63 415 43 c 0
 379 19 334 -6 273 -6 c 0
 178 -6 103 62 103 153 c 0
 103 190 119 227 146 254 c 1
 117 265 94 286 82 320 c 0
 78 331 76 343 76 355 c 0
 76 417 126 470 193 470 c 0
 228 470 261 454 282 428 c 1
 238 398 l 1
 227 412 209 420 193 420 c 0
 161 420 131 394 131 355 c 0
 131 348 132 341 134 335 c 0
 145 304 182 289 226 289 c 2
 297 289 l 1
EndSplineSet
Validated: 524289
EndChar

StartChar: gapfillerdeva
Encoding: 421 43257 211
Width: 699
VWidth: 1000
GlyphClass: 2
Flags: HMW
AnchorPoint: "DVAnchor3" 501 580 basechar 0
AnchorPoint: "DVAnchor0" 277 -13 basechar 0
LayerCount: 2
Fore
SplineSet
628 320 m 0
 628 180 444 -6 275 -6 c 0
 175 -6 103 65 103 153 c 0
 103 200 138 289 226 289 c 2
 277 289 l 1
 277 239 l 1
 277 239 262 239 237 239 c 0
 190 239 158 199 158 153 c 0
 158 90 206 44 276 44 c 0
 424 44 573 221 573 320 c 0
 573 369 539 403 502 403 c 0
 464 403 427.971679688 367 427.971679688 317 c 0
 427.971679688 286 439 259 454 235 c 1
 415 200 l 1
 394 232 372.971679688 267 372.971679688 317 c 0
 372.971679688 386 424 453 502 453 c 0
 578 453 628 388 628 320 c 0
EndSplineSet
Validated: 524289
EndChar

StartChar: caretdeva
Encoding: 422 43258 212
Width: 324
VWidth: 1000
GlyphClass: 2
Flags: HMW
LayerCount: 2
Fore
SplineSet
195 634 m 1
 132 634 l 1
 35 801 l 1
 83 829 l 1
 164 689 l 1
 244 829 l 1
 292 801 l 1
 195 634 l 1
EndSplineSet
Validated: 1
EndChar

StartChar: headstrokedeva
Encoding: 423 43259 213
Width: 627
VWidth: 1000
GlyphClass: 2
Flags: HMW
LayerCount: 2
Fore
SplineSet
587 794 m 1
 40 794 l 1
 40 849 l 1
 587 849 l 1
 587 794 l 1
EndSplineSet
Validated: 1
EndChar

StartChar: isigndeva.alt1
Encoding: 424 -1 214
Width: 333
VWidth: 1000
GlyphClass: 4
Flags: HMW
LayerCount: 2
Fore
SplineSet
187 579 m 1
 353 579 l 1
 353 524 l 1
 195 524 l 1
 195 82 l 2
 195 63 210 48 229 48 c 0
 242 48 252 53 258 63 c 1
 304 32 l 1
 286 6 261 -7 229 -7 c 0
 180 -7 140 33 140 82 c 2
 140 524 l 1
 -20 524 l 1
 -20 579 l 1
 123.801688396 579 l 1
 115.518797564 596.896798836 111 616.929817539 111 637.973632812 c 1
 111 701.973632812 153 748 192 771 c 0
 233 795 280 802 324 802 c 0
 419 802 505 778 591 755 c 0
 753 711 911 650 1062 577 c 1
 1042 527 l 1
 893 599 738 658 579 701 c 0
 493 724 411 747 324 747 c 0
 284 747 246 740 215 722 c 0
 185 705 161 674 161 637 c 0
 161 615.95598354 170.149806379 593.996986443 186.698976628 579 c 1
 187 579 l 1
EndSplineSet
Validated: 524289
EndChar

StartChar: esigndeva_anusvaradeva
Encoding: 425 -1 215
Width: 0
VWidth: 1000
GlyphClass: 4
Flags: HMW
AnchorPoint: "DVAnchor3" -178 578 mark 0
LayerCount: 2
Fore
SplineSet
-138 721 m 1
 -193 776 l 1
 -138 830 l 1
 -83.9736328125 776 l 1
 -138 721 l 1
-136 560 m 1
 -184 534 l 1
 -339 801 l 1
 -291.018554688 828 l 1
 -136 560 l 1
EndSplineSet
Validated: 524289
Ligature2: "Lohit-Devanagari-'abvs' Above Base Substitutions lookup 25 subtable" esigndeva anusvaradeva
LCarets2: 1 0 
EndChar

StartChar: esign_ra_virama.alt1
Encoding: 426 -1 216
Width: 0
VWidth: 1000
GlyphClass: 4
Flags: HMW
AnchorPoint: "DVAnchor3" -182 579 mark 0
LayerCount: 2
Fore
SplineSet
-136 560 m 1
 -184 534 l 1
 -339 801 l 1
 -291.018554688 828 l 1
 -245 749 l 1
 -222 788 -179 815 -129 815 c 0
 -94 815 -60 802 -34 776 c 1
 -75 742 l 1
 -91 758 -110 765 -129 765 c 0
 -168 765 -208.018554688 729 -208.018554688 685 c 1
 -136 560 l 1
EndSplineSet
Validated: 524289
Ligature2: "Lohit-Devanagari-'abvs' Above Base Substitutions lookup 25 subtable" esigndeva radeva_viramadeva
LCarets2: 1 0 
EndChar

StartChar: esign_ra_virama_anusvara
Encoding: 427 -1 217
Width: 0
VWidth: 1000
GlyphClass: 4
Flags: HMW
LayerCount: 2
Fore
SplineSet
-108 612 m 1
 -163 667 l 1
 -108 721 l 1
 -54 667 l 1
 -108 612 l 1
-136 560 m 1
 -184 534 l 1
 -339 801 l 1
 -291.018554688 828 l 1
 -245 749 l 1
 -222 788 -179 815 -129 815 c 0
 -94 815 -60 802 -34 776 c 1
 -75 742 l 1
 -91 758 -110 765 -129 765 c 0
 -168 765 -208.018554688 729 -208.018554688 685 c 1
 -136 560 l 1
EndSplineSet
Validated: 524289
Ligature2: "Lohit-Devanagari-'abvs' Above Base Substitutions lookup 25 subtable" esigndeva radeva_viramadeva anusvaradeva
LCarets2: 2 0 0 
EndChar

StartChar: aisigndeva_anusvaradeva
Encoding: 428 -1 218
Width: 0
VWidth: 1000
GlyphClass: 4
Flags: HMW
LayerCount: 2
Fore
SplineSet
-138 721 m 1
 -193 776 l 1
 -138 830 l 1
 -84 776 l 1
 -138 721 l 1
-136 560 m 1
 -184 534 l 1
 -210 579 l 2
 -215 583 -221 586 -226 590 c 0
 -280 626 -357 629 -433 629 c 1
 -433 684 l 1
 -379 684 -318 684 -261 666 c 1
 -339 801 l 1
 -291.018554688 828 l 1
 -136 560 l 1
EndSplineSet
Validated: 524289
Ligature2: "Lohit-Devanagari-'abvs' Above Base Substitutions lookup 25 subtable" aisigndeva anusvaradeva
LCarets2: 1 0 
EndChar

StartChar: aisign_ra_virama.alt1
Encoding: 429 -1 219
Width: 0
VWidth: 1000
GlyphClass: 4
Flags: HMW
AnchorPoint: "DVAnchor3" -179 579 mark 0
LayerCount: 2
Fore
SplineSet
-136 560 m 1
 -184 534 l 1
 -210 579 l 2
 -215 583 -221 586 -226 590 c 0
 -280 626 -357 629 -433 629 c 1
 -433 684 l 1
 -379 684 -318 684 -261 666 c 1
 -339 801 l 1
 -291.018554688 828 l 1
 -245 749 l 1
 -222 788 -179 815 -129 815 c 0
 -94 815 -60 802 -34 776 c 1
 -75 742 l 1
 -91 758 -110 765 -129 765 c 0
 -168 765 -208.018554688 729 -208.018554688 685 c 1
 -136 560 l 1
EndSplineSet
Validated: 524289
Ligature2: "Lohit-Devanagari-'abvs' Above Base Substitutions lookup 25 subtable" aisigndeva radeva_viramadeva
LCarets2: 1 0 
EndChar

StartChar: aisign_ra_virama_anusvara
Encoding: 430 -1 220
Width: 0
VWidth: 1000
GlyphClass: 4
Flags: HMW
LayerCount: 2
Fore
SplineSet
-108 612 m 1
 -163 667 l 1
 -108 721 l 1
 -54 667 l 1
 -108 612 l 1
-136 560 m 1
 -184 534 l 1
 -210 579 l 2
 -215 583 -221 586 -226 590 c 0
 -280 626 -357 629 -433 629 c 1
 -433 684 l 1
 -379 684 -318 684 -261 666 c 1
 -339 801 l 1
 -291.018554688 828 l 1
 -245 749 l 1
 -222 788 -179 815 -129 815 c 0
 -94 815 -60 802 -34 776 c 1
 -75 742 l 1
 -91 758 -110 765 -129 765 c 0
 -168 765 -208.018554688 729 -208.018554688 685 c 1
 -136 560 l 1
EndSplineSet
Validated: 524289
Ligature2: "Lohit-Devanagari-'abvs' Above Base Substitutions lookup 25 subtable" aisigndeva radeva_viramadeva anusvaradeva
LCarets2: 2 0 0 
EndChar

StartChar: radeva_viramadeva
Encoding: 431 -1 221
Width: 0
VWidth: 1000
GlyphClass: 4
Flags: HMW
AnchorPoint: "DVAnchor3" -184 579 mark 0
LayerCount: 2
Fore
SplineSet
-64 748 m 1
 -104 710 l 1
 -117 724 -135 732 -155 732 c 0
 -188 732 -208 711 -208 680 c 0
 -208 637 -162 594 -120 574 c 1
 -144 524 l 1
 -193 547 -263 601 -263 680 c 0
 -263 741 -216 787 -155 787 c 0
 -119 787 -87 772 -64 748 c 1
EndSplineSet
Validated: 1
Ligature2: "Devanagari-'rphf' Reph Form lookup 7 subtable" radeva viramadeva
LCarets2: 1 0 
EndChar

StartChar: radeva_viramadeva_anusvaradeva
Encoding: 432 -1 222
Width: 0
VWidth: 1000
GlyphClass: 4
Flags: HMW
AnchorPoint: "DVAnchor3" -177 579 mark 0
LayerCount: 2
Fore
SplineSet
-68 601 m 1
 -123 656 l 1
 -68 710 l 1
 -14 656 l 1
 -68 601 l 1
-64 748 m 1
 -104 710 l 1
 -117 724 -135 732 -155 732 c 0
 -188 732 -208 711 -208 680 c 0
 -208 637 -162 594 -120 574 c 1
 -144 524 l 1
 -193 547 -263 601 -263 680 c 0
 -263 741 -216 787 -155 787 c 0
 -119 787 -87 772 -64 748 c 1
EndSplineSet
Validated: 1
Ligature2: "Lohit-Devanagari-'abvs' Above Base Substitutions lookup 25 subtable" radeva_viramadeva anusvaradeva
LCarets2: 1 0 
EndChar

StartChar: viramadeva_radeva_alt
Encoding: 433 -1 223
Width: 0
VWidth: 1000
GlyphClass: 2
Flags: HMW
LayerCount: 2
Fore
SplineSet
-156 320 m 1
 -156 238 l 1
 -341 26 l 2
 -362 1 -382 -7 -412 -7 c 0
 -462 -7 -502 32 -502 83 c 1
 -445 83 l 1
 -445 63 -430 48 -410 48 c 0
 -398 48 -388 50 -380 60 c 2
 -156 320 l 1
EndSplineSet
Validated: 1
EndChar

StartChar: viramadeva_radeva
Encoding: 434 -1 224
Width: 0
VWidth: 1000
GlyphClass: 4
Flags: HMW
AnchorPoint: "DVAnchor0" -152 -7 mark 0
LayerCount: 2
Fore
SplineSet
-120 -30 m 1
 -23 -197 l 1
 -71 -225 l 1
 -152 -85 l 1
 -232 -225 l 1
 -280 -197 l 1
 -184 -30 l 1
 -120 -30 l 1
EndSplineSet
Validated: 1
Ligature2: "Devanagari-'blwf' Below Base Forms lookup 8 subtable" radeva viramadeva
Ligature2: "Devanagari-'blwf' Below Base Forms lookup 8 subtable" viramadeva radeva
LCarets2: 1 0 
EndChar

StartChar: shadeva_viramadeva_radeva
Encoding: 435 -1 225
Width: 633
VWidth: 1000
GlyphClass: 2
Flags: HMW
AnchorPoint: "DVAnchor3" 462 578 basechar 0
LayerCount: 2
Fore
SplineSet
174 376 m 1
 184 385 193 394 202 403 c 0
 227 428 252 457 252 495 c 0
 252 538 216 569 176 569 c 0
 134 569 95 535 95 489 c 0
 95 452 118 424 142 402 c 0
 152 393 163 384 174 376 c 1
653 579 m 1
 653 524 l 1
 493 524 l 1
 493 82 l 2
 493 63 508 48 527 48 c 0
 540 48 550 53 556 63 c 1
 602 32 l 1
 584 6 559 -7 527 -7 c 0
 478 -7 438 33 438 82 c 2
 438 244 l 1
 175 72 l 1
 143 112 l 1
 333 236 l 1
 235 284 l 2
 217 293 198 302 180 312 c 1
 167 301 154 290 141 278 c 2
 80 226 l 1
 42 262 l 1
 103 314 l 2
 113 323 124 332 134 341 c 1
 123 349 112 357 102 366 c 0
 74 392 40 433 40 489 c 0
 40 560 101 619 176 619 c 0
 248 619 307 564 307 495 c 0
 307 436 268 395 242 369 c 0
 235 362 227 355 220 348 c 1
 233 341 247 335 261 328 c 2
 383 269 l 1
 438 305 l 1
 438 524 l 1
 349 524 l 1
 349 579 l 1
 653 579 l 1
EndSplineSet
Validated: 1
Ligature2: "Devanagari-'pres' Pre Base Substitutions lookup 12 subtable" shadeva_viramadeva.mr radeva
Ligature2: "Devanagari-'pres' Pre Base Substitutions lookup 12 subtable" shadeva viramadeva radeva
Ligature2: "Devanagari-'vatu' Vattu Variants lookup 10 subtable" shadeva viramadeva_radeva
Ligature2: "Devanagari-'vatu' Vattu Variants lookup 10 subtable" shadeva_viramadeva.alt
Ligature2: "Devanagari-'vatu' Vattu Variants lookup 10 subtable" shadeva.mr viramadeva_radeva
LCarets2: 2 0 0 
EndChar

StartChar: phadeva_radeva_nuktadeva
Encoding: 436 -1 226
Width: 775
VWidth: 1000
GlyphClass: 2
Flags: HMW
AnchorPoint: "DVAnchor3" 434 578 basechar 0
AnchorPoint: "DVAnchor0" 502 -7 basechar 0
LayerCount: 2
Fore
SplineSet
340 -71 m 1
 286 -16 l 1
 340 38 l 1
 394 -16 l 1
 340 -71 l 1
406 350 m 1
 406 524 l 1
 152 524 l 1
 152 328 l 2
 152 252 198 220 255 220 c 0
 287.029718409 220 314.619067786 232.965877576 337.618338898 252.235571935 c 1
 381.091790849 302.695828664 l 2
 391.287538322 318.477025578 399.602899506 334.806886327 406 350 c 1
495 -7 m 0
 446 -7 406 33 406 82 c 2
 406 243 l 1
 393.733361462 227.016198268 379.394127592 212.137780713 362.622770222 199.751498848 c 1
 211 26 l 2
 190 1 170 -7 140 -7 c 0
 90 -7 50 32 50 83 c 1
 107 83 l 1
 107 63 122 48 142 48 c 0
 154 48 164 50 172 60 c 2
 262.581039837 165.138706953 l 2
 260.083137201 165.046673932 257.556237551 165 255 165 c 0
 172 165 97 222 97 328 c 2
 97 524 l 1
 -20 524 l 1
 -20 579 l 1
 816 579 l 1
 816 524 l 1
 461 524 l 1
 461 381 l 1
 492 411 535 436 586 436 c 0
 675 436 746 362 746 273 c 0
 746 189 687 122 599 122 c 1
 599 177 l 1
 655 177 691 219 691 273 c 0
 691 332 645 381 587 381 c 0
 533 381 489 342 461 304 c 1
 461 82 l 2
 461 64 477 48 495 48 c 0
 508 48 518 53 524 63 c 1
 570 32 l 1
 552 6 527 -7 495 -7 c 0
EndSplineSet
Validated: 524289
EndChar

StartChar: tadeva_viramadeva_tadeva
Encoding: 437 -1 227
Width: 700
VWidth: 1000
GlyphClass: 3
Flags: HMW
LayerCount: 2
Fore
SplineSet
594 -7 m 0
 545 -7 505 33 505 82 c 2
 505 370 l 1
 354 370 l 2
 277 370 235 312 235 234 c 0
 235 192 245 155 264 125 c 0
 283 95 311 63 347 30 c 1
 309 -10 l 1
 247 49 180 113 180 234 c 0
 180 286 198 335 229 370 c 1
 40 370 l 1
 40 426 l 1
 354 426 l 1
 505 426 l 1
 505 524 l 1
 -20 524 l 1
 -20 579 l 1
 720 579 l 1
 720 524 l 1
 560 524 l 1
 560 82 l 2
 560 64 576 48 594 48 c 0
 607 48 617 53 623 63 c 1
 669 32 l 1
 651 6 626 -7 594 -7 c 0
EndSplineSet
Validated: 1
Ligature2: "Devanagari-'pres' Pre Base Substitutions lookup 12 subtable" tadeva_viramadeva tadeva
LCarets2: 1 0 
EndChar

StartChar: kadeva_viramadeva_ssadeva
Encoding: 438 -1 228
Width: 697
VWidth: 1000
GlyphClass: 2
Flags: HMW
AnchorPoint: "DVAnchor3" 526 579 basechar 0
LayerCount: 2
Fore
SplineSet
441 174 m 0
 441 126 410 94 377 74 c 1
 393 51 411 27 428 3 c 1
 381 -24 l 1
 364 1 345 26 327 52 c 1
 309 47 291 45 272 45 c 0
 206 45 143 72 97 116 c 0
 69 143 40 182 40 236 c 0
 40 309 90 348 133 372 c 1
 97 401 58 445 58 507 c 0
 58 577 117 636 191 636 c 0
 266 636 325 575 325 505 c 0
 325 437 279 396 237 370 c 1
 275 353 327 338 376 338 c 0
 430 338 467 351 502 375 c 1
 502 524 l 1
 388 524 l 1
 388 579 l 1
 717 579 l 1
 717 524 l 1
 557 524 l 1
 557 82 l 2
 557 63 572 48 591 48 c 0
 604 48 614 53 620 63 c 1
 666 32 l 1
 648 6 623 -7 591 -7 c 0
 540 -7 502 34 502 82 c 2
 502 316 l 1
 466 298 425 288 376 288 c 0
 301 288 234 311 181 340 c 1
 135 316 95 294 95 236 c 0
 95 198 113 173 136 151 c 0
 173 116 223 95 272 95 c 0
 281 95 290 97 299 98 c 1
 289 117 280 140 280 167 c 0
 280 208 307 256 362 256 c 0
 413 256 441 214 441 174 c 0
184 399 m 1
 224 420 270 449 270 505 c 0
 270 551 232 586 191 586 c 0
 151 586 113 553 113 507 c 0
 113 489 118 473 127 457 c 0
 140 435 160 416 184 399 c 1
350 117 m 1
 366 128 378 142 383 158 c 0
 385 163 386 169 386 174 c 0
 386 196 373 206 362 206 c 0
 350 206 335 194 335 167 c 0
 335 148 341 133 350 117 c 1
EndSplineSet
Validated: 1
Ligature2: "Devanagari-'akhn' Akhand lookup 6 subtable" kadeva viramadeva ssadeva
LCarets2: 2 0 0 
EndChar

StartChar: jadeva_viramadeva_nyadeva
Encoding: 439 -1 229
Width: 848
VWidth: 1000
GlyphClass: 2
Flags: HMW
AnchorPoint: "DVAnchor3" 681 579 basechar 0
LayerCount: 2
Fore
SplineSet
327 37 m 0
 388 37 445 80 445 140 c 0
 445 192 406 219 360 226 c 0
 345 228 329 229 311 229 c 2
 203 229 l 1
 171 258 l 2
 153 275 110 305 110 355 c 0
 110 444 186 451 242 451 c 2
 653 451 l 1
 653 524 l 1
 -15 524 l 1
 -15 579 l 1
 868 579 l 1
 868 524 l 1
 708 524 l 1
 708 82 l 2
 708 63 723 48 742 48 c 0
 755 48 765 53 771 63 c 1
 817 32 l 1
 799 6 774 -7 742 -7 c 0
 693 -7 653 33 653 82 c 2
 653 401 l 1
 242 401 l 2
 184 401 165 390 165 355 c 0
 165 333 185.983398438 315 209.983398438 293 c 2
 220 284 l 1
 311 284 l 2
 416 284 500 239 500 140 c 0
 500 48 419 -18 328 -18 c 0
 278 -18 233 -1 193 21 c 0
 121 62 61 119 8 179 c 1
 49 216 l 1
 100 159 156 105 220 69 c 0
 254 49 291 37 327 37 c 0
EndSplineSet
Validated: 524289
Ligature2: "Devanagari-'akhn' Akhand lookup 6 subtable" jadeva viramadeva nyadeva
LCarets2: 2 0 0 
EndChar

StartChar: kadeva_viramadeva
Encoding: 440 -1 230
Width: 549
VWidth: 1000
GlyphClass: 2
Flags: HMW
AnchorPoint: "DVAnchor3" 390 579 basechar 0
LayerCount: 2
Fore
SplineSet
418 524 m 1
 418 384 l 1
 450 404 488 417 532 417 c 0
 590 417 647 394 687 353 c 1
 645 319 l 1
 615 349 573 367 532 367 c 0
 484 367 446 347 418 316 c 1
 418 82 l 2
 418 63 433 48 452 48 c 0
 465 48 475 53 481 63 c 1
 527 32 l 1
 509 6 484 -7 452 -7 c 0
 403 -7 363 33 363 82 c 2
 363 219 l 1
 335 174 282 122 204 122 c 0
 118 122 46 191 46 276 c 0
 46 361 118 436 203 436 c 0
 262 436 315 395 315 332 c 0
 315 283 275 243 226 243 c 0
 194 243 169 256 151 282 c 1
 197 313 l 1
 203 303 213 298 226 298 c 0
 245 298 260 313 260 332 c 0
 260 363 233 381 203 381 c 0
 150 381 101 329 101 276 c 0
 101 222 149 177 204 177 c 0
 293 177 347 280 363 336 c 1
 363 524 l 1
 -20 524 l 1
 -20 579 l 1
 578 579 l 1
 578 524 l 1
 418 524 l 1
EndSplineSet
Validated: 1
Ligature2: "Devanagari-'half' Half Forms lookup 9 subtable" kadeva viramadeva
LCarets2: 1 0 
EndChar

StartChar: khadeva_viramadeva
Encoding: 441 -1 231
Width: 564
VWidth: 1000
GlyphClass: 2
Flags: HMW
LayerCount: 2
Fore
SplineSet
650 524 m 1
 258 524 l 1
 258 352 l 2
 258 277 223 218 148 218 c 0
 137 218 126 220 116 223 c 1
 159 105 283.973632812 54 388.973632812 54 c 0
 490.973632812 54 592 97 666 163 c 1
 702 121 l 1
 618 46 505 -1 391 -1 c 0
 278 -1 163 45 98 138 c 0
 65 186 47 243 47 301 c 0
 47 321 50 338 58 353 c 1
 110 337 l 1
 110 337 102.97265625 326 102.97265625 312 c 0
 102.97265625 290 125 273 148 273 c 0
 184 273 203 303 203 340 c 0
 203 368 203 478 203 524 c 1
 -15 524 l 1
 -15 579 l 1
 650 579 l 1
 650 524 l 1
672 273 m 2
 672 242 610 122 491 122 c 0
 405 122 333 191 333 276 c 0
 333 361 405 436 490 436 c 0
 549 436 602 395 602 332 c 0
 602 283 562 243 513 243 c 0
 481 243 456 256 438 282 c 1
 484 313 l 1
 490 303 500 298 513 298 c 0
 531 298 547 314 547 332 c 0
 547 363 520 381 490 381 c 0
 437 381 388 329 388 276 c 0
 388 222 436 177 491 177 c 0
 554.912109375 177 613 238 644 312 c 1
 672 312 l 1
 672 273 l 2
EndSplineSet
Validated: 524289
Ligature2: "Devanagari-'half' Half Forms lookup 9 subtable" khadeva viramadeva
LCarets2: 1 0 
EndChar

StartChar: gadeva_viramadeva
Encoding: 442 -1 232
Width: 339
VWidth: 1000
GlyphClass: 2
Flags: HMW
LayerCount: 2
Fore
SplineSet
-15 524 m 1
 -15 579 l 1
 359 579 l 1
 359 524 l 1
 249 524 l 1
 249 351 l 2
 249 303 243 268 228 232 c 0
 215 200 185 154 128 154 c 0
 74 154 34 200 34 250 c 0
 34 325 98 351 159 351 c 2
 194 351 l 1
 194 524 l 1
 -15 524 l 1
190 296 m 1
 190 296 167 296 156 296 c 0
 109 296 89 281 89 250 c 0
 89 228 107 209 128 209 c 0
 165 209 183 258 190 296 c 1
EndSplineSet
Validated: 1
Ligature2: "Devanagari-'half' Half Forms lookup 9 subtable" gadeva viramadeva
LCarets2: 1 0 
EndChar

StartChar: ghadeva_viramadeva
Encoding: 443 -1 233
Width: 398
VWidth: 1000
GlyphClass: 2
Flags: HMW
LayerCount: 2
Fore
SplineSet
247 114 m 0
 165 114 93 172 93 255 c 0
 93 296 111 326 134 348 c 1
 94 372 62 414 62 469 c 0
 62 489 67 508 74 524 c 1
 -20 524 l 1
 -20 579 l 1
 418 579 l 1
 418 524 l 1
 138 524 l 1
 128 510 117 491 117 469 c 0
 117 419 158 385 207 380 c 0
 210 380 218 380 221 380 c 2
 283 380 l 1
 283 325 l 1
 235 325 l 2
 228 325 221 325 213 325 c 0
 174 325 148 293 148 255 c 0
 148 204 195 169 247 169 c 0
 282 169 314 179 345 201 c 0
 382 228 413 263 438 303 c 1
 486 279 l 1
 458 235 424 194 380 162 c 0
 344 136 299 114 247 114 c 0
EndSplineSet
Validated: 1
Ligature2: "Devanagari-'half' Half Forms lookup 9 subtable" ghadeva viramadeva
LCarets2: 1 0 
EndChar

StartChar: ngadeva_viramadeva
Encoding: 444 -1 234
Width: 706
VWidth: 1000
GlyphClass: 2
Flags: HMW
LayerCount: 2
Fore
SplineSet
203 -176 m 1
 159 -146 l 1
 243 -43 l 1
 264 -53 l 2
 444 -137 465 -285 465 -288 c 2
 410 -294 l 1
 410 -294 393 -179 259 -107 c 1
 203 -176 l 1
327 37 m 0
 388 37 445 80 445 140 c 0
 445 192 406 219 360 226 c 0
 345 228 329 229 311 229 c 2
 203 229 l 1
 171 258 l 2
 153 275 110 305 110 355 c 0
 110 444 186 451 242 451 c 2
 384 451 l 1
 384 524 l 1
 -15 524 l 1
 -15 579 l 1
 664 579 l 1
 664 524 l 1
 439 524 l 1
 438 401 l 1
 438 401 286 401 242 401 c 0
 184 401 165 390 165 355 c 0
 165 333 186 315 210 293 c 2
 220 284 l 1
 318 284 l 2
 427 284 500 234 500 140 c 0
 500 48 419 -18 328 -18 c 0
 278 -18 233 -1 193 21 c 0
 121 62 61 119 8 179 c 1
 49 216 l 1
 100 159 156 105 220 69 c 0
 254 49 291 37 327 37 c 0
536 283 m 1
 482 338 l 1
 536 392 l 1
 590 338 l 1
 536 283 l 1
EndSplineSet
Validated: 1
Ligature2: "Devanagari-'half' Half Forms lookup 9 subtable" ngadeva viramadeva
LCarets2: 1 0 
EndChar

StartChar: cadeva_viramadeva
Encoding: 445 -1 235
Width: 386
VWidth: 1000
GlyphClass: 2
Flags: HMW
LayerCount: 2
Fore
SplineSet
478 242 m 1
 456 197 408 114 300 114 c 0
 197 114 141 190 141 272 c 0
 141 310 153 345 177 374 c 1
 15 374 l 1
 15 429 l 1
 393 429 l 1
 393 374 l 1
 294 374 l 2
 244 374 192 328 192 271 c 0
 192 212 240 169 305 169 c 0
 381.7917701 169 433.627116875 236.155466401 459.283426021 301.999998145 c 1
 478 301.999998145 l 1
 478 242 l 1
-15 524 m 1
 -15 579 l 1
 487 579 l 1
 487 524 l 1
 -15 524 l 1
EndSplineSet
Validated: 524289
Ligature2: "Devanagari-'half' Half Forms lookup 9 subtable" cadeva viramadeva
LCarets2: 1 0 
EndChar

StartChar: chadeva_viramadeva
Encoding: 446 -1 236
Width: 699
VWidth: 1000
GlyphClass: 2
Flags: HMW
LayerCount: 2
Fore
SplineSet
-15 524 m 1
 -15 579 l 1
 719 579 l 1
 719 524 l 1
 173 524 l 1
 160 504 153 480 153 456 c 0
 153 401 185 365 223 349 c 0
 236 343 251 340 265 340 c 2
 304 340 l 1
 304 290 l 1
 265 290 l 2
 255 290 246 291 236 293 c 1
 192 275 153 228 153 169 c 0
 153 98 211 44 273 44 c 0
 318 44 349 61 383 83 c 0
 410 101 436 122 460 145 c 1
 436 168 414 196 398 226 c 0
 384 252 372.971679688 281 372.971679688 317 c 0
 372.971679688 386 424 453 502 453 c 0
 578 453 628 388 628 320 c 0
 628 239 574 187 537 148 c 1
 543 143 550 138 556 134 c 0
 582 116 636 81 636 18 c 0
 636 -25 601 -63 553 -63 c 0
 548 -63 544 -63 539 -62 c 1
 549 -12 l 2
 550 -12 552 -13 553 -13 c 0
 567 -13 581 -3 581 18 c 0
 581 58 531.991210938 86 499.991210938 111 c 1
 473.991210938 86 445 63 415 43 c 0
 379 19 334 -6 273 -6 c 0
 176 -6 98 75 98 169 c 0
 98 231 130 284 175 317 c 1
 131 345 98 393 98 456 c 0
 98 479 103 503 112 524 c 1
 -15 524 l 1
497 182 m 1
 531 218 573 262 573 320 c 0
 573 369 539 403 502 403 c 0
 464 403 427.971679688 367 427.971679688 317 c 0
 427.971679688 259 466 214 497 182 c 1
EndSplineSet
Validated: 524289
Ligature2: "Devanagari-'half' Half Forms lookup 9 subtable" chadeva viramadeva
LCarets2: 1 0 
EndChar

StartChar: jadeva_viramadeva
Encoding: 447 -1 237
Width: 497
VWidth: 1000
GlyphClass: 2
Flags: HMW
LayerCount: 2
Fore
SplineSet
548 425 m 1
 548 370 l 1
 315 370 l 1
 335 348 353 323 366 296 c 0
 380 268 390 237 390 204 c 0
 390 133 338 65 254 65 c 0
 233 65 213 70 194 78 c 0
 146 98 113 136 88 174 c 0
 58 218 36 266 17 314 c 1
 68 331 l 1
 87 285 108 240 135 200 c 0
 158 166 185 135.979492188 217 122.979492188 c 0
 229 117.979492188 242 115 254 115 c 0
 300 115 335 152 335 204 c 0
 335 228 327 252 316 275 c 0
 298 311 271 344 239 370 c 1
 239 425 l 1
 548 425 l 1
-20 579 m 1
 517 579 l 1
 517 524 l 1
 -20 524 l 1
 -20 579 l 1
EndSplineSet
Validated: 524289
Ligature2: "Devanagari-'half' Half Forms lookup 9 subtable" jadeva viramadeva
LCarets2: 1 0 
EndChar

StartChar: jhadeva_viramadeva
Encoding: 448 -1 238
Width: 591
VWidth: 1000
GlyphClass: 2
Flags: HMW
LayerCount: 2
Fore
SplineSet
-15 579 m 1
 612 579 l 1
 612 524 l 1
 438 524 l 1
 438 401 l 1
 242 401 l 2
 184 401 165 390 165 355 c 0
 165 332 194 306 219 284 c 1
 311 284 l 2
 358 284 401 276 434 257 c 0
 462 244 493 238 524 238 c 0
 560 238 598 251 632 269 c 1
 632 213 l 1
 599 198 563 188 524 188 c 0
 513 188 503 189 492 190 c 1
 497 175 500 159 500 140 c 0
 500 34 401 -15 298 -15 c 0
 283 -15 266 -14 251 -12 c 1
 226 -64 184 -106 135 -133 c 1
 108 -85 l 1
 143 -65 174 -37 195 -2 c 1
 140 13 76 46 76 116 c 0
 76 165 116 204 165 204 c 0
 232 204 273 144 273 77 c 0
 273 65 271 53 269 41 c 1
 278 40 289 40 298 40 c 0
 371 40 445 69 445 140 c 0
 445 192 406 219 360 226 c 0
 345 228 329 229 311 229 c 2
 203 229 l 1
 172 255 109 289 109 357 c 0
 109 440 186 451 242 451 c 2
 383 451 l 1
 383 524 l 1
 -15 524 l 1
 -15 579 l 1
165 149 m 0
 146 149 131 135 131 116 c 0
 131 75 180 58 215 50 c 1
 217 59 218 68 218 77 c 0
 218 113 199 149 165 149 c 0
EndSplineSet
Validated: 1
Ligature2: "Devanagari-'half' Half Forms lookup 9 subtable" jhadeva viramadeva
LCarets2: 1 0 
EndChar

StartChar: nyadeva_viramadeva
Encoding: 449 -1 239
Width: 578
VWidth: 1000
GlyphClass: 2
Flags: HMW
LayerCount: 2
Fore
SplineSet
389 272 m 0
 389 344 327 402 255 402 c 0
 223 402 190 390 165 370 c 1
 131 412 l 1
 166 440 210 456 256 456 c 0
 305 456 354 437 389 402 c 0
 405 386 419 366 428 345 c 1
 430 343 l 2
 454 320 487 306 519 306 c 0
 566 306 601 332 622 356 c 1
 622 287 l 1
 592 267 556 256 519 256 c 0
 493 256 467 262 444 272 c 1
 444 166 354 87 247 87 c 0
 156 87 78 139 30 191 c 1
 70 229 l 1
 108 187 176 142 247 142 c 0
 324 142 389 196 389 272 c 0
-20 524 m 1
 -20 579 l 1
 602 579 l 1
 602 524 l 1
 -20 524 l 1
EndSplineSet
Validated: 1
Ligature2: "Devanagari-'half' Half Forms lookup 9 subtable" nyadeva viramadeva
LCarets2: 1 0 
EndChar

StartChar: ttadeva_viramadeva
Encoding: 450 -1 240
Width: 526
VWidth: 1000
GlyphClass: 2
Flags: HMW
LayerCount: 2
Fore
SplineSet
159 -176 m 1
 115 -146 l 1
 199 -43 l 1
 220 -53 l 2
 400 -137 421 -285 421 -288 c 2
 366 -294 l 1
 366 -294 349 -179 215 -107 c 1
 159 -176 l 1
-20 579 m 1
 546 579 l 1
 546 524 l 1
 377 524 l 1
 377 370 l 1
 225 370 l 2
 152 370 106 348 106 278 c 0
 106 197 198 109 281 108 c 0
 360 108 429 164 466 212 c 1
 505 172 l 1
 459 115 376 53 281 53 c 0
 160 53 51 159 51 278 c 0
 51 379 124 425 225 425 c 2
 322 425 l 1
 322 524 l 1
 -20 524 l 1
 -20 579 l 1
EndSplineSet
Validated: 1
Ligature2: "Devanagari-'half' Half Forms lookup 9 subtable" ttadeva viramadeva
LCarets2: 1 0 
EndChar

StartChar: tthadeva_viramadeva
Encoding: 451 -1 241
Width: 550
VWidth: 1000
GlyphClass: 2
Flags: HMW
LayerCount: 2
Fore
SplineSet
153 -176 m 1
 109 -146 l 1
 193 -43 l 1
 214 -53 l 2
 394 -137 415 -285 415 -288 c 2
 360 -294 l 1
 360 -294 343 -179 209 -107 c 1
 153 -176 l 1
-20 579 m 1
 570 579 l 1
 570 524 l 1
 345 524 l 1
 345 370 l 1
 290 370 l 1
 233 370 l 2
 160 370 114 348 114 278 c 0
 114 198 207 108 290 108 c 0
 381 108 456 179 456 269 c 0
 456 321 422 361 378 367 c 1
 402 418 l 1
 463 402 511 346 511 269 c 0
 511 147 411 53 289 53 c 0
 168 53 59 159 59 278 c 0
 59 379 132 425 233 425 c 2
 290 425 l 1
 290 524 l 1
 -20 524 l 1
 -20 579 l 1
EndSplineSet
Validated: 1
Ligature2: "Devanagari-'half' Half Forms lookup 9 subtable" tthadeva viramadeva
LCarets2: 1 0 
EndChar

StartChar: ddadeva_viramadeva
Encoding: 452 -1 242
Width: 536
VWidth: 1000
GlyphClass: 2
Flags: HMW
LayerCount: 2
Fore
SplineSet
168 -176 m 1
 124 -146 l 1
 208 -43 l 1
 229 -53 l 2
 409 -137 430 -285 430 -288 c 2
 375 -294 l 1
 375 -294 358 -179 224 -107 c 1
 168 -176 l 1
-15 579 m 1
 551 579 l 1
 551 524 l 1
 439 524 l 1
 438 401 l 1
 438 401 286 401 242 401 c 0
 184 401 165 390 165 355 c 0
 165 333 186 315 210 293 c 2
 220 284 l 1
 311 284 l 2
 416 284 500 244 500 140 c 0
 500 48 419 -18 328 -18 c 0
 278 -18 233 -1 193 21 c 0
 121 62 61 119 8 179 c 1
 49 216 l 1
 100 159 156 105 220 69 c 0
 254 49 291 37 327 37 c 0
 388 37 445 80 445 140 c 0
 445 192 406 219 360 226 c 0
 345 228 329 229 311 229 c 2
 203 229 l 1
 171 258 l 2
 153 275 110 305 110 355 c 0
 110 444 186 451 242 451 c 2
 384 451 l 1
 384 524 l 1
 -15 524 l 1
 -15 579 l 1
EndSplineSet
Validated: 1
Ligature2: "Devanagari-'half' Half Forms lookup 9 subtable" ddadeva viramadeva
LCarets2: 1 0 
EndChar

StartChar: ddhadeva_viramadeva
Encoding: 453 -1 243
Width: 516
VWidth: 1000
GlyphClass: 2
Flags: HMW
LayerCount: 2
Fore
SplineSet
154 -176 m 1
 110 -146 l 1
 194 -43 l 1
 215 -53 l 2
 395 -137 416 -285 416 -288 c 2
 361 -294 l 1
 361 -294 344 -179 210 -107 c 1
 154 -176 l 1
-20 579 m 1
 531 579 l 1
 531 524 l 1
 419 524 l 1
 419 370 l 1
 258 370 l 2
 168 370 106 344 106 269 c 0
 106 172 214 78 311 78 c 0
 374 78 422 118 422 183 c 0
 422 239 377 283 330 283 c 0
 300 283 275 264 275 236 c 0
 275 214 293 201 306 201 c 0
 310 201 315 202 321 206 c 1
 338 157 l 1
 328 153 317 151 306 151 c 0
 257 151 220 191 220 236 c 0
 220 296 276 333 330 333 c 0
 415 333 477 260 477 183 c 0
 477 92 403 28 311 28 c 0
 182 28 51 143 51 269 c 0
 51 385 160 420 258 420 c 2
 364 420 l 1
 364 524 l 1
 -20 524 l 1
 -20 579 l 1
EndSplineSet
Validated: 1
Ligature2: "Devanagari-'half' Half Forms lookup 9 subtable" ddhadeva viramadeva
LCarets2: 1 0 
EndChar

StartChar: nnadeva_viramadeva
Encoding: 454 -1 244
Width: 481
VWidth: 1000
GlyphClass: 2
Flags: HMW
LayerCount: 2
Fore
SplineSet
143 524 m 1
 143 253 l 2
 143 210 182 174 230 174 c 0
 277 174 315 209 315 253 c 2
 315 524 l 1
 143 524 l 1
-20 579 m 1
 501 579 l 1
 501 524 l 1
 370 524 l 1
 370 253 l 2
 370 183 309 124 230 124 c 0
 152 124 88 182 88 253 c 2
 88 524 l 1
 -20 524 l 1
 -20 579 l 1
EndSplineSet
Validated: 1
Ligature2: "Devanagari-'half' Half Forms lookup 9 subtable" nnadeva viramadeva
LCarets2: 1 0 
EndChar

StartChar: tadeva_viramadeva
Encoding: 455 -1 245
Width: 304
VWidth: 1000
GlyphClass: 2
Flags: HMW
LayerCount: 2
Fore
SplineSet
-20 579 m 1
 424 579 l 1
 424 524 l 1
 -20 524 l 1
 -20 579 l 1
81 234 m 0
 81 338 151 426 255 426 c 2
 443 426 l 1
 443 370 l 1
 255 370 l 2
 178 370 136 312 136 234 c 0
 136 192 146 155 165 125 c 0
 184 95 212 63 248 30 c 1
 210 -10 l 1
 148 49 81 113 81 234 c 0
EndSplineSet
Validated: 1
Ligature2: "Devanagari-'half' Half Forms lookup 9 subtable" tadeva viramadeva
LCarets2: 1 0 
EndChar

StartChar: thadeva_viramadeva
Encoding: 456 -1 246
Width: 404
VWidth: 1000
GlyphClass: 2
Flags: HMW
LayerCount: 2
Fore
SplineSet
104 313 m 2
 172 313 285 348 285 481 c 0
 285 532 248 565 200 565 c 0
 163 565 132 534 132 497 c 0
 132 473 144 451 168 451 c 0
 185 451 196 458.991210938 201 470.991210938 c 1
 251 449 l 1
 236 417 209 395 167 395 c 0
 112 395 77 442 77 497 c 0
 77 563 132 620 200 620 c 0
 279 620 340 559 340 480 c 0
 340 321 211 270 149 261 c 1
 177 211 234 165 309 165 c 0
 464 165 515 356 515 356 c 1
 515 249 l 1
 462 156 394 110 309 110 c 0
 151 110 91 255 91 255 c 1
 91 313 l 1
 104 313 l 2
EndSplineSet
Validated: 524289
Ligature2: "Devanagari-'half' Half Forms lookup 9 subtable" thadeva viramadeva
LCarets2: 1 0 
EndChar

StartChar: dadeva_viramadeva
Encoding: 457 -1 247
Width: 510
VWidth: 1000
GlyphClass: 2
Flags: HMW
LayerCount: 2
Fore
SplineSet
235 -176 m 1
 191 -146 l 1
 275 -43 l 1
 296 -53 l 2
 315.762426847 -62.2224658617 333.608248481 -72.2163954565 349.720099091 -82.7051906345 c 1
 374.96296308 -77.9343123703 396 -54.313957431 396 -24 c 1
 396 24 350 54 319 78 c 1
 309 77 300 76 290 76 c 0
 174 76 51 154 51 276 c 0
 51 365 128 425 212 425 c 2
 358 425 l 1
 358 524 l 1
 -20 524 l 1
 -20 579 l 1
 530 579 l 1
 530 524 l 1
 413 524 l 1
 413 370 l 1
 229 370 l 2
 157 370 106 344 106 275 c 0
 106 191 193 142 267 133 c 1
 257 150 249 170 249 193 c 0
 249 248 291 290 343 290 c 0
 395 290 437 246 437 194 c 0
 437 149 409 118 380 100 c 1
 413 73 451 34 451 -24 c 0
 451 -61.7404396403 429.957107527 -99.9192728738 399.772232137 -121.410800585 c 1
 484.845600238 -199.512104318 497 -285.717670385 497 -288 c 2
 442 -294 l 1
 442 -294 425 -179 291 -107 c 1
 235 -176 l 1
342 234 m 0
 322 234 304 215 304 195 c 0
 304 173 321 150 333 138 c 1
 357 146 382 164 382 194 c 0
 382 217 362 234 342 234 c 0
EndSplineSet
Validated: 524289
Ligature2: "Devanagari-'half' Half Forms lookup 9 subtable" dadeva viramadeva
Ligature2: "Devanagari-'haln' Halant Forms lookup 0 subtable" dadeva viramadeva
LCarets2: 1 0 
EndChar

StartChar: dhadeva_viramadeva
Encoding: 458 -1 248
Width: 379
VWidth: 1000
GlyphClass: 2
Flags: HMW
LayerCount: 2
Fore
SplineSet
281 516 m 0
 281 547 254 565 224 565 c 0
 176 565 136 538 136 488 c 0
 136 432 172 383 201 364 c 1
 219 371 240 374 263 374 c 2
 332 374 l 1
 332 319 l 1
 263 319 l 2
 204 319 153 274 153 216 c 0
 153 154 201 114 262 114 c 0
 358 114 432 198 465 265 c 1
 465 162 l 1
 425 117 343 59 262 59 c 0
 169 59 102 126 102 216 c 0
 102 261 120 303 151 333 c 1
 113 367 80 423 80 488 c 0
 80 577 158 620 224 620 c 0
 283 620 336 579 336 516 c 0
 336 467 296 427 247 427 c 0
 215 427 190 440 172 466 c 1
 218 497 l 1
 224 487 234 482 247 482 c 0
 265 482 281 498 281 516 c 0
EndSplineSet
Validated: 1
Ligature2: "Devanagari-'half' Half Forms lookup 9 subtable" dhadeva viramadeva
LCarets2: 1 0 
EndChar

StartChar: nadeva_viramadeva
Encoding: 459 -1 249
Width: 427
VWidth: 1000
GlyphClass: 2
Flags: HMW
LayerCount: 2
Fore
SplineSet
-20 579 m 1
 447 579 l 1
 447 524 l 1
 -20 524 l 1
 -20 579 l 1
513 351 m 1
 513 296 l 1
 246 296 l 1
 243 274 238 253 229 232 c 0
 216 200 186 154 129 154 c 0
 75 154 35 199 35 249 c 0
 35 322 98 351 157 351 c 2
 513 351 l 1
191 296 m 1
 160 296 l 2
 159 296 158 296 157 296 c 0
 110 296 90 280 90 249 c 0
 90 227 108 209 129 209 c 0
 151 209 168 227 179 253 c 0
 185 267 188 281 191 296 c 1
EndSplineSet
Validated: 1
Ligature2: "Devanagari-'half' Half Forms lookup 9 subtable" nadeva viramadeva
LCarets2: 1 0 
EndChar

StartChar: nnnadeva_viramadeva
Encoding: 460 -1 250
Width: 427
VWidth: 1000
GlyphClass: 2
Flags: HMW
LayerCount: 2
Fore
SplineSet
-20 579 m 1
 447 579 l 1
 447 524 l 1
 -20 524 l 1
 -20 579 l 1
513 351 m 1
 513 296 l 1
 246 296 l 1
 243 274 238 253 229 232 c 0
 216 200 186 154 129 154 c 0
 75 154 35 199 35 249 c 0
 35 322 98 351 157 351 c 2
 513 351 l 1
191 296 m 1
 160 296 l 2
 159 296 158 296 157 296 c 0
 110 296 90 280 90 249 c 0
 90 227 108 209 129 209 c 0
 151 209 168 227 179 253 c 0
 185 267 188 281 191 296 c 1
138 -71 m 1
 84 -16 l 1
 138 38 l 1
 192 -16 l 1
 138 -71 l 1
EndSplineSet
Validated: 1
Ligature2: "Devanagari-'half' Half Forms lookup 9 subtable" nnnadeva viramadeva
LCarets2: 1 0 
EndChar

StartChar: padeva_viramadeva
Encoding: 461 -1 251
Width: 310
VWidth: 1000
GlyphClass: 2
Flags: HMW
LayerCount: 2
Fore
SplineSet
412 343 m 1
 413 266 l 1
 381 213 328 165 246 165 c 0
 163 165 88 222 88 328 c 2
 88 524 l 1
 -20 524 l 1
 -20 579 l 1
 415 579 l 1
 415 524 l 1
 142 524 l 1
 142 328 l 2
 142 252 189 220 246 220 c 0
 318.546210503 220 368.531752889 286.328364264 393.531899782 341.999998627 c 1
 412 343 l 1
EndSplineSet
Validated: 524289
Ligature2: "Devanagari-'half' Half Forms lookup 9 subtable" padeva viramadeva
LCarets2: 1 0 
EndChar

StartChar: phadeva_viramadeva
Encoding: 462 -1 252
Width: 592
VWidth: 1000
GlyphClass: 2
Flags: HMW
AnchorPoint: "DVAnchor3" 422 579 basechar 0
LayerCount: 2
Fore
SplineSet
142 524 m 1
 142 328 l 2
 142 252 189 220 246 220 c 0
 322 220 373 293 397 350 c 1
 397 524 l 1
 142 524 l 1
486 48 m 0
 499 48 509 53 515 63 c 1
 561 32 l 1
 543 6 518 -7 486 -7 c 0
 437 -7 397 33 397 82 c 2
 397 242 l 1
 364 199 316 165 246 165 c 0
 163 165 88 222 88 328 c 2
 88 524 l 1
 -20 524 l 1
 -20 579 l 1
 612 579 l 1
 612 524 l 1
 452 524 l 1
 452 381 l 1
 483 410 527 436 577 436 c 0
 591 436 603 434 616 431 c 1
 616 374 l 1
 605 379 591 381 578 381 c 0
 523 381 480 342 452 304 c 1
 452 82 l 2
 452 63 467 48 486 48 c 0
EndSplineSet
Validated: 1
Ligature2: "Devanagari-'half' Half Forms lookup 9 subtable" phadeva viramadeva
LCarets2: 1 0 
EndChar

StartChar: badeva_viramadeva
Encoding: 463 -1 253
Width: 327
VWidth: 1000
GlyphClass: 2
Flags: HMW
LayerCount: 2
Fore
SplineSet
296 193 m 1
 147 342 l 1
 133 325 124 303 124 278 c 0
 124 218 174 174 233 174 c 0
 255 174 276 181 296 193 c 1
249 441 m 0
 273 441 295.999997958 438 317.999997958 433 c 1
 317.999997958 375 l 1
 294.999997958 382 271 386 249 386 c 0
 228 386 208 382 190 375 c 1
 339 226 l 1
 361.108024753 248.108024753 380.30830892 274.709830411 394.29041949 301.999997898 c 1
 418 301.999997898 l 1
 418 227 l 1
 383 185 318 119 233 119 c 0
 145 119 69 187 69 278 c 0
 69 376 151 441 249 441 c 0
408 524 m 1
 -15 524 l 1
 -15 579 l 1
 408 579 l 1
 408 524 l 1
EndSplineSet
Validated: 524289
Ligature2: "Devanagari-'half' Half Forms lookup 9 subtable" badeva viramadeva
LCarets2: 1 0 
EndChar

StartChar: bhadeva_viramadeva
Encoding: 464 -1 254
Width: 485
VWidth: 1000
GlyphClass: 2
Flags: HMW
LayerCount: 2
Fore
SplineSet
569 321 m 1
 569 266 l 1
 307 266 l 1
 304 244 299 223 290 202 c 0
 277 170 247 124 190 124 c 0
 136 124 96 170 96 220 c 0
 96 293 159 321 218 321 c 2
 256 321 l 1
 257 480 l 1
 257 481 l 2
 257 532 220 565 172 565 c 0
 135 565 104 534 104 497 c 0
 104 473 116 451 140 451 c 0
 157 451 168 459 173 471 c 1
 223 449 l 1
 208 417 181 395 139 395 c 0
 84 395 49 442 49 497 c 0
 49 563 104 620 172 620 c 0
 251 620 312 559 312 480 c 2
 311 321 l 1
 569 321 l 1
252 266 m 1
 218 266 l 2
 171 266 151 251 151 220 c 0
 151 198 169 179 190 179 c 0
 227 179 245 228 252 266 c 1
EndSplineSet
Validated: 1
Ligature2: "Devanagari-'half' Half Forms lookup 9 subtable" bhadeva viramadeva
LCarets2: 1 0 
EndChar

StartChar: madeva_viramadeva
Encoding: 465 -1 255
Width: 436
VWidth: 1000
GlyphClass: 2
Flags: HMW
LayerCount: 2
Fore
SplineSet
521 321 m 1
 521 266 l 1
 245 266 l 1
 236 266 l 1
 233 244 228 223 219 202 c 0
 206 170 176 124 119 124 c 0
 65 124 25 170 25 220 c 0
 25 293 88 321 147 321 c 0
 148 321 149 321 150 321 c 2
 185 321 l 1
 185 524 l 1
 -20 524 l 1
 -20 579 l 1
 456 579 l 1
 456 524 l 1
 240 524 l 1
 240 321 l 1
 245 321 l 1
 521 321 l 1
181 266 m 1
 150 266 l 2
 149 266 148 266 147 266 c 0
 100 266 80 251 80 220 c 0
 80 198 98 179 119 179 c 0
 141 179 158 197 169 223 c 0
 175 237 178 251 181 266 c 1
EndSplineSet
Validated: 1
Ligature2: "Devanagari-'half' Half Forms lookup 9 subtable" madeva viramadeva
LCarets2: 1 0 
EndChar

StartChar: yadeva_viramadeva
Encoding: 466 -1 256
Width: 435
VWidth: 1000
GlyphClass: 2
Flags: HMW
LayerCount: 2
Fore
SplineSet
437 258 m 1
 437 182 l 1
 393 134 340 110 279 110 c 0
 142 110 72 222 61 255 c 1
 61 313 l 1
 83 313 l 2
 165 313 215 361 215 416 c 0
 215 492 174 519 164 524 c 1
 -20 524 l 1
 -20 579 l 1
 652 579 l 1
 652 524 l 1
 241 524 l 1
 257 499 271 464 271 416 c 0
 271 334 205 274 119 261 c 1
 147 211 204 165 279 165 c 0
 353 165 409 209 437 258 c 1
EndSplineSet
Validated: 1
Ligature2: "Devanagari-'half' Half Forms lookup 9 subtable" yadeva viramadeva
LCarets2: 1 0 
EndChar

StartChar: isigndeva.alt2
Encoding: 467 -1 257
Width: 259
VWidth: 1000
GlyphClass: 4
Flags: HMW
LayerCount: 2
Fore
SplineSet
200.543375513 579 m 1
 353 579 l 1
 353 524 l 1
 195 524 l 1
 195 82 l 2
 195 63 210 48 229 48 c 0
 242 48 252 53 258 63 c 1
 304 32 l 1
 286 6 261 -7 229 -7 c 0
 180 -7 140 33 140 82 c 2
 140 524 l 1
 -20 524 l 1
 -20 579 l 1
 130.979717692 579 l 1
 124.086939464 593.92878346 120 611.035541852 120 630 c 0
 120 710 183 756 229 778 c 0
 298 812 386 821 475 821 c 0
 713 821 1051 788 1107 557 c 1
 1053 543 l 1
 1010 720 722 766 475 766 c 0
 389 766 310 756 253 728 c 0
 212 708 175 676 175 630 c 0
 175 605.814719014 186.230614075 589.116514077 200.543375513 579 c 1
EndSplineSet
Validated: 524289
Substitution2: "Lohit-Devanagari-Single Substitution lookup 34 subtable" isigndeva.alt1
EndChar

StartChar: isigndeva_anusvara.alt2
Encoding: 468 -1 258
Width: 333
VWidth: 1000
GlyphClass: 4
Flags: HMW
LayerCount: 2
Fore
SplineSet
1088 711 m 1
 1034 766 l 1
 1088 820 l 1
 1142 766 l 1
 1088 711 l 1
200.543375513 579 m 1
 353 579 l 1
 353 524 l 1
 195 524 l 1
 195 82 l 2
 195 63 210 48 229 48 c 0
 242 48 252 53 258 63 c 1
 304 32 l 1
 286 6 261 -7 229 -7 c 0
 180 -7 140 33 140 82 c 2
 140 524 l 1
 -20 524 l 1
 -20 579 l 1
 130.979717692 579 l 1
 124.086939464 593.92878346 120 611.035541852 120 630 c 0
 120 710 183 756 229 778 c 0
 298 812 386 821 475 821 c 0
 713 821 1051 788 1107 557 c 1
 1053 543 l 1
 1010 720 722 766 475 766 c 0
 389 766 310 756 253 728 c 0
 212 708 175 676 175 630 c 0
 175 605.814719014 186.230614075 589.116514077 200.543375513 579 c 1
EndSplineSet
Validated: 524289
Substitution2: "Lohit-Devanagari-Single Substitution lookup 34 subtable" isigndeva_anusvara.alt1
Ligature2: "Lohit-Devanagari-'pres' Pre Base Substitutions lookup 24 subtable" isigndeva.alt2 anusvaradeva
LCarets2: 1 0 
EndChar

StartChar: ladeva_viramadeva
Encoding: 469 -1 259
Width: 347
VWidth: 1000
GlyphClass: 2
Flags: HMW
LayerCount: 2
Fore
SplineSet
-20 579 m 1
 519 579 l 1
 519 524 l 1
 -20 524 l 1
 -20 579 l 1
468 370 m 2
 394 370 337 324 337 249 c 1
 282 249 l 1
 282 287 293 319 310 345 c 1
 293 363 269 375 238 375 c 0
 165 375 120 312 120 239 c 0
 120 130 202 49 276 7 c 1
 249 -41 l 1
 160 9 65 105 65 239 c 0
 65 343 133 430 237 430 c 0
 283 430 320 412 347 385 c 1
 381 412 418 425 468 425 c 2
 539 425 l 1
 539 370 l 1
 468 370 l 2
EndSplineSet
Validated: 1
Ligature2: "Devanagari-'half' Half Forms lookup 9 subtable" ladeva viramadeva
Ligature2: "Devanagari-'half' Half Forms lookup 9 subtable" ladeva.mr viramadeva
LCarets2: 1 0 
EndChar

StartChar: lladeva_viramadeva
Encoding: 470 -1 260
Width: 697
VWidth: 1000
GlyphClass: 2
Flags: HMW
LayerCount: 2
Fore
SplineSet
334 295 m 1
 332 294 l 1
 302 338 255 380 203 380 c 0
 140 380 96 322 96 249 c 0
 96 169 143 110 206 110 c 0
 251 110 283.991210938 143 299.991210938 187 c 0
 311.991210938 218 322 258 334 295 c 1
363 203 m 1
 364 203 l 1
 394 159 441 110 491 110 c 0
 552 110 598 174 598 248 c 0
 598 327 554 380 488 380 c 0
 440 380 417 356 399 314 c 0
 398 311 396 308 395 305 c 0
 383 275 374 238 363 203 c 1
356 350 m 1
 379 393 420 430 488 430 c 0
 595 430 652 342 652 248 c 0
 652 164 600 60 491 60 c 0
 423 60 372 106 340 145 c 1
 316 102 272 60 206 60 c 0
 98 60 42 157 42 249 c 0
 42 334 96 430 203 430 c 0
 270 430 322 390 356 350 c 1
-15 524 m 1
 -15 579 l 1
 712 579 l 1
 712 524 l 1
 -15 524 l 1
EndSplineSet
Validated: 524289
Ligature2: "Devanagari-'half' Half Forms lookup 9 subtable" lladeva viramadeva
LCarets2: 1 0 
EndChar

StartChar: llladeva_viramadeva
Encoding: 471 -1 261
Width: 697
VWidth: 1000
GlyphClass: 2
Flags: HMW
LayerCount: 2
Fore
SplineSet
345 -83 m 1
 291 -28 l 1
 345 26 l 1
 399 -28 l 1
 345 -83 l 1
334 295 m 1
 332 294 l 1
 302 338 255 380 203 380 c 0
 140 380 96 322 96 249 c 0
 96 169 143 110 206 110 c 0
 251 110 284 143 300 187 c 0
 312 218 322 258 334 295 c 1
363 203 m 1
 364 203 l 1
 394 159 441 110 491 110 c 0
 552 110 598 174 598 248 c 0
 598 327 554 380 488 380 c 0
 440 380 417 356 399 314 c 0
 398 311 396 308 395 305 c 0
 383 275 374 238 363 203 c 1
356 350 m 1
 379 393 420 430 488 430 c 0
 595 430 652 342 652 248 c 0
 652 164 600 60 491 60 c 0
 423 60 372 106 340 145 c 1
 316 102 272 60 206 60 c 0
 98 60 42 157 42 249 c 0
 42 334 96 430 203 430 c 0
 270 430 322 390 356 350 c 1
-15 524 m 1
 -15 579 l 1
 712 579 l 1
 712 524 l 1
 -15 524 l 1
EndSplineSet
Validated: 1
Ligature2: "Devanagari-'half' Half Forms lookup 9 subtable" llladeva viramadeva
LCarets2: 1 0 
EndChar

StartChar: vadeva_viramadeva
Encoding: 472 -1 262
Width: 273
VWidth: 1000
GlyphClass: 2
Flags: HMW
LayerCount: 2
Fore
SplineSet
323 524 m 1
 -15 524 l 1
 -15 579 l 1
 323 579 l 1
 323 524 l 1
375 273 m 2
 375 242 313 122 194 122 c 0
 108 122 36 191 36 276 c 0
 36 361 108 436 193 436 c 0
 252 436 305 395 305 332 c 0
 305 283 265 243 216 243 c 0
 184 243 159 256 141 282 c 1
 187 313 l 1
 193 303 203 298 216 298 c 0
 234 298 250 314 250 332 c 0
 250 363 223 381 193 381 c 0
 140 381 91 329 91 276 c 0
 91 222 139 177 194 177 c 0
 257.912116907 177 316 238 347 312 c 1
 375 312 l 1
 375 273 l 2
EndSplineSet
Validated: 524289
Ligature2: "Devanagari-'half' Half Forms lookup 9 subtable" vadeva viramadeva
LCarets2: 1 0 
EndChar

StartChar: shadeva_viramadeva
Encoding: 473 -1 263
Width: 443
VWidth: 1000
GlyphClass: 2
Flags: HMW
LayerCount: 2
Fore
SplineSet
41 230 m 1
 77 267 l 1
 129 225 l 1
 149 214 170 209 191 209 c 0
 264 209 335 271 335 379 c 0
 335 468 285 565 183 565 c 0
 146 565 115 534 115 497 c 0
 115 473 127 451 151 451 c 0
 168 451 179 459 184 471 c 1
 234 449 l 1
 219 417 192 395 150 395 c 0
 95 395 60 442 60 497 c 0
 60 563 115 620 183 620 c 0
 317 620 390 493 390 379 c 0
 390 273 325 159 212 159 c 0
 211 159 211 159 210 159 c 2
 406 0 l 1
 370 -37 l 1
 41 230 l 1
EndSplineSet
Validated: 1
Ligature2: "Devanagari-'half' Half Forms lookup 9 subtable" shadeva viramadeva
LCarets2: 1 0 
EndChar

StartChar: ssadeva_viramadeva
Encoding: 474 -1 264
Width: 331
VWidth: 1000
GlyphClass: 2
Flags: HMW
LayerCount: 2
Fore
SplineSet
436 305 m 1
 436 276 l 1
 395 222 352 165 260 165 c 0
 177 165 102 222 102 328 c 2
 102 524 l 1
 -15 524 l 1
 -15 579 l 1
 426 579 l 1
 426 524 l 1
 158 524 l 1
 436 305 l 1
373 284 m 1
 156 456 l 1
 156 328 l 2
 156 252 203 220 260 220 c 0
 308 220 345 248 373 284 c 1
EndSplineSet
Validated: 1
Ligature2: "Devanagari-'half' Half Forms lookup 9 subtable" ssadeva viramadeva
LCarets2: 1 0 
EndChar

StartChar: sadeva_viramadeva
Encoding: 475 -1 265
Width: 430
VWidth: 1000
GlyphClass: 2
Flags: HMW
LayerCount: 2
Fore
SplineSet
469 320 m 1
 469 265 l 1
 198 265 l 1
 180 236 151 217 109 217 c 0
 97 217 86 219 75 223 c 1
 88 180 112 140 144 109 c 0
 181 74 230 51 280 43 c 1
 280 -8 l 1
 214 0 153 30 105 75 c 0
 44 133 9 214 9 297 c 0
 9 320 10 335 18 352 c 1
 70 336 l 1
 70 336 63.97265625 325 63.97265625 311 c 0
 63.97265625 289 86 272 109 272 c 0
 145 272 164 302 164 339 c 0
 164 367 164 478 164 524 c 1
 -15 524 l 1
 -15 579 l 1
 450 579 l 1
 450 524 l 1
 219 524 l 1
 219 351 l 2
 219 340 218 330 217 320 c 1
 469 320 l 1
EndSplineSet
Validated: 524289
Ligature2: "Devanagari-'half' Half Forms lookup 9 subtable" sadeva viramadeva
LCarets2: 1 0 
EndChar

StartChar: hadeva_viramadeva
Encoding: 476 -1 266
Width: 536
VWidth: 1000
GlyphClass: 2
Flags: HMW
LayerCount: 2
Fore
SplineSet
-15 579 m 1
 551 579 l 1
 551 524 l 1
 439 524 l 1
 438 401 l 1
 438 401 286 401 242 401 c 0
 184 401 165 390 165 355 c 0
 165 336 182 319 202 300 c 1
 227 308 254 312 285 312 c 2
 576 312 l 1
 576 257 l 1
 285 257 l 2
 206 257 138 225 136 150 c 1
 139 105 166 74 192 57 c 0
 246 21 322 2 420 0 c 1
 418 -55 l 1
 309 -53 224 -30 162 12 c 0
 119 40 80 88 80 151 c 0
 80 207 116 252 151 276 c 1
 132 294 110 319 110 355 c 0
 110 444 186 451 242 451 c 2
 384 451 l 1
 384 524 l 1
 -15 524 l 1
 -15 579 l 1
EndSplineSet
Validated: 1
Ligature2: "Devanagari-'half' Half Forms lookup 9 subtable" hadeva viramadeva
LCarets2: 1 0 
EndChar

StartChar: qadeva_viramadeva
Encoding: 477 -1 267
Width: 570
VWidth: 1000
GlyphClass: 2
Flags: HMW
LayerCount: 2
Fore
SplineSet
188 -71 m 1
 134 -16 l 1
 188 38 l 1
 242 -16 l 1
 188 -71 l 1
418 524 m 1
 418 384 l 1
 450 404 488 417 532 417 c 0
 590 417 647 394 687 353 c 1
 645 319 l 1
 615 349 573 367 532 367 c 0
 484 367 446 347 418 316 c 1
 418 82 l 2
 418 63 433 48 452 48 c 0
 465 48 475 53 481 63 c 1
 527 32 l 1
 509 6 484 -7 452 -7 c 0
 403 -7 363 33 363 82 c 2
 363 219 l 1
 335 174 282 122 204 122 c 0
 118 122 46 191 46 276 c 0
 46 361 118 436 203 436 c 0
 262 436 315 395 315 332 c 0
 315 283 275 243 226 243 c 0
 194 243 169 256 151 282 c 1
 197 313 l 1
 203 303 213 298 226 298 c 0
 245 298 260 313 260 332 c 0
 260 363 233 381 203 381 c 0
 150 381 101 329 101 276 c 0
 101 222 149 177 204 177 c 0
 293 177 347 280 363 336 c 1
 363 524 l 1
 -20 524 l 1
 -20 579 l 1
 578 579 l 1
 578 524 l 1
 418 524 l 1
EndSplineSet
Validated: 1
Ligature2: "Devanagari-'half' Half Forms lookup 9 subtable" qadeva viramadeva
LCarets2: 1 0 
EndChar

StartChar: khhadeva_viramadeva
Encoding: 478 -1 268
Width: 630
VWidth: 1000
GlyphClass: 2
Flags: HMW
LayerCount: 2
Fore
SplineSet
118 -70 m 1
 64 -15 l 1
 118 39 l 1
 172 -15 l 1
 118 -70 l 1
650 524 m 1
 258 524 l 1
 258 352 l 2
 258 277 223 218 148 218 c 0
 137 218 126 220 116 223 c 1
 159 105 284 54 389 54 c 0
 491 54 592 97 666 163 c 1
 702 121 l 1
 618 46 505 -1 391 -1 c 0
 278 -1 163 45 98 138 c 0
 65 186 47 243 47 301 c 0
 47 321 50 338 58 353 c 1
 110 337 l 1
 110 337 103 326 103 312 c 0
 103 290 125 273 148 273 c 0
 184 273 203 303 203 340 c 0
 203 368 203 478 203 524 c 1
 -15 524 l 1
 -15 579 l 1
 650 579 l 1
 650 524 l 1
672 273 m 2
 672 242 610 122 491 122 c 0
 405 122 333 191 333 276 c 0
 333 361 405 436 490 436 c 0
 549 436 602 395 602 332 c 0
 602 283 562 243 513 243 c 0
 481 243 456 256 438 282 c 1
 484 313 l 1
 490 303 500 298 513 298 c 0
 531 298 547 314 547 332 c 0
 547 363 520 381 490 381 c 0
 437 381 388 329 388 276 c 0
 388 222 436 177 491 177 c 0
 554.912109375 177 613 238 644 312 c 1
 672 312 l 1
 672 273 l 2
EndSplineSet
Validated: 524289
Ligature2: "Devanagari-'half' Half Forms lookup 9 subtable" khhadeva viramadeva
LCarets2: 1 0 
EndChar

StartChar: ghhadeva_viramadeva
Encoding: 479 -1 269
Width: 389
VWidth: 1000
GlyphClass: 2
Flags: HMW
LayerCount: 2
Fore
SplineSet
138 -71 m 1
 84 -16 l 1
 138 38 l 1
 192 -16 l 1
 138 -71 l 1
-15 524 m 1
 -15 579 l 1
 359 579 l 1
 359 524 l 1
 249 524 l 1
 249 351 l 2
 249 303 243 268 228 232 c 0
 215 200 185 154 128 154 c 0
 74 154 34 200 34 250 c 0
 34 325 98 351 159 351 c 2
 194 351 l 1
 194 524 l 1
 -15 524 l 1
190 296 m 1
 190 296 167 296 156 296 c 0
 109 296 89 281 89 250 c 0
 89 228 107 209 128 209 c 0
 165 209 183 258 190 296 c 1
EndSplineSet
Validated: 1
Ligature2: "Devanagari-'half' Half Forms lookup 9 subtable" ghhadeva viramadeva
LCarets2: 1 0 
EndChar

StartChar: zadeva_viramadeva
Encoding: 480 -1 270
Width: 534
VWidth: 1000
GlyphClass: 2
Flags: HMW
LayerCount: 2
Fore
SplineSet
122 -71 m 1
 68 -16 l 1
 122 38 l 1
 176 -16 l 1
 122 -71 l 1
548 425 m 1
 548 370 l 1
 315 370 l 1
 335 348 353 323 366 296 c 0
 380 268 390 237 390 204 c 0
 390 133 338 65 254 65 c 0
 233 65 213 70 194 78 c 0
 146 98 113 136 88 174 c 0
 58 218 36 266 17 314 c 1
 68 331 l 1
 87 285 108 240 135 200 c 0
 158 166 185 136 217 123 c 0
 229 118 242 115 254 115 c 0
 300 115 335 152 335 204 c 0
 335 228 327 252 316 275 c 0
 298 311 271 344 239 370 c 1
 239 425 l 1
 548 425 l 1
-20 579 m 1
 517 579 l 1
 517 524 l 1
 -20 524 l 1
 -20 579 l 1
EndSplineSet
Validated: 1
Ligature2: "Devanagari-'half' Half Forms lookup 9 subtable" zadeva viramadeva
LCarets2: 1 0 
EndChar

StartChar: fadeva_viramadeva
Encoding: 481 -1 271
Width: 592
VWidth: 1000
GlyphClass: 2
Flags: HMW
LayerCount: 2
Fore
SplineSet
152 -71 m 1
 98 -16 l 1
 152 38 l 1
 206 -16 l 1
 152 -71 l 1
142 524 m 1
 142 328 l 2
 142 252 189 220 246 220 c 0
 322 220 373 293 397 350 c 1
 397 524 l 1
 142 524 l 1
486 48 m 0
 499 48 509 53 515 63 c 1
 561 32 l 1
 543 6 518 -7 486 -7 c 0
 437 -7 397 33 397 82 c 2
 397 242 l 1
 364 199 316 165 246 165 c 0
 163 165 88 222 88 328 c 2
 88 524 l 1
 -20 524 l 1
 -20 579 l 1
 612 579 l 1
 612 524 l 1
 452 524 l 1
 452 381 l 1
 483 410 527 436 577 436 c 0
 591 436 603 434 616 431 c 1
 616 374 l 1
 605 379 591 381 578 381 c 0
 523 381 480 342 452 304 c 1
 452 82 l 2
 452 63 467 48 486 48 c 0
EndSplineSet
Validated: 1
Ligature2: "Devanagari-'half' Half Forms lookup 9 subtable" fadeva viramadeva
LCarets2: 1 0 
EndChar

StartChar: shadeva_viramadeva.alt
Encoding: 482 -1 272
Width: 397
VWidth: 1000
GlyphClass: 2
Flags: HMW
LayerCount: 2
Fore
SplineSet
180 312 m 1
 167 301 154 290 141 278 c 2
 80 226 l 1
 42 262 l 1
 103 314 l 2
 113 323 124 332 134 341 c 1
 123 349 112 357 102 366 c 0
 74 392 40 433 40 489 c 0
 40 560 101 619 176 619 c 0
 248 619 307 564 307 495 c 0
 307 436 268 395 242 369 c 0
 235 362 227 355 220 348 c 1
 279 316 364 275 424 245 c 1
 424 187 l 1
 350 224 252 272 180 312 c 1
174 376 m 1
 184 385 193 394 202 403 c 0
 227 428 252 457 252 495 c 0
 252 538 216 569 176 569 c 0
 134 569 95 535 95 489 c 0
 95 452 118 424 142 402 c 0
 152 393 163 384 174 376 c 1
EndSplineSet
Validated: 1
EndChar

StartChar: ta_virama_ra_viramadeva
Encoding: 483 -1 273
Width: 300
VWidth: 1000
GlyphClass: 2
Flags: HMW
LayerCount: 2
Fore
SplineSet
-15 579 m 1
 320 579 l 1
 320 524 l 1
 -15 524 l 1
 -15 579 l 1
325 209 m 1
 108 148 l 1
 93 201 l 1
 274 252 l 1
 264 273 218 356 154 377 c 0
 129 385 97 386 65 386 c 1
 65 441 l 1
 101 441 137 439 170 429 c 0
 272 398 321 277 325 267 c 1
 325 209 l 1
EndSplineSet
Validated: 1
Ligature2: "Devanagari-'vatu' Vattu Variants lookup 10 subtable" tadeva_viramadeva viramadeva_radeva
Ligature2: "Devanagari-'vatu' Vattu Variants lookup 10 subtable" tadeva viramadeva_radeva viramadeva
Ligature2: "Devanagari-'half' Half Forms lookup 9 subtable" tadeva_viramadeva_radeva viramadeva
LCarets2: 3 0 0 0 
EndChar

StartChar: ta_virama_ta_viramadeva
Encoding: 484 -1 274
Width: 501
VWidth: 1000
GlyphClass: 2
Flags: HMW
LayerCount: 2
Fore
SplineSet
354 426 m 1
 542 426 l 1
 542 370 l 1
 354 370 l 2
 277 370 235 312 235 234 c 0
 235 192 245 155 264 125 c 0
 283 95 311 63 347 30 c 1
 309 -10 l 1
 247 49 180 113 180 234 c 0
 180 286 198 335 229 370 c 1
 40 370 l 1
 40 426 l 1
 354 426 l 1
-20 579 m 1
 521 579 l 1
 521 524 l 1
 -20 524 l 1
 -20 579 l 1
EndSplineSet
Validated: 1
Ligature2: "Devanagari-'pres' Pre Base Substitutions lookup 12 subtable" tadeva_viramadeva tadeva_viramadeva
LCarets2: 1 0 
EndChar

